{"glyphs":{"0":{"ha":946,"x_min":-15,"x_max":960,"o":"m 481 1067 q 497 1078 486 1075 q 792 993 676 1118 q 931 719 869 908 q 959 463 967 607 q 901 183 951 319 q 753 -61 849 38 q 526 -185 658 -161 q 241 -144 381 -210 q 35 54 101 -78 q -15 283 -12 149 q 17 539 -18 417 q 114 783 50 671 q 256 963 176 896 q 481 1067 353 1043 m 476 594 q 551 669 506 644 q 643 686 597 693 q 725 629 697 678 q 739 504 753 579 q 636 349 728 446 l 565 276 q 511 218 526 236 q 476 214 496 199 q 451 221 463 210 q 417 255 438 238 q 361 299 397 272 l 310 335 q 192 485 206 415 q 210 607 178 561 q 300 654 240 649 q 392 642 344 658 q 476 594 439 626 m 556 1021 q 292 921 396 1007 q 161 756 219 861 q 71 525 103 650 q 40 283 38 406 q 85 79 43 163 q 265 -94 142 -36 q 518 -129 389 -151 q 715 -21 631 -110 q 850 203 800 68 q 903 467 896 329 q 878 703 911 601 q 751 956 819 881 q 575 1032 679 1033 q 556 1021 567 1022 m 461 539 q 389 590 433 571 q 306 604 344 608 q 251 578 268 601 q 242 493 231 549 q 340 375 251 443 l 386 342 q 444 298 421 317 q 483 261 467 279 q 531 311 499 279 l 600 383 q 689 513 682 469 q 681 606 700 571 q 635 636 665 632 q 567 620 603 642 q 510 553 532 599 q 501 542 507 546 q 497 536 500 539 q 478 531 489 531 q 461 539 468 532 z "},"1":{"ha":476,"x_min":136,"x_max":492,"o":"m 431 943 q 326 956 397 946 q 224 967 257 965 q 208 796 213 883 q 204 581 204 708 q 203 407 204 465 q 196 -65 196 114 q 265 -66 217 -65 q 347 -65 314 -67 q 413 -60 381 -64 q 422 324 413 68 q 432 708 432 579 q 434 785 432 735 q 435 872 436 835 q 431 943 435 910 m 483 968 q 491 885 490 929 q 490 785 492 842 q 488 708 488 729 q 478 322 488 579 q 468 -64 468 65 q 465 -78 468 -71 q 460 -99 467 -89 q 443 -111 454 -108 q 349 -122 401 -119 q 254 -122 296 -124 q 165 -122 213 -121 q 145 -115 154 -122 q 136 -96 136 -107 q 140 -79 136 -87 q 147 407 140 106 q 149 583 149 467 q 153 808 149 717 q 169 986 158 899 q 183 1006 171 999 q 208 1022 190 1022 q 335 1010 247 1022 q 453 999 413 999 q 471 992 463 999 q 481 975 479 985 q 483 968 482 972 z "},"2":{"ha":967,"x_min":-3,"x_max":979,"o":"m 619 214 q 956 197 789 222 q 979 172 976 194 q 979 42 985 121 q 974 -82 974 -58 q 965 -101 974 -93 q 946 -110 957 -110 q 938 -111 942 -111 q 419 -122 600 -111 q 324 -129 388 -124 q 210 -137 261 -135 q 114 -140 160 -140 q 95 -133 103 -140 q 86 -117 88 -126 l 86 -115 q -3 103 10 17 q 3 124 -4 115 q 21 135 10 133 l 26 135 q 29 139 28 136 l 93 193 l 194 278 l 296 360 q 436 485 385 435 q 510 572 497 544 q 530 669 532 633 q 507 724 528 704 q 474 740 493 736 q 422 739 454 744 q 353 714 390 733 q 236 589 299 686 q 215 576 229 578 q 183 581 197 568 l 8 750 q 4 786 -8 767 q 8 817 -4 803 q 314 1061 160 986 q 486 1088 394 1096 q 669 1036 578 1079 q 828 925 761 993 q 914 778 896 857 q 917 629 929 701 q 869 489 906 557 q 785 367 832 421 q 685 269 739 313 q 650 240 674 261 l 619 214 m 507 215 q 578 251 538 219 q 614 282 589 260 q 651 314 638 304 q 824 523 760 399 q 861 764 888 647 q 788 888 846 829 q 646 986 729 947 q 481 1032 563 1025 q 339 1011 400 1039 q 54 785 193 940 l 203 640 q 328 764 264 731 q 449 798 393 797 q 544 764 506 799 q 585 673 582 731 q 560 550 589 615 q 475 444 544 513 q 331 317 422 393 l 232 235 l 131 153 q 68 97 89 118 q 56 92 63 93 q 132 -85 72 21 q 222 -81 175 -85 q 326 -73 269 -78 q 417 -67 383 -68 q 918 -56 597 -56 q 924 46 919 -44 q 925 144 928 106 q 519 149 707 175 q 499 154 508 147 q 488 172 489 161 q 483 183 485 178 q 489 204 482 194 q 507 215 496 214 z "},"3":{"ha":919,"x_min":17,"x_max":933,"o":"m 788 438 q 779 439 786 438 q 747 467 753 444 q 756 506 742 483 q 774 531 761 515 l 793 551 l 803 561 q 835 724 850 639 q 780 854 822 793 q 678 953 738 915 q 549 1004 619 990 q 411 992 479 1018 q 326 947 369 976 q 253 894 282 918 q 178 826 224 869 q 247 764 199 801 q 315 706 294 726 q 436 782 394 763 q 525 800 489 807 q 593 729 578 792 q 554 625 606 674 q 477 572 522 597 q 401 533 432 546 q 318 501 371 521 q 392 299 365 388 l 424 307 q 481 317 457 314 q 603 296 557 325 q 651 228 646 268 q 635 157 657 193 q 585 106 615 129 q 524 75 554 83 q 357 106 443 50 q 240 211 303 139 q 79 121 157 188 q 189 -15 104 60 q 308 -108 265 -82 q 450 -140 353 -133 q 835 53 700 -157 q 878 231 882 126 q 819 406 874 336 q 788 438 800 431 m 811 488 q 814 486 813 488 q 864 439 838 474 q 933 234 928 357 q 882 22 939 111 q 447 -196 729 -214 q 281 -156 336 -189 q 153 -57 233 -129 q 17 133 36 47 q 22 154 15 144 q 39 167 28 164 l 47 167 q 243 269 140 246 q 274 256 263 274 q 281 249 278 253 q 386 151 339 182 q 507 128 451 111 q 552 151 529 135 q 588 188 575 168 q 597 219 599 206 q 572 249 594 235 q 488 261 543 268 q 435 251 467 258 q 412 247 431 251 q 385 240 393 243 q 365 244 374 239 q 353 260 356 250 q 342 275 344 265 q 258 501 313 371 q 265 535 250 521 q 281 547 271 543 l 369 581 q 442 615 396 590 q 515 667 488 639 q 538 718 544 692 q 517 746 532 743 q 458 732 496 749 q 412 706 436 721 q 363 672 388 690 q 332 650 339 654 q 324 647 328 647 q 289 653 304 636 q 213 719 268 676 q 131 796 156 765 q 131 832 115 814 q 136 864 122 850 l 214 935 q 294 993 243 960 q 392 1044 344 1026 q 557 1060 474 1075 q 709 1000 640 1044 q 826 885 778 956 q 890 735 875 814 q 850 533 908 628 q 835 514 846 526 l 815 493 l 811 488 z "},"4":{"ha":813,"x_min":11,"x_max":826,"o":"m 67 968 q 67 736 60 901 q 68 526 68 685 q 74 336 68 407 q 164 337 93 336 q 269 338 235 338 q 360 335 304 338 q 460 326 415 332 q 478 316 471 325 q 483 296 485 307 l 483 292 q 486 88 483 221 q 489 -104 489 -44 q 591 -106 524 -104 q 692 -108 658 -108 q 683 296 692 190 q 703 325 682 318 q 719 331 710 331 l 765 331 q 769 439 765 350 q 772 535 772 499 l 718 535 q 699 543 707 535 q 690 563 690 551 q 692 571 690 567 l 692 578 q 704 917 721 772 q 479 914 529 918 q 488 579 479 674 q 476 554 489 564 q 451 538 469 538 q 375 535 426 538 q 299 533 324 533 q 279 542 288 533 q 271 561 271 550 q 275 576 271 569 q 254 974 275 850 q 208 974 242 974 q 156 975 174 975 q 113 973 139 975 q 67 968 88 971 m 43 1021 q 101 1027 69 1025 q 152 1030 132 1029 q 210 1030 172 1031 q 260 1029 247 1029 q 278 1022 271 1029 q 288 1006 286 1015 q 310 982 306 1001 q 331 589 331 854 q 378 592 344 590 q 431 593 413 593 q 424 928 424 679 q 425 938 424 932 q 431 958 424 950 q 450 968 439 967 q 724 972 501 972 q 743 964 735 972 q 751 944 751 956 l 751 943 q 758 929 757 938 q 750 590 776 788 l 774 590 q 790 585 783 590 q 797 586 793 586 q 817 578 808 586 q 826 560 826 571 q 825 436 829 518 q 821 318 821 347 q 804 292 821 300 q 778 275 796 275 l 740 275 q 747 -118 747 179 q 742 -135 747 -128 l 742 -136 q 733 -156 742 -147 q 714 -164 725 -164 q 592 -162 674 -164 q 471 -160 511 -160 l 469 -160 q 461 -161 465 -161 q 442 -153 450 -161 q 433 -133 433 -144 q 431 74 433 -62 q 428 274 428 210 q 335 281 386 279 q 247 282 285 282 q 149 281 210 282 q 58 281 89 281 q 35 293 43 281 q 19 315 21 300 q 13 526 13 396 q 11 733 13 683 q 11 978 4 906 q 21 996 13 989 q 43 1021 24 1017 z "},"5":{"ha":813,"x_min":-26,"x_max":826,"o":"m 826 1033 l 826 1029 q 813 779 826 940 q 803 760 811 768 q 782 754 794 753 q 772 757 778 754 q 371 767 501 757 q 369 682 374 719 q 581 631 481 676 q 690 556 643 603 q 765 455 738 510 q 805 337 792 400 q 817 210 818 274 q 804 85 817 147 q 799 57 803 81 q 791 15 796 33 q 778 -18 786 -4 q 668 -140 738 -93 q 519 -202 599 -187 q 360 -209 440 -217 q 207 -174 279 -201 q 117 -131 156 -151 q 35 -71 78 -110 q -26 15 -7 -32 q -18 49 -35 35 q -12 60 -17 54 q 153 215 85 171 q 173 219 163 221 q 190 208 183 217 q 210 197 201 207 q 332 114 253 142 q 439 124 400 89 q 468 217 475 157 q 401 324 461 281 q 226 353 340 368 q 92 310 161 344 q 71 308 82 304 q 54 322 60 313 q 51 333 51 328 q 43 353 43 342 q 40 688 43 464 q 36 1024 36 913 l 36 1026 q 26 1047 26 1035 q 35 1067 26 1058 q 54 1075 43 1075 q 284 1082 122 1075 q 570 1086 446 1089 q 804 1064 694 1083 q 821 1052 814 1061 q 826 1033 828 1043 m 347 825 q 760 813 483 813 q 771 1013 769 936 q 566 1031 672 1029 q 303 1027 460 1033 q 92 1019 147 1021 q 95 694 92 910 q 99 374 99 479 q 218 408 161 400 q 434 369 354 426 q 524 222 514 313 q 476 83 533 135 q 313 61 413 25 q 169 158 222 94 q 31 25 113 119 q 229 -121 74 -57 q 414 -158 318 -157 q 597 -117 510 -160 q 728 7 683 -75 q 738 31 735 18 q 744 63 740 43 q 749 96 747 83 q 762 241 767 167 q 736 379 757 315 q 669 497 715 443 q 558 581 624 550 q 325 628 453 628 q 306 636 314 628 q 297 656 297 644 q 314 681 297 674 q 314 779 319 721 q 317 794 314 788 l 317 800 q 327 819 318 811 q 347 825 336 826 z "},"6":{"ha":897,"x_min":31,"x_max":903,"o":"m 308 526 q 419 728 343 635 q 596 858 494 821 q 558 946 586 876 q 515 1039 533 1007 l 515 1040 q 248 856 361 1004 q 99 517 135 707 q 88 332 79 422 q 125 168 96 242 q 215 40 154 94 q 361 -37 276 -15 q 583 -42 493 -72 q 764 96 669 -12 q 849 256 831 172 q 843 408 867 340 q 767 525 819 476 q 649 592 715 574 q 505 588 583 610 q 357 497 426 565 l 356 494 q 342 477 353 483 q 322 475 332 471 l 319 475 q 304 482 311 476 q 296 502 296 490 q 303 522 296 514 l 308 526 m 546 354 q 594 402 567 386 q 647 413 621 418 q 695 367 683 404 q 693 288 707 331 q 622 192 682 242 l 600 172 l 578 156 q 560 140 569 149 q 544 122 551 131 q 528 113 539 114 q 510 118 518 111 q 501 144 496 128 q 497 149 499 146 q 435 196 492 154 q 372 268 385 233 q 371 306 368 281 q 379 339 374 328 q 425 389 397 376 q 483 393 453 401 q 546 354 514 383 m 565 1067 q 610 967 583 1031 q 651 871 638 897 q 654 856 656 864 l 657 847 q 654 826 660 836 q 638 814 649 817 q 503 737 565 794 q 400 601 442 679 q 619 653 514 665 q 804 567 725 640 q 896 426 868 507 q 903 246 924 344 q 806 60 882 147 q 600 -94 700 -61 q 347 -90 494 -129 q 206 -24 267 -69 q 107 83 143 22 q 50 217 71 143 q 31 369 29 292 q 44 526 32 446 q 133 781 69 661 q 299 988 196 900 q 522 1099 401 1076 q 543 1094 533 1100 q 556 1076 553 1088 q 565 1067 561 1072 m 533 294 q 469 344 499 336 q 447 344 456 349 q 424 317 435 338 q 421 300 422 314 l 419 285 q 464 236 426 264 q 533 183 528 189 l 551 199 l 572 217 q 590 229 583 225 q 646 299 638 269 q 649 340 653 325 q 643 358 646 354 q 638 363 640 363 q 624 361 632 364 q 603 345 615 358 q 579 311 590 332 q 578 308 579 310 q 569 292 576 299 q 551 287 561 286 q 533 294 540 288 z "},"7":{"ha":917,"x_min":36,"x_max":931,"o":"m 560 669 q 411 417 511 578 l 281 200 q 211 69 264 171 q 144 -51 167 -15 q 197 -78 158 -60 l 267 -112 q 322 -146 297 -128 q 375 -61 346 -104 l 444 39 l 503 119 q 578 246 532 163 q 653 378 636 351 l 872 717 q 870 776 872 733 q 868 840 868 819 q 871 906 868 861 l 868 906 q 476 935 724 925 q 111 951 171 947 q 103 749 119 872 q 529 717 283 751 q 546 707 539 715 l 547 707 q 562 690 558 701 q 560 669 565 679 m 921 689 l 700 347 q 626 219 681 317 q 547 89 579 133 l 489 7 l 419 -96 q 365 -181 390 -139 q 350 -193 361 -190 l 347 -199 q 328 -210 340 -208 q 308 -204 317 -211 q 190 -136 271 -175 q 94 -87 110 -97 q 81 -72 85 -82 q 85 -50 78 -61 q 86 -47 85 -49 q 90 -32 86 -39 q 163 94 121 14 q 233 228 218 200 l 358 436 q 494 665 450 583 q 65 692 247 699 q 45 699 54 692 q 36 718 36 707 q 46 740 36 732 l 46 744 l 46 749 q 54 956 65 879 q 57 971 53 964 q 54 985 54 978 q 64 1003 56 996 q 85 1010 72 1011 q 479 990 174 1003 q 876 961 728 981 q 893 951 886 960 q 908 953 901 954 q 926 940 919 950 q 931 919 932 931 q 923 856 924 889 q 925 779 922 824 q 928 710 928 735 q 924 694 928 701 l 921 689 z "},"8":{"ha":899,"x_min":7,"x_max":900,"o":"m 788 557 q 900 343 860 464 q 843 42 944 211 q 739 -89 800 -31 q 606 -178 676 -150 q 406 -208 510 -214 q 214 -156 303 -201 q 63 -24 119 -107 q 7 169 7 60 q 38 364 7 292 q 175 558 88 481 q 142 700 144 622 q 168 840 139 778 q 250 962 200 913 q 355 1033 300 1011 q 471 1058 410 1054 q 588 1042 532 1061 q 781 905 707 1006 q 839 675 856 804 q 788 557 833 636 m 219 524 q 88 342 133 451 q 63 169 63 282 q 110 6 63 76 q 239 -106 158 -64 q 410 -151 318 -146 q 586 -125 501 -157 q 701 -49 646 -103 q 796 69 757 6 q 847 326 883 218 q 736 532 808 444 q 731 558 725 544 q 734 574 731 567 q 749 602 738 582 q 766 631 761 622 q 776 655 771 640 q 783 681 782 669 q 735 874 797 789 q 572 989 674 958 q 474 1002 525 1006 q 376 981 422 999 q 288 922 331 964 q 218 818 246 879 q 198 689 193 761 q 236 565 203 617 q 240 544 242 556 q 228 526 238 533 q 219 524 224 524 m 465 794 q 557 819 510 838 q 590 782 583 810 q 585 722 597 757 l 575 704 q 564 686 571 694 l 550 669 q 534 653 544 664 q 520 640 524 643 q 506 627 517 638 q 493 617 494 617 q 474 610 485 610 q 458 618 464 611 q 453 626 454 622 q 444 631 449 628 q 381 710 403 668 q 365 785 360 753 q 381 815 368 804 q 418 825 396 829 q 465 794 440 821 m 488 751 q 479 739 486 743 q 460 733 471 732 q 444 743 450 735 q 414 774 428 765 q 429 726 414 756 q 478 669 444 697 q 538 742 526 713 q 542 768 544 760 q 539 774 542 772 q 499 757 521 781 q 488 751 494 753 m 456 294 q 524 343 486 331 q 594 340 561 356 q 645 281 633 324 q 638 186 657 239 q 567 94 622 146 l 524 56 q 489 24 500 35 q 472 15 482 15 q 454 22 461 15 q 450 25 451 24 q 426 35 435 22 l 381 82 q 311 163 336 129 q 272 251 272 215 q 289 299 271 279 q 339 324 306 317 q 456 294 390 333 m 451 238 q 350 274 388 282 q 325 264 332 271 q 321 253 321 260 q 351 192 322 232 q 417 117 374 161 l 464 68 q 492 93 475 79 l 533 131 q 590 203 581 174 q 597 267 603 247 q 575 294 590 288 q 538 294 563 303 q 490 258 513 286 q 486 244 490 250 q 469 234 479 236 q 451 238 460 232 z "},"9":{"ha":717,"x_min":-81,"x_max":732,"o":"m 432 394 q 442 372 442 386 q 453 161 442 343 q 456 -24 460 47 q 557 -18 464 -24 q 663 -18 621 -15 q 669 278 672 92 q 668 592 665 526 q 672 666 668 606 q 675 751 675 726 q 676 822 675 775 q 673 906 676 869 q 663 976 669 942 q 572 988 632 978 q 485 999 513 997 q 464 993 476 992 q 337 1006 390 1004 q 221 997 283 1008 q 107 954 158 985 q 17 843 60 925 q -24 639 -35 738 q 46 468 -14 540 q 137 394 85 419 q 257 369 189 368 q 394 406 325 371 q 415 408 404 411 q 432 394 426 404 m 306 778 q 362 822 329 810 q 425 824 394 833 q 473 781 458 813 q 476 707 488 749 q 411 619 467 664 l 369 588 l 333 563 q 316 557 326 556 q 299 567 306 558 q 297 568 297 567 q 285 575 290 569 l 254 601 l 222 629 q 164 699 179 668 q 160 772 142 742 q 214 804 175 801 q 306 778 263 810 m 399 -51 q 397 157 406 26 q 386 340 388 317 q 169 324 267 297 q 3 432 71 350 q -80 633 -68 518 q -33 868 -92 749 q 79 1001 17 964 q 199 1049 133 1035 q 320 1063 265 1064 q 444 1053 375 1061 q 457 1056 450 1056 q 581 1043 500 1056 q 696 1031 661 1031 q 715 1022 707 1031 q 724 1003 724 1014 q 718 986 724 993 q 728 910 724 949 q 731 822 732 871 q 731 748 731 774 q 727 663 731 722 q 724 589 724 603 q 725 279 721 529 q 717 -35 728 82 q 706 -54 715 -46 q 696 -70 704 -64 q 676 -75 688 -76 q 560 -74 632 -71 q 439 -79 458 -79 q 424 -82 432 -82 q 405 -72 413 -81 q 399 -51 397 -64 m 292 722 q 259 747 281 738 q 219 754 238 757 q 203 749 206 754 q 208 721 199 740 q 256 667 219 699 l 288 639 q 317 613 308 621 l 340 629 q 381 658 367 647 q 429 718 422 692 q 410 776 440 765 q 378 774 396 781 q 344 747 360 767 q 338 740 342 743 q 326 715 340 725 q 308 712 318 710 q 292 722 297 714 z "}," ":{"ha":417,"x_min":0,"x_max":0,"o":""},"!":{"ha":389,"x_min":49,"x_max":401,"o":"m 344 1024 q 275 1028 321 1025 q 195 1033 229 1032 q 129 1033 161 1035 q 119 889 122 976 q 117 739 117 747 q 113 654 117 729 q 108 560 110 579 l 106 478 q 105 385 104 417 q 107 304 106 353 q 111 214 108 256 q 165 219 136 218 l 214 224 q 269 226 235 225 q 317 228 303 226 q 324 517 317 329 q 333 767 332 706 q 333 842 333 786 q 334 942 332 899 q 344 1024 336 986 m 317 47 q 217 49 282 47 q 121 51 151 51 q 128 -1 122 40 q 136 -65 135 -40 q 215 -60 161 -64 q 308 -54 276 -56 q 317 47 317 11 m 401 1026 q 390 950 392 990 q 388 850 388 910 q 389 767 389 790 q 380 515 388 704 q 372 224 372 326 q 354 197 372 204 q 345 180 353 188 q 328 172 338 172 q 268 170 308 171 q 206 168 228 169 q 151 163 183 167 q 92 153 118 160 q 71 157 81 151 q 58 175 61 163 l 58 185 l 58 186 q 52 283 54 231 q 49 368 50 335 q 51 469 49 401 q 53 554 53 536 q 57 654 53 572 q 61 742 61 736 q 64 890 61 750 q 74 1040 67 981 q 76 1049 74 1044 q 74 1057 74 1053 q 80 1077 72 1068 q 99 1088 88 1086 q 188 1090 163 1090 q 274 1085 213 1089 q 357 1079 335 1081 q 382 1060 376 1078 q 399 1047 393 1057 q 401 1026 404 1038 m 371 76 q 361 -78 375 25 q 344 -99 358 -93 q 322 -110 336 -110 q 219 -115 290 -110 q 113 -121 149 -121 q 93 -112 101 -121 q 85 -93 85 -104 l 85 -92 q 82 -81 82 -86 q 74 -10 81 -56 q 63 65 65 44 l 63 74 l 63 79 q 71 99 63 90 q 90 107 79 107 q 213 105 132 107 q 336 103 294 103 q 344 101 340 103 q 363 93 356 100 q 371 76 369 86 z "},"\"":{"ha":532,"x_min":54,"x_max":546,"o":"m 243 904 q 199 913 225 907 q 136 926 144 925 q 118 578 118 811 q 211 582 143 579 q 206 649 206 614 q 208 713 206 685 q 217 780 210 742 q 228 842 224 818 q 243 904 233 865 m 301 910 q 281 819 288 849 q 267 738 275 789 q 260 645 258 686 q 271 565 261 604 q 268 544 274 554 q 251 532 263 535 q 244 531 247 531 q 233 528 239 528 q 81 524 114 522 q 62 533 69 524 q 54 553 54 542 q 63 571 54 564 q 85 961 63 833 q 97 978 88 972 q 118 983 106 985 q 119 982 119 983 q 132 983 126 983 q 211 967 149 981 q 282 957 254 957 q 301 949 293 957 q 310 929 310 940 q 301 910 310 918 m 488 881 q 429 892 476 883 q 383 900 401 896 q 374 743 382 867 q 364 569 365 626 q 407 570 376 569 q 453 571 438 571 q 488 881 456 732 m 535 913 q 546 885 549 901 q 508 546 508 722 q 500 526 508 535 q 481 518 492 518 q 468 515 475 515 q 404 515 447 515 q 340 514 361 514 q 322 522 329 514 q 313 539 314 529 q 308 554 308 546 q 318 747 308 619 q 328 936 328 875 q 336 956 328 947 q 356 964 344 964 q 365 963 361 964 q 369 961 367 963 q 439 946 394 954 q 515 931 496 936 q 535 913 531 928 z "},"#":{"ha":1040,"x_min":71,"x_max":1054,"o":"m 689 493 q 650 389 669 446 l 654 389 q 674 381 665 389 q 682 361 682 372 q 674 342 682 350 q 654 333 665 333 q 556 339 614 333 l 514 343 l 472 347 q 460 331 469 336 q 439 328 450 325 q 422 340 428 331 q 419 361 417 350 q 448 466 426 393 q 478 579 469 539 q 490 597 481 592 q 512 601 500 603 q 529 589 524 599 q 533 568 535 579 l 532 567 q 667 551 596 565 q 683 549 675 553 q 690 544 688 547 q 706 513 711 536 q 689 493 703 499 m 632 501 q 525 511 576 511 q 518 513 522 511 q 501 451 513 490 q 488 401 490 413 q 521 399 496 401 q 560 394 546 396 q 592 392 578 393 q 632 501 611 450 m 633 960 q 590 779 607 876 q 622 775 607 778 l 647 857 q 672 961 665 918 q 684 978 675 972 q 706 983 693 985 q 715 979 710 982 q 818 976 749 979 q 924 972 888 972 q 943 964 935 972 q 951 944 951 956 q 950 936 951 940 q 950 921 953 928 q 935 856 947 910 q 913 772 922 801 q 993 775 947 775 q 1015 763 1007 775 q 1028 744 1026 756 q 1039 615 1032 717 q 1054 492 1044 535 q 1049 471 1056 481 q 1032 458 1043 461 q 1007 467 1017 456 q 915 471 989 468 q 844 475 871 472 q 838 438 843 460 l 832 410 l 838 410 q 879 408 864 410 q 965 385 932 406 q 977 367 975 379 q 974 346 979 356 q 978 147 974 199 q 972 126 979 135 q 953 117 964 118 l 949 117 q 933 111 942 111 l 804 106 q 792 -122 803 -31 q 783 -139 790 -132 q 765 -146 775 -146 q 739 -164 758 -164 q 709 -165 725 -164 q 674 -165 693 -165 q 643 -167 654 -165 q 543 -164 583 -168 q 524 -153 532 -162 q 518 -133 517 -144 q 521 -124 518 -129 q 517 -7 521 -119 q 519 115 514 106 q 463 122 496 122 q 457 -108 447 -42 q 451 -130 458 -121 q 433 -140 444 -139 q 417 -137 424 -142 l 411 -137 q 189 -144 267 -137 q 168 -138 176 -146 q 158 -119 160 -131 l 158 -114 q 156 -99 156 -107 q 176 132 157 -76 l 113 132 q 90 143 99 132 q 71 172 69 150 q 75 269 74 197 q 81 374 75 335 q 91 392 82 385 q 113 397 100 399 q 117 396 114 397 q 125 397 121 397 l 206 397 q 213 439 208 410 q 218 469 215 457 l 128 469 q 108 478 117 469 q 100 497 100 486 q 101 507 100 503 l 101 513 l 101 725 q 110 744 101 736 q 132 764 115 761 q 300 774 228 778 q 331 883 303 782 q 383 1017 354 969 q 417 1029 394 1036 q 438 1035 426 1036 q 495 1025 453 1032 q 565 1015 538 1018 q 618 1011 592 1011 q 638 1003 629 1011 q 646 983 646 994 q 633 960 646 968 m 635 714 q 560 724 610 724 q 540 732 549 724 q 532 751 532 740 l 532 757 l 532 767 q 575 957 549 869 q 528 963 553 960 q 474 972 503 967 q 429 979 444 978 q 426 981 428 979 q 385 868 406 943 q 350 749 358 771 l 350 742 q 329 718 347 722 q 308 717 318 713 q 306 718 307 718 q 157 711 242 722 l 157 525 q 257 524 222 525 q 276 515 268 524 q 283 494 283 506 q 275 476 283 485 q 268 429 272 461 q 261 393 264 406 q 271 375 269 386 q 265 355 272 364 q 246 344 257 346 q 133 342 213 342 q 131 269 131 314 q 128 188 129 208 l 183 188 q 211 204 190 206 q 230 194 222 203 q 236 174 238 186 l 235 167 q 236 160 236 163 q 233 149 236 154 q 225 43 232 128 l 213 -86 q 399 -82 282 -82 q 408 138 394 -22 q 414 151 410 146 q 422 170 414 163 q 442 178 431 178 q 536 168 503 178 q 543 165 540 168 q 554 167 549 167 q 572 156 565 165 q 578 135 579 147 q 572 62 572 100 q 574 -32 572 24 q 576 -110 576 -87 q 642 -111 603 -111 q 672 -110 653 -110 q 708 -109 692 -110 q 738 -108 724 -108 q 749 118 749 -19 q 744 133 744 125 q 753 153 744 144 q 776 167 760 167 q 793 161 786 167 q 921 167 831 161 q 918 346 918 213 q 875 353 901 351 q 838 354 863 354 l 797 354 q 778 363 786 354 q 771 383 771 372 q 774 393 771 389 q 783 449 775 406 q 790 490 789 475 q 785 514 782 501 q 797 531 788 525 q 818 536 807 538 q 917 526 853 528 q 992 524 971 526 q 983 611 988 557 q 975 719 978 692 q 885 713 924 718 l 878 713 q 858 714 868 708 q 843 730 847 719 q 844 751 839 740 q 860 790 853 768 q 871 829 867 813 l 882 874 q 892 917 889 901 q 810 921 867 918 q 722 924 753 924 q 700 842 714 889 l 671 747 q 671 731 674 739 q 656 715 667 719 q 635 714 646 710 z "},"$":{"ha":842,"x_min":-29,"x_max":853,"o":"m 590 636 q 557 640 572 625 q 529 664 538 660 q 519 668 525 667 q 524 624 521 647 q 733 496 675 553 q 813 389 781 451 q 853 261 844 326 q 764 8 874 104 q 507 -103 668 -75 l 504 -128 q 483 -150 501 -146 q 476 -153 479 -151 q 260 -164 346 -172 q 241 -153 249 -162 q 235 -133 233 -144 q 236 -128 235 -131 l 235 -126 q 228 -74 229 -96 q 191 -51 219 -68 q 147 -22 163 -33 l 108 4 q 68 36 85 21 q -29 224 -29 121 l -29 228 q -15 257 -32 247 q 90 314 10 271 q 190 371 156 349 q 211 374 200 376 q 229 363 222 372 q 231 336 238 350 l 250 301 q 251 324 250 307 q 253 389 251 365 q 170 428 207 408 q 94 478 133 449 q 27 547 56 507 q -17 632 -1 586 q -20 763 -35 696 q 36 890 -6 831 q 119 977 71 942 q 224 1018 168 1013 q 221 1028 222 1024 q 219 1061 221 1029 q 236 1088 218 1081 q 253 1096 243 1094 q 463 1125 356 1106 q 484 1120 475 1126 q 496 1103 493 1114 l 496 1094 q 504 1079 503 1089 q 513 1000 508 1047 q 697 843 642 943 q 700 836 700 839 q 707 833 704 835 q 722 819 717 829 q 721 797 726 808 q 603 643 694 735 q 590 636 597 638 m 279 661 q 281 719 279 681 q 282 776 282 758 q 246 744 260 765 q 249 678 221 704 q 279 661 258 669 m 335 831 q 340 811 340 822 q 338 800 340 806 q 336 718 338 774 q 335 633 335 663 q 338 604 346 619 q 321 590 332 593 q 300 592 310 586 q 281 600 293 596 l 258 608 q 210 639 226 622 q 179 708 179 668 q 200 774 179 747 q 293 839 235 829 q 310 844 300 844 q 335 831 326 844 m 479 172 q 579 215 550 183 q 594 272 603 240 q 556 331 588 304 q 481 364 525 357 q 479 172 481 321 m 503 725 q 558 713 536 725 q 578 697 568 707 q 663 804 640 760 q 650 815 654 807 q 483 953 601 903 q 469 965 475 956 q 458 985 460 972 q 450 1065 454 1035 q 276 1042 361 1050 l 276 1039 l 276 1036 l 276 1033 q 278 1026 276 1032 q 283 1010 281 1019 q 285 1003 285 1007 q 288 988 288 996 q 277 969 286 976 q 257 963 268 961 q 163 939 210 967 q 82 860 117 911 q 35 751 47 808 q 36 649 22 694 q 122 527 60 576 q 275 439 183 478 q 285 440 279 440 q 303 430 296 439 q 310 410 311 421 q 306 322 307 382 q 303 231 306 261 l 303 229 q 310 209 311 221 q 300 190 308 197 q 280 183 292 182 q 261 193 268 185 q 186 303 218 242 q 115 265 158 286 l 26 217 q 104 78 29 143 q 151 42 126 58 q 217 0 176 24 l 267 -32 q 278 -47 275 -37 q 283 -62 283 -54 q 289 -110 285 -90 q 451 -100 356 -114 l 453 -93 q 449 -82 450 -89 q 454 -62 447 -71 q 474 -51 461 -53 q 728 50 633 -32 q 797 253 815 126 q 763 364 790 310 q 694 457 735 418 q 631 505 671 481 q 564 542 590 529 l 488 581 l 486 581 q 471 601 474 588 q 464 693 464 653 q 471 712 464 704 q 488 721 478 719 q 503 725 494 725 m 463 421 q 584 379 532 418 q 649 285 636 340 q 621 178 663 224 q 485 117 576 131 l 479 117 q 470 99 478 106 q 451 92 463 92 q 432 100 440 92 q 424 119 424 108 l 424 390 q 431 411 424 403 q 450 419 439 419 l 451 419 l 453 419 q 463 421 457 421 z "},"%":{"ha":1194,"x_min":-36,"x_max":1204,"o":"m 681 961 q 648 904 663 935 q 613 826 633 874 q 585 761 593 778 q 285 -118 421 396 l 454 -174 q 542 75 496 -76 l 625 347 q 685 516 651 431 q 771 724 718 601 q 840 889 824 847 q 681 961 750 940 m 971 224 q 930 192 944 215 q 914 143 915 168 q 922 117 914 124 q 950 118 931 110 q 991 155 979 131 q 997 200 1003 179 q 979 222 993 218 q 971 224 975 224 m 888 229 q 901 258 883 249 q 997 275 954 289 q 1051 215 1039 261 q 1042 131 1063 174 q 972 68 1021 89 q 886 74 921 46 q 858 144 858 97 q 888 229 860 190 m 203 790 q 153 757 169 783 q 167 701 132 722 q 203 696 186 689 q 229 724 221 703 q 203 790 244 763 m 258 815 q 281 703 306 765 q 224 644 264 661 q 136 654 185 628 q 92 717 99 678 q 106 785 85 756 q 161 835 125 818 l 161 838 q 176 853 165 849 q 197 854 186 858 q 214 847 206 850 q 235 846 224 847 q 253 835 246 844 q 258 815 260 826 m 160 969 q 60 871 97 938 q 19 728 22 804 q 64 588 18 640 q 214 540 115 531 q 285 565 256 544 q 346 628 315 586 q 380 717 376 669 q 365 808 383 765 q 310 890 346 851 q 201 964 258 946 q 160 969 178 971 m 226 1014 q 351 928 294 990 q 416 831 393 883 q 436 714 439 778 q 390 594 432 650 q 314 518 354 546 q 219 485 275 490 q 24 551 93 472 q -36 731 -39 619 q -3 868 -33 800 q 78 981 26 936 q 83 989 81 986 q 143 1022 107 1015 q 193 1040 167 1033 q 214 1036 204 1042 q 226 1018 224 1031 l 226 1014 m 926 449 q 925 457 925 453 q 934 476 925 468 q 954 483 943 483 q 1168 381 1101 476 q 1204 176 1225 299 q 1108 -22 1186 64 q 926 -117 1031 -111 q 740 -26 804 -124 q 701 176 686 57 q 772 351 713 274 q 926 449 831 429 m 683 1018 q 886 926 771 993 q 900 897 903 917 q 899 881 901 889 l 826 711 q 740 504 775 593 q 678 331 706 415 l 596 58 q 499 -211 544 -104 q 493 -219 497 -215 q 479 -233 489 -229 q 458 -235 469 -237 q 338 -194 417 -219 l 242 -162 q 225 -149 231 -158 q 224 -128 219 -139 q 228 -119 225 -124 q 535 783 365 410 l 561 847 q 599 929 582 896 q 633 992 615 963 q 651 1004 640 1001 q 683 1018 661 1025 m 1004 397 q 835 339 900 404 q 756 169 768 271 q 788 4 744 71 q 924 -61 833 -65 q 1069 16 1004 -57 q 1150 186 1133 89 q 1122 349 1167 283 q 1032 414 1090 393 q 1004 397 1024 396 z "},"&":{"ha":882,"x_min":-67,"x_max":890,"o":"m 354 250 q 321 301 335 276 q 287 269 299 286 q 276 243 275 253 q 278 228 276 233 q 297 221 282 219 q 354 250 322 225 m 393 736 q 436 778 425 758 q 441 789 440 785 q 440 794 442 793 l 440 796 q 431 800 438 799 q 415 797 425 801 q 396 779 404 793 q 392 743 389 768 q 393 736 392 740 m 128 563 q 70 769 72 663 q 127 966 68 875 q 300 1103 186 1057 q 331 1112 314 1108 q 366 1117 347 1115 q 397 1119 385 1118 q 431 1119 408 1119 q 458 1118 453 1118 q 728 975 660 1118 q 729 665 786 853 q 628 490 696 554 l 706 443 q 793 393 761 410 q 803 383 800 389 q 815 367 813 378 q 811 346 817 356 l 771 285 l 818 238 q 881 178 856 199 q 890 161 888 172 q 890 128 903 144 q 729 -18 829 50 q 699 -36 721 -39 q 599 28 651 -29 q 469 -47 544 -18 q 313 -82 393 -75 q 133 -65 218 -90 q -4 21 50 -40 q -67 244 -79 104 q 15 461 -56 372 q 128 563 50 503 m 189 563 q 179 532 196 544 q 60 425 90 464 q -11 240 -1 350 q 38 57 -21 124 q 152 -12 81 8 q 307 -26 224 -33 q 461 11 388 -19 q 581 86 535 42 q 600 94 589 94 q 619 86 611 94 l 625 81 q 632 75 628 78 q 692 24 671 32 q 833 146 778 81 q 778 199 813 164 q 715 260 728 250 q 714 299 697 278 q 715 303 714 300 l 749 353 l 676 396 q 589 447 610 436 q 575 467 578 454 q 568 474 571 469 q 561 494 560 483 q 571 513 563 506 q 676 682 643 572 q 678 951 726 849 q 458 1063 625 1063 l 428 1063 l 397 1063 q 372 1062 388 1063 q 344 1058 356 1061 q 319 1050 332 1056 q 172 933 222 1011 q 126 760 122 854 q 185 575 131 665 q 189 563 189 569 m 358 356 q 417 261 374 311 q 424 241 425 253 q 414 222 422 229 q 399 215 407 217 q 306 167 349 172 q 229 200 253 158 q 231 283 208 238 q 307 358 253 328 q 323 372 313 368 q 344 371 333 376 q 358 356 354 365 m 344 683 q 342 707 344 692 q 336 738 338 729 q 349 810 331 782 q 416 854 374 847 q 483 831 458 861 q 485 751 511 796 q 397 672 461 711 q 374 657 390 658 q 353 665 363 657 q 344 683 344 672 z "},"'":{"ha":242,"x_min":0,"x_max":254,"o":"m 165 908 q 113 910 149 908 q 57 911 76 911 q 54 819 53 876 q 58 727 56 761 q 67 633 61 693 q 75 538 72 574 q 192 553 175 549 q 170 671 176 606 q 165 792 164 736 q 165 908 165 847 m 221 921 q 220 857 221 907 q 220 788 219 807 q 222 727 221 769 q 227 660 224 685 q 238 601 231 635 q 254 540 244 568 q 253 519 258 529 q 238 504 247 508 q 222 503 231 501 q 217 501 219 501 q 168 492 194 496 q 109 485 142 488 q 63 481 76 482 q 47 483 56 479 q 29 491 38 483 q 21 510 21 499 q 10 646 19 550 q 0 787 1 742 q 3 929 -1 832 q 1 939 1 933 q 10 958 1 950 q 29 967 18 967 q 113 965 57 967 q 197 964 169 964 q 217 956 208 964 q 225 936 225 947 q 221 921 225 928 z "},"(":{"ha":471,"x_min":-12,"x_max":485,"o":"m 350 1065 q 233 957 297 1036 q 140 807 169 876 q 122 767 136 799 l 106 724 l 89 686 q 73 643 78 658 q 60 604 68 628 q 47 560 51 581 q 38 518 42 540 q 53 170 7 369 q 190 -153 99 -29 q 290 -257 219 -192 q 319 -219 300 -246 l 358 -174 q 392 -136 375 -153 q 368 -111 388 -133 q 344 -83 349 -89 q 323 -58 340 -78 q 300 -31 306 -39 q 281 -4 294 -22 q 260 26 267 14 q 242 56 253 39 q 224 89 232 72 q 208 122 215 106 q 167 340 169 218 q 193 580 164 463 q 283 803 222 697 q 428 974 344 910 l 350 1065 m 383 1104 l 479 990 q 485 972 486 982 q 476 954 483 961 q 472 953 475 953 q 464 939 471 943 q 328 782 386 882 q 243 572 271 682 q 217 346 215 461 q 256 142 219 231 q 272 106 263 124 l 289 72 q 310 40 296 60 l 331 11 q 356 -19 338 3 l 379 -47 l 406 -78 q 432 -107 428 -101 q 451 -115 443 -107 q 456 -134 457 -124 q 449 -151 456 -144 q 407 -193 428 -169 q 361 -249 386 -217 q 321 -300 336 -282 q 318 -301 319 -301 q 313 -311 317 -307 q 295 -319 306 -319 q 278 -312 285 -319 q 253 -289 272 -307 l 225 -264 l 200 -240 q 173 -211 185 -225 q 151 -183 161 -197 q 3 158 51 -51 q -12 529 -44 368 l -1 572 q 12 619 4 594 q 25 660 19 643 l 43 704 l 58 744 l 78 786 q 93 826 90 818 q 194 989 125 903 q 338 1115 272 1085 q 363 1114 351 1122 q 383 1104 375 1114 z "},")":{"ha":400,"x_min":-35,"x_max":413,"o":"m 144 1053 q 32 994 99 1032 q 84 896 60 951 q 120 806 108 840 q 153 700 132 772 l 182 604 q 209 187 250 394 q 24 -187 168 -21 l 69 -237 l 111 -285 q 219 -167 168 -251 q 303 26 264 -92 q 362 299 350 169 q 348 556 374 429 q 274 798 322 682 q 144 1053 225 914 m 186 1082 q 319 819 269 939 q 397 567 369 699 q 411 297 424 435 q 350 10 400 161 q 263 -192 310 -112 q 133 -329 204 -290 l 128 -337 q 101 -343 117 -349 l 99 -344 q 79 -343 89 -347 q 67 -329 69 -339 q 67 -311 64 -319 l 31 -271 q -28 -207 -7 -226 q -35 -189 -35 -199 q -28 -171 -35 -179 l -22 -168 q -19 -161 -21 -164 q 158 194 119 -3 q 135 590 199 388 l 106 689 q 70 799 82 767 q 34 885 58 831 q -19 981 10 939 q -28 989 -24 983 q -29 1008 -32 997 q -18 1024 -26 1018 q 151 1110 88 1085 q 171 1108 161 1113 q 185 1096 181 1104 q 186 1082 188 1089 z "},"*":{"ha":511,"x_min":-39,"x_max":525,"o":"m 65 846 q 49 806 61 833 q 28 760 36 779 q 17 724 21 742 q 58 714 26 721 q 106 701 89 707 q 120 690 115 699 q 122 671 125 681 q 111 656 119 661 q 107 647 110 651 q 24 507 43 542 q 136 440 114 450 q 150 469 138 444 q 172 508 163 493 q 193 538 182 524 l 194 538 q 203 550 196 544 q 220 556 210 557 q 238 546 231 554 l 274 504 l 294 481 q 356 535 317 504 q 381 553 358 536 l 413 578 q 321 661 386 611 q 311 677 313 667 q 317 696 310 688 q 318 699 317 697 q 333 710 324 707 q 372 724 346 714 q 422 742 399 735 q 467 751 444 749 q 443 822 461 775 q 418 894 425 869 q 331 858 365 869 q 311 843 325 846 q 292 848 300 842 q 282 864 283 854 q 267 989 269 951 q 142 993 143 993 q 139 886 142 918 l 139 885 l 140 883 q 155 872 150 881 q 157 853 160 863 q 145 838 154 843 q 126 836 136 833 q 88 843 113 839 q 65 846 71 844 m 139 383 q 90 407 115 393 q 28 444 65 421 q -14 472 -8 468 q -24 482 -21 475 q -31 514 -40 494 q 58 663 -6 558 q -6 678 -3 676 q -18 676 -11 676 q -34 686 -28 678 q -39 706 -40 694 q -24 760 -35 732 q 3 828 -14 789 l 24 875 l 24 879 q 35 894 26 889 q 54 899 43 900 q 89 893 65 896 q 92 1003 92 918 q 94 1014 92 1008 q 93 1024 93 1018 q 103 1040 94 1033 q 121 1046 111 1047 q 217 1040 154 1042 q 288 1038 281 1038 q 300 1033 294 1038 q 317 1010 317 1028 q 326 910 317 971 q 414 947 354 919 q 422 950 418 950 q 432 954 426 953 q 451 949 443 956 q 461 933 460 943 q 489 840 465 904 q 519 744 513 778 q 525 729 525 738 q 517 712 525 719 q 500 704 510 704 q 482 703 490 704 q 464 700 474 703 l 450 697 q 433 692 443 696 l 418 688 q 401 681 414 686 q 385 675 389 676 q 458 599 432 636 q 467 593 464 597 q 474 576 474 586 q 465 558 474 565 q 386 494 453 546 q 319 431 339 458 q 304 421 314 424 q 272 428 285 410 q 236 471 260 444 l 219 490 q 197 449 211 476 l 175 407 l 174 406 q 172 397 174 401 q 158 385 168 389 q 139 383 149 381 z "},"+":{"ha":685,"x_min":-40,"x_max":700,"o":"m 17 382 q 21 281 19 357 q 26 193 22 224 q 124 194 56 193 q 228 196 192 196 q 247 188 239 196 q 256 168 256 179 q 257 163 257 165 q 268 -100 267 53 q 316 -101 283 -100 q 367 -101 349 -101 q 460 -99 421 -101 q 453 14 460 -57 q 443 140 444 110 q 450 160 443 151 q 479 176 457 179 q 640 163 564 164 q 644 211 643 185 q 644 256 644 238 q 642 307 643 275 q 642 356 642 339 q 594 361 625 357 q 558 365 563 365 q 465 372 501 372 q 446 381 454 372 q 438 400 438 389 q 453 425 438 417 q 456 506 453 453 q 458 600 458 560 q 453 676 458 640 q 246 682 346 685 q 244 413 246 442 q 246 404 246 408 q 238 385 246 393 q 218 376 229 376 q 104 381 196 376 q 17 382 47 383 m -8 436 q 107 436 33 440 q 190 432 186 432 l 190 686 q 194 700 190 694 q 193 707 193 704 q 201 727 193 718 q 219 736 208 736 q 494 729 351 742 q 513 719 506 728 q 519 699 521 710 q 508 679 518 688 q 514 599 514 642 q 511 503 514 557 q 508 426 508 449 q 564 421 528 425 q 660 410 654 410 q 678 400 671 408 q 697 374 697 394 q 699 303 697 356 q 699 214 700 251 q 693 140 699 176 q 672 118 690 122 q 650 107 664 107 q 500 117 578 107 q 508 19 501 104 q 515 -108 515 -60 q 508 -126 515 -119 q 501 -144 508 -137 q 483 -153 493 -151 q 365 -157 435 -157 q 310 -156 349 -157 q 251 -156 272 -156 q 239 -153 244 -156 q 220 -144 228 -153 q 213 -125 213 -136 q 203 140 213 31 q 110 139 176 140 q 8 138 44 138 q -10 144 -1 138 q -26 164 -24 150 q -35 281 -33 206 q -40 388 -36 356 q -33 410 -42 400 q -26 428 -33 421 q -8 436 -18 435 z "},",":{"ha":294,"x_min":-8,"x_max":310,"o":"m 107 126 q 131 -28 138 56 q 68 -157 122 -118 q 185 -215 99 -175 q 260 -31 263 -119 q 256 3 258 -14 q 249 42 254 19 l 239 78 q 226 123 236 92 q 213 169 217 154 q 107 126 150 135 m 69 174 q 119 182 93 174 q 160 198 144 190 q 210 225 175 206 q 221 228 215 228 l 222 228 q 241 226 232 231 q 253 211 250 221 q 272 147 260 189 l 289 82 q 302 28 296 60 q 310 -28 308 -3 q 224 -247 313 -137 q 221 -260 224 -253 q 207 -272 217 -268 q 188 -271 197 -275 q 147 -252 176 -265 q 101 -231 117 -239 q 60 -210 85 -224 q 15 -185 36 -197 q 7 -176 10 -182 q -8 -158 -6 -171 q -4 -139 -10 -147 q 11 -128 1 -131 q 81 -24 72 -115 q 75 61 85 18 q 50 128 67 103 q 46 140 46 133 q 44 149 44 144 q 52 166 44 158 q 69 174 60 174 z "},"-":{"ha":482,"x_min":-11,"x_max":494,"o":"m 431 482 q 49 496 247 519 q 68 279 51 474 q 232 276 128 275 q 413 276 378 278 q 431 482 439 388 m 13 547 q 231 559 111 563 q 450 535 350 556 l 451 535 q 472 529 464 536 l 475 528 q 492 515 486 525 q 494 494 497 506 q 486 481 493 486 q 464 254 494 375 q 442 233 460 236 q 417 221 433 219 q 233 221 382 222 q 63 224 126 219 q 46 215 56 217 q 26 222 35 214 q 15 240 17 229 q 6 355 14 260 q -8 500 -1 450 l -8 507 l -11 515 q -6 536 -12 526 q 13 547 1 546 z "},".":{"ha":221,"x_min":33,"x_max":235,"o":"m 185 93 q 85 96 156 97 q 83 -49 85 76 q 131 -47 96 -49 q 185 -46 165 -46 l 185 93 m 226 126 q 235 107 235 118 q 233 -72 235 -39 q 226 -89 233 -82 q 207 -96 218 -96 q 200 -94 204 -96 q 193 -96 197 -96 q 126 -97 171 -96 q 58 -99 81 -99 q 41 -91 49 -99 q 33 -74 33 -83 l 33 -72 l 33 -71 l 33 113 q 35 122 33 118 q 42 139 35 132 q 60 146 50 146 q 207 142 175 146 q 226 126 221 139 z "},"/":{"ha":592,"x_min":-97,"x_max":606,"o":"m 399 1049 q 265 771 333 949 q 238 694 257 746 l 207 611 q 178 536 196 579 q 143 458 160 493 q 46 222 108 386 q -10 100 44 219 q -44 -3 -37 38 l 0 -19 l 47 -36 q 89 -51 64 -43 q 133 -61 114 -58 l 135 -60 q 168 29 149 -31 q 203 124 190 97 q 419 640 328 407 q 483 778 426 657 q 551 964 539 900 q 515 989 544 968 q 473 1017 485 1010 q 439 1034 461 1024 q 399 1049 417 1044 m 410 1099 q 471 1075 440 1090 q 545 1029 501 1060 q 594 996 589 999 q 605 981 603 990 q 601 963 607 971 q 569 850 593 910 q 512 722 544 790 q 467 621 479 654 q 247 104 374 388 q 215 14 236 76 q 182 -78 194 -50 q 185 -92 185 -85 q 176 -110 183 -103 q 158 -115 168 -117 q 97 -104 131 -112 q 41 -88 64 -96 q -19 -67 18 -81 l -69 -47 q -82 -36 -78 -44 q -97 -11 -100 -29 q -56 121 -89 47 l -1 239 q 99 481 63 404 q 133 558 115 515 q 161 631 150 600 l 192 711 l 219 788 q 367 1092 292 983 q 383 1102 372 1100 q 401 1099 393 1104 l 410 1099 z "},":":{"ha":308,"x_min":57,"x_max":322,"o":"m 197 97 q 156 99 183 99 q 115 101 129 100 q 108 -40 115 11 q 196 -39 124 -40 q 197 28 196 -18 q 197 97 197 74 m 247 117 l 247 111 q 247 26 247 82 q 246 -60 246 -31 q 240 -75 246 -68 q 218 -89 233 -89 q 177 -90 207 -89 q 124 -90 147 -90 q 79 -87 100 -90 q 62 -78 68 -86 q 57 -60 56 -69 q 58 -56 57 -57 q 57 -43 57 -49 q 65 118 65 8 q 64 126 64 122 q 72 144 64 136 q 89 151 79 151 q 156 149 111 151 q 222 147 200 147 q 240 140 232 147 q 247 122 247 132 l 247 117 m 267 618 q 203 619 247 618 q 135 621 158 621 q 133 493 133 589 q 264 493 188 486 q 267 618 267 533 m 317 628 q 313 471 317 518 q 303 455 311 461 q 286 449 296 449 q 275 444 281 446 q 100 447 171 433 q 85 458 90 450 q 81 478 79 467 l 83 483 l 83 486 q 88 654 83 611 q 97 671 89 664 q 115 676 104 678 q 128 671 122 675 q 210 669 154 671 q 297 668 267 668 q 315 660 307 668 q 322 643 322 653 q 317 628 322 635 z "},";":{"ha":313,"x_min":19,"x_max":326,"o":"m 218 618 q 104 617 135 619 q 114 471 114 557 q 169 467 131 471 q 228 463 207 464 q 218 618 224 504 m 261 646 q 268 629 268 639 q 281 444 275 489 q 276 426 282 435 q 258 417 269 418 l 250 417 q 235 413 243 413 q 165 417 211 414 q 96 422 118 421 q 78 432 85 422 q 64 454 64 439 q 53 621 64 557 q 67 647 50 639 q 88 665 71 664 q 236 668 117 668 q 253 661 246 668 q 261 646 260 654 m 158 138 q 75 -131 175 -43 l 117 -156 q 163 -183 146 -172 q 276 57 271 -53 q 272 122 278 72 q 269 175 268 154 q 211 157 247 169 q 158 138 163 139 m 117 176 q 194 204 133 182 q 279 228 246 222 q 306 215 296 231 q 322 186 326 208 q 322 126 318 165 q 326 54 328 75 q 186 -233 319 -79 q 169 -241 179 -240 q 150 -236 158 -242 l 147 -233 q 92 -199 129 -219 q 31 -161 49 -174 q 19 -135 17 -151 q 28 -106 13 -117 q 108 132 125 -33 q 100 146 101 138 q 102 165 97 156 q 117 176 107 174 z "},"<":{"ha":896,"x_min":-19,"x_max":908,"o":"m 815 -17 q 854 167 826 56 l 632 218 q 514 253 617 222 q 400 275 447 272 l 399 275 q 374 289 382 274 q 372 308 369 299 q 385 322 375 318 q 617 460 486 372 q 842 628 747 549 q 788 699 828 644 q 732 763 754 742 q 596 674 689 738 q 442 574 496 606 q 43 332 175 422 q 40 331 42 331 q 31 200 40 311 q 29 193 31 197 q 236 138 115 175 l 456 69 q 646 24 521 50 q 815 -17 764 -3 m 908 182 q 863 -42 874 39 q 857 -54 861 -49 q 845 -69 854 -64 q 826 -71 836 -74 q 635 -26 771 -57 q 442 22 511 0 l 221 90 q 0 147 92 129 q -15 158 -10 150 q -19 178 -21 167 q -14 188 -18 183 q -19 206 -21 196 q -15 255 -19 211 q -10 301 -10 299 q -11 347 -11 304 q -6 366 -12 358 q 11 375 1 374 l 17 375 q 417 618 150 465 q 567 715 469 647 q 721 815 669 785 q 753 810 739 825 q 760 806 757 808 q 828 728 789 779 q 886 653 871 671 q 892 644 890 650 q 896 642 893 643 q 901 623 901 633 q 893 606 900 613 q 697 455 814 536 q 476 315 581 374 q 528 301 499 310 q 643 268 631 271 l 874 214 q 878 211 876 213 q 890 211 885 214 q 906 201 901 210 q 908 182 911 192 z "},"=":{"ha":835,"x_min":-11,"x_max":849,"o":"m 786 508 q 722 508 739 507 q 659 511 706 508 q 597 514 613 514 q 69 521 429 521 q 63 439 65 490 q 57 361 58 376 q 138 353 96 356 q 230 352 179 351 q 310 354 281 353 q 403 358 339 356 q 486 363 468 361 q 657 361 551 365 q 797 356 767 356 q 793 439 799 383 l 786 508 m 832 529 q 836 517 836 524 q 842 446 836 514 q 846 342 849 378 q 849 331 849 336 q 841 313 849 321 q 824 306 833 306 l 819 306 q 654 311 792 306 q 489 313 551 315 q 404 308 474 313 q 306 303 335 304 q 222 302 276 303 q 122 304 167 301 q 36 313 78 307 l 35 313 l 26 313 q 10 322 17 314 q 4 340 3 331 q 13 442 7 365 q 21 538 15 500 q 19 546 19 542 q 27 563 19 556 q 44 571 35 571 q 600 564 432 571 q 669 560 614 564 q 738 558 725 557 q 804 560 750 558 q 823 554 815 561 q 832 538 831 547 l 832 529 m 794 201 q 710 201 771 203 q 593 201 625 200 q 44 214 306 214 q 42 75 46 114 q 278 82 128 79 q 555 90 429 85 q 790 106 681 94 q 794 201 797 138 m 844 210 q 840 100 849 139 q 847 86 846 94 q 842 67 849 75 q 825 58 835 60 q 363 33 667 42 q 15 24 58 25 q -3 31 4 24 q -11 47 -11 38 q -7 63 -11 56 q -8 72 -8 67 q -6 239 -6 100 q 2 256 -6 249 q 19 264 10 264 l 21 264 q 596 251 333 264 q 708 251 625 250 q 826 249 783 253 q 843 239 836 247 q 849 221 850 231 q 844 210 847 214 z "},">":{"ha":1049,"x_min":32,"x_max":1063,"o":"m 1008 499 q 894 547 967 519 q 757 601 775 593 q 389 778 635 654 q 306 815 367 789 q 218 856 246 842 q 210 865 213 860 q 108 672 167 794 q 599 464 422 547 q 606 458 603 463 q 632 442 625 460 q 631 423 635 432 q 617 410 626 414 q 82 142 289 290 q 147 -33 86 82 q 276 24 194 -15 q 431 90 383 72 q 713 190 518 124 q 1006 296 907 256 q 1010 297 1008 296 q 1008 499 1008 333 m 243 900 q 325 861 272 883 q 411 822 388 833 q 776 646 646 706 q 911 593 810 632 q 1049 535 999 561 q 1061 519 1058 529 q 1060 501 1064 510 q 1058 499 1060 500 q 1063 263 1058 314 q 1057 245 1064 253 q 1039 236 1050 238 q 1018 246 1026 235 q 728 142 919 207 q 447 43 536 78 q 297 -22 407 28 q 143 -87 200 -67 q 124 -86 133 -90 q 111 -72 115 -82 q 110 -65 110 -69 q 104 -58 107 -62 q 32 143 36 72 q 36 158 32 151 q 46 178 38 169 q 542 435 236 317 q 71 633 376 511 q 58 647 61 638 q 57 667 54 657 q 61 674 58 669 q 63 693 57 683 q 172 900 125 825 q 188 910 178 908 q 207 907 197 913 q 215 897 213 904 q 243 900 228 908 z "},"?":{"ha":844,"x_min":-8,"x_max":858,"o":"m 481 189 q 499 288 483 243 q 544 370 514 332 q 595 428 575 408 q 656 485 615 449 q 716 540 696 519 q 761 596 736 561 q 796 672 786 631 q 803 763 806 713 q 706 989 796 925 q 454 1035 622 1047 q 390 1030 408 1032 q 340 1020 372 1028 q 285 1000 307 1013 q 211 947 244 979 q 149 867 178 914 q 101 787 119 821 q 56 693 83 753 q 64 690 60 693 q 94 672 79 681 q 130 656 108 664 q 160 643 151 647 q 199 628 169 639 q 235 617 229 618 q 263 671 238 624 q 306 749 288 721 q 465 849 367 836 q 521 846 503 853 q 564 793 554 835 q 568 751 569 771 q 535 679 564 718 q 474 615 514 651 q 432 576 458 599 q 389 537 406 553 q 361 508 372 521 q 289 192 272 400 q 481 189 407 192 m 486 17 q 378 10 451 15 q 272 3 300 4 q 290 -101 290 -99 q 486 -82 449 -85 l 486 17 m 238 556 q 189 574 224 561 l 133 594 q 85 615 114 601 q 33 643 57 629 q 24 654 28 647 q 7 657 15 653 q -7 674 -3 663 l -7 675 l -7 676 l -8 678 l -8 679 l -8 681 l -8 682 l -8 683 l -8 685 l -8 686 l -8 688 l -7 689 l -7 690 l -7 692 l -6 694 q 6 717 -3 701 q 41 792 28 765 q 81 863 54 818 q 130 937 107 908 q 187 997 153 965 q 257 1050 221 1029 l 276 1058 q 295 1066 286 1063 q 316 1072 304 1069 q 335 1077 328 1075 q 356 1081 342 1079 q 375 1084 369 1083 q 395 1086 381 1085 q 414 1088 410 1088 q 433 1089 418 1088 q 451 1090 449 1090 q 738 1035 638 1104 q 858 765 850 956 q 851 673 861 717 q 828 600 842 629 q 788 538 815 571 q 744 489 761 506 q 692 443 726 472 q 631 387 651 407 q 584 331 611 367 q 546 253 557 294 q 535 160 535 211 q 526 140 535 149 q 507 132 518 132 l 506 132 l 501 132 q 256 136 418 136 q 236 144 244 136 q 228 164 228 153 q 233 182 228 174 q 319 544 214 417 q 350 576 331 558 l 394 619 l 436 656 q 490 714 472 689 q 513 757 511 740 q 511 779 514 767 q 503 794 507 792 q 471 793 496 796 q 351 717 399 785 q 311 646 335 692 q 271 568 282 586 l 238 556 m 542 38 l 542 -82 q 533 -101 542 -93 q 535 -107 535 -104 q 527 -127 535 -118 q 508 -136 519 -136 q 265 -160 493 -137 q 245 -153 254 -161 q 235 -135 236 -146 q 238 -121 235 -128 q 236 -118 236 -119 q 225 -48 233 -93 q 215 6 217 -3 q 217 19 214 13 q 215 31 215 25 q 224 50 215 42 q 243 58 232 58 q 374 65 285 58 q 507 72 463 72 q 529 60 521 72 q 542 38 542 51 z "},"@":{"ha":1240,"x_min":17,"x_max":1256,"o":"m 976 97 q 881 69 954 90 q 861 57 875 57 q 740 56 821 57 q 619 54 660 54 q 603 60 610 54 q 597 76 597 67 q 599 85 597 81 q 597 93 597 89 l 597 94 q 413 153 486 82 q 336 338 340 224 q 358 471 332 408 q 447 578 385 533 q 594 626 508 622 q 611 639 600 636 q 688 647 649 646 q 788 647 728 649 q 861 646 847 646 q 877 640 871 646 q 883 624 883 633 q 897 485 883 613 q 900 379 904 421 q 961 507 957 413 q 949 617 964 561 q 906 703 933 671 q 805 782 863 757 q 690 803 747 807 q 571 772 632 799 q 413 655 482 732 q 318 490 343 578 q 332 193 269 310 q 571 35 396 72 q 814 31 707 6 q 976 97 892 47 m 693 356 q 686 382 690 364 q 653 389 663 388 q 622 389 629 393 q 606 369 608 385 q 613 339 603 354 q 639 326 622 326 q 693 356 663 328 m 1126 -71 q 944 -175 1056 -136 q 707 -222 833 -214 q 467 -210 583 -232 q 269 -140 351 -189 q 151 -22 204 -100 q 64 156 100 56 q 17 346 29 254 q 19 517 6 440 q 118 749 43 639 q 231 872 163 814 q 371 964 300 931 q 503 1019 444 999 q 634 1056 563 1042 q 777 1062 706 1069 q 917 1024 849 1054 q 1060 931 981 994 q 1171 813 1140 867 q 1234 651 1213 736 q 1255 478 1256 565 q 1217 310 1254 392 q 1111 168 1181 228 q 1100 158 1106 163 q 1107 151 1104 156 q 1107 118 1119 135 q 1139 -43 1149 24 q 1133 -56 1138 -50 q 1126 -71 1133 -64 m 1094 -37 q 1071 90 1103 14 q 825 -25 938 1 q 560 -21 706 -51 q 282 167 358 22 q 265 504 210 304 q 371 692 293 606 q 549 822 449 779 q 687 858 618 854 q 826 833 756 863 q 950 739 896 804 q 1002 633 983 697 q 1017 504 1021 568 q 980 380 1014 433 q 878 311 946 326 q 857 316 867 310 q 844 333 847 322 q 850 356 843 346 q 853 479 863 400 q 849 517 851 493 q 843 563 846 542 q 839 601 840 583 q 788 603 826 601 q 732 604 750 604 q 685 602 714 604 q 632 597 656 600 q 611 582 626 582 q 435 510 496 582 q 379 340 375 438 q 444 185 383 243 q 614 142 510 122 l 618 142 q 640 124 636 142 l 640 122 l 640 119 l 642 99 q 741 100 675 99 q 839 101 807 101 q 847 106 843 104 q 897 120 860 110 q 951 136 935 131 q 996 152 968 142 q 1044 174 1024 163 q 1083 201 1065 186 q 1193 376 1164 271 q 1204 588 1222 482 q 1132 790 1186 693 q 1031 897 1106 838 q 900 982 957 957 q 772 1017 836 1010 q 641 1012 707 1025 q 518 978 575 999 q 390 925 461 958 q 260 839 324 893 q 154 724 196 785 q 64 508 88 624 q 61 350 50 439 q 106 171 74 261 q 188 6 139 78 q 292 -101 236 -68 q 476 -167 368 -147 q 704 -178 586 -187 q 926 -134 824 -169 q 1094 -39 1029 -99 l 1094 -37 m 731 443 q 740 397 733 428 q 751 349 749 364 q 747 328 753 338 q 732 317 742 319 q 642 271 686 274 q 568 306 596 268 q 550 351 554 325 q 558 403 546 378 q 600 442 571 429 q 661 443 622 450 q 675 442 668 443 q 699 467 676 463 q 719 462 710 468 q 731 443 728 456 z "},"A":{"ha":1025,"x_min":-28,"x_max":1038,"o":"m 636 988 q 465 1054 558 1033 q 296 663 394 925 q 133 254 182 358 q 109 196 129 243 q 72 117 89 149 q 35 58 56 85 q 84 24 58 40 q 147 -11 110 8 l 204 -42 q 258 88 224 1 q 318 233 296 186 q 326 253 318 244 q 344 261 333 261 q 462 265 369 263 q 604 271 554 267 l 610 276 q 632 280 621 282 q 649 268 643 278 q 789 -12 701 182 q 879 28 817 -3 q 964 67 940 57 q 768 594 871 299 q 722 713 756 632 q 667 860 689 793 q 636 988 644 928 m 488 663 q 548 710 514 694 q 615 722 582 726 q 678 682 657 717 q 685 594 699 646 q 615 485 672 546 q 569 439 601 469 q 532 401 542 413 q 528 394 531 397 q 510 388 519 388 q 492 394 500 388 q 461 421 483 404 l 419 454 q 350 528 363 501 q 340 611 331 571 q 381 674 350 651 q 456 683 415 699 q 488 663 472 678 m 472 1110 q 679 1026 588 1085 q 690 994 696 1015 q 721 876 700 938 q 774 735 742 814 q 821 614 806 656 q 1018 82 924 315 q 1038 65 1032 79 q 1037 44 1042 54 q 1021 29 1032 33 q 904 -22 985 17 q 779 -75 826 -60 q 758 -74 768 -79 q 744 -57 747 -68 q 743 -46 743 -51 q 615 217 658 142 q 537 211 578 213 q 444 208 496 210 q 367 207 393 207 q 310 68 351 174 q 244 -87 269 -35 q 228 -101 239 -97 q 207 -100 218 -106 q 204 -99 206 -99 q 186 -94 194 -100 q 129 -64 169 -85 q 57 -25 89 -43 q -1 17 25 -6 q -11 36 -10 24 q -19 40 -15 38 q -28 60 -28 49 q -21 81 -28 72 q 11 123 -4 97 q 36 169 26 149 q 61 224 46 189 q 83 276 75 257 q 243 682 131 379 q 418 1086 342 946 q 446 1100 428 1101 q 472 1110 456 1113 m 476 594 q 438 638 458 629 q 410 633 424 643 q 389 600 394 622 q 394 550 383 578 q 451 493 403 533 l 493 460 l 507 449 l 535 475 q 578 519 565 504 q 638 608 626 571 q 635 656 646 639 q 608 672 626 669 q 563 662 588 675 q 518 621 538 649 l 521 617 q 522 597 525 607 q 510 583 519 588 q 490 582 500 579 q 476 594 481 585 z "},"B":{"ha":954,"x_min":42,"x_max":967,"o":"m 464 624 q 504 673 489 649 q 524 715 519 697 q 526 745 528 733 q 521 764 525 757 q 501 771 514 775 q 460 719 478 763 q 446 706 456 710 q 426 706 436 703 q 411 729 411 713 q 357 744 376 747 l 354 743 q 364 700 351 731 q 408 658 374 682 q 442 638 417 653 q 464 624 454 629 m 432 774 q 485 817 454 807 q 528 818 507 825 q 563 792 549 811 q 570 698 589 758 q 489 579 551 638 q 468 572 481 571 q 444 576 456 568 l 417 594 q 381 617 390 611 q 319 681 333 647 q 304 754 299 726 q 350 794 313 789 q 432 774 385 799 m 517 325 q 578 369 544 357 q 643 372 613 382 q 697 319 683 360 q 692 225 710 278 q 608 144 676 182 q 556 119 590 135 q 515 100 525 106 q 496 99 506 96 q 481 110 486 101 q 478 121 478 115 q 472 125 475 122 q 421 174 463 138 q 367 233 382 208 q 353 260 357 247 q 350 283 350 274 l 350 307 q 388 365 351 354 q 447 361 411 374 q 517 325 478 350 m 535 265 q 504 264 521 254 q 493 281 496 269 q 431 314 457 304 q 403 318 411 321 q 400 307 400 318 q 408 258 399 275 q 454 211 421 240 q 511 158 499 172 q 513 156 513 157 l 536 165 l 585 189 q 644 242 636 217 q 649 302 656 285 q 628 324 643 319 q 591 321 613 329 q 550 286 569 313 q 546 274 549 279 q 535 265 540 268 m 221 985 q 163 992 206 1000 q 104 974 140 988 q 110 961 108 968 q 125 444 138 776 q 123 383 125 433 q 120 317 121 332 q 118 256 119 301 q 117 192 117 211 l 117 132 q 117 67 117 93 q 120 8 118 40 q 124 -56 122 -25 q 180 -60 151 -60 q 255 -60 208 -61 q 315 -58 301 -58 l 317 -43 q 318 -33 317 -37 q 329 -15 319 -21 q 350 -12 339 -10 q 502 -37 426 -29 q 661 -35 578 -44 q 799 8 744 -25 q 892 117 863 47 q 911 268 919 188 q 863 413 903 347 q 761 507 824 478 q 750 518 754 511 q 742 546 736 529 q 767 606 747 567 q 785 653 782 636 q 725 890 818 797 q 486 985 639 976 q 369 976 460 986 q 244 978 292 968 q 221 985 231 976 m 256 1032 q 364 1031 293 1024 q 489 1040 460 1042 q 764 929 661 1033 q 840 642 879 814 q 815 581 835 617 q 801 549 804 558 q 914 435 871 510 q 967 274 958 360 q 942 94 976 179 q 826 -39 907 10 q 682 -87 768 -75 q 522 -94 596 -100 q 369 -72 447 -89 l 369 -76 q 350 -100 368 -94 q 326 -114 343 -114 q 260 -116 313 -114 q 171 -116 208 -118 q 100 -108 133 -114 q 79 -87 83 -104 q 69 -69 71 -81 q 65 -3 67 -37 q 62 59 63 32 q 61 126 61 86 l 61 188 q 63 255 61 208 q 65 317 64 301 q 67 384 65 332 q 69 447 69 436 q 54 953 82 774 q 56 965 54 960 q 42 981 46 971 q 42 1002 38 992 q 58 1017 47 1013 q 153 1046 125 1040 q 250 1033 214 1058 q 256 1032 253 1033 z "},"C":{"ha":1060,"x_min":-14,"x_max":1072,"o":"m 786 238 q 692 138 756 167 q 553 119 628 108 q 403 178 472 129 q 306 301 335 228 q 271 465 278 376 q 294 635 263 572 q 415 755 338 717 q 579 786 492 793 q 729 738 658 779 q 839 625 800 696 l 908 668 q 1011 729 969 707 q 936 836 982 792 q 814 931 892 878 q 628 1014 721 993 q 450 1021 532 1036 q 296 958 368 1006 q 117 761 186 889 q 42 479 49 636 q 100 175 32 288 q 228 40 143 103 q 414 -58 311 -21 q 615 -92 514 -94 q 790 -44 718 -90 q 949 119 865 1 q 869 181 933 131 q 786 238 821 218 m 794 296 q 797 294 796 294 q 904 224 840 272 q 1000 153 978 167 q 1012 135 1010 146 q 1008 114 1014 124 q 1001 107 1006 110 q 996 90 1001 99 q 821 -92 904 -39 q 616 -148 733 -146 q 396 -110 499 -150 q 194 -4 286 -72 q 53 147 101 64 q -14 482 -24 275 q 69 789 -6 650 q 265 1006 144 928 q 442 1076 349 1058 q 639 1069 535 1093 q 844 978 744 1046 q 983 867 931 919 q 1071 732 1036 813 q 1072 710 1076 721 q 1057 696 1067 700 q 1053 694 1056 694 q 1040 681 1049 685 q 938 621 1000 660 q 833 557 850 567 q 813 554 824 551 q 796 567 801 557 q 793 590 789 578 q 703 688 763 651 q 574 731 643 725 q 440 706 503 736 q 344 610 378 675 q 325 469 318 560 q 358 321 332 389 q 437 224 381 264 q 560 174 493 183 q 677 193 626 165 q 746 286 728 221 q 758 303 749 297 q 779 306 768 308 q 794 296 789 303 z "},"D":{"ha":1047,"x_min":58,"x_max":1060,"o":"m 354 1058 l 433 1058 q 510 1056 471 1058 q 585 1051 549 1054 q 658 1038 621 1047 q 731 1015 696 1028 q 803 981 767 1001 q 874 933 840 960 q 1023 717 974 854 q 1060 435 1072 581 q 975 186 1047 290 q 828 17 911 92 q 485 -117 725 -76 q 117 -136 289 -150 q 98 -126 106 -135 q 92 -106 90 -118 q 97 -92 93 -99 l 86 215 q 74 511 81 354 q 75 757 71 565 q 71 988 78 903 q 58 1001 63 993 q 59 1023 54 1013 q 75 1038 64 1033 q 200 1074 126 1056 q 278 1089 247 1086 q 310 1090 296 1092 q 342 1079 331 1089 q 354 1058 351 1071 m 300 1035 q 283 1033 293 1035 q 214 1019 257 1031 q 125 996 172 1010 q 131 756 133 907 q 129 514 126 563 q 142 219 133 418 l 153 -82 q 476 -62 310 -90 q 792 58 700 -25 q 931 217 868 129 q 1006 441 994 310 q 972 696 1017 572 q 840 889 928 819 q 751 944 797 922 q 667 978 704 967 q 571 996 629 990 q 477 1002 513 1001 q 371 1003 442 1003 l 339 1003 l 333 1003 l 332 1003 q 311 1008 321 1001 q 300 1026 301 1015 l 300 1035 m 539 592 q 599 683 557 647 q 690 724 642 718 q 796 686 757 732 q 828 551 839 639 q 785 450 819 492 q 696 367 751 408 l 661 342 q 625 315 635 324 l 596 292 q 567 263 578 276 q 547 233 556 250 q 532 222 542 225 q 513 224 522 219 q 501 239 504 229 q 503 258 499 249 l 507 264 q 494 271 500 265 q 425 322 475 289 q 358 369 375 356 q 253 514 261 442 q 283 636 244 592 q 379 675 318 676 q 467 653 424 675 q 539 592 510 631 m 517 529 q 460 599 500 572 q 379 625 419 625 q 321 603 340 626 q 303 519 296 575 q 388 408 308 468 l 453 364 q 528 307 507 326 q 533 300 532 304 q 566 332 547 315 q 597 358 585 349 l 635 385 q 667 407 660 403 q 744 478 717 444 q 778 557 772 513 q 758 653 786 622 q 697 674 736 679 q 618 631 654 669 q 578 535 582 593 q 569 517 576 524 q 551 511 561 510 q 542 514 546 511 q 517 529 524 514 z "},"E":{"ha":875,"x_min":11,"x_max":889,"o":"m 861 1043 q 863 1036 863 1040 q 869 786 869 965 q 861 767 869 775 q 842 758 853 758 l 838 758 l 831 758 q 576 767 743 767 q 465 765 543 767 q 344 763 386 763 q 344 663 346 690 q 547 656 475 663 q 567 646 558 654 q 583 619 583 638 q 589 393 583 508 q 603 368 603 385 q 594 349 603 357 q 575 340 586 340 q 457 333 532 340 q 357 326 379 328 q 354 222 357 257 q 486 219 400 222 q 589 217 572 217 q 839 222 740 214 q 864 213 854 224 q 876 194 874 206 q 888 74 889 149 q 889 -37 886 -14 q 884 -56 890 -47 q 868 -67 878 -65 q 850 -76 861 -75 q 747 -83 801 -81 l 656 -90 q 549 -94 615 -93 q 456 -97 483 -96 q 350 -98 428 -97 q 257 -99 272 -99 l 153 -99 l 56 -99 q 29 -81 36 -99 q 11 -54 11 -74 q 14 119 11 29 q 22 329 17 210 q 28 503 25 431 q 17 1054 38 846 q 23 1074 15 1065 q 42 1085 31 1083 l 49 1085 q 71 1096 57 1096 q 211 1097 114 1096 q 381 1097 308 1097 q 522 1094 447 1097 q 679 1083 567 1093 q 833 1076 776 1076 q 853 1068 844 1076 q 861 1049 861 1060 l 861 1043 m 318 818 q 456 820 367 818 q 575 822 546 822 q 814 815 732 822 q 808 1021 814 953 q 675 1029 757 1022 q 519 1039 564 1038 q 381 1042 446 1042 q 213 1041 310 1042 q 74 1040 115 1040 q 83 500 93 836 q 78 331 81 428 q 69 128 72 217 q 67 -43 67 39 l 258 -43 q 450 -42 360 -43 q 641 -35 540 -40 q 832 -22 742 -31 q 832 75 831 -4 q 826 165 832 132 q 588 161 731 158 q 507 164 558 163 q 413 166 456 165 q 333 167 371 167 q 314 175 322 167 q 306 194 306 183 l 306 199 q 299 221 297 208 q 301 347 301 251 q 310 367 301 358 q 332 381 317 381 q 451 389 363 382 q 533 394 510 393 q 528 601 528 500 q 329 607 461 607 q 319 608 324 607 l 310 608 q 292 619 299 610 q 286 640 285 628 q 290 684 289 661 q 290 741 290 707 q 289 789 289 775 q 297 810 289 801 q 318 818 306 818 z "},"F":{"ha":876,"x_min":8,"x_max":885,"o":"m 867 1072 q 882 1050 881 1065 q 885 801 897 890 q 876 786 883 793 q 850 765 872 765 q 606 767 767 765 q 369 768 446 768 l 369 736 l 561 736 q 581 728 572 736 q 589 708 589 719 q 583 692 589 699 q 600 461 583 568 q 595 441 601 450 q 578 429 589 432 q 556 418 569 418 q 442 415 515 418 q 342 411 368 413 q 347 204 342 371 q 349 -25 353 53 q 346 -37 349 -32 l 346 -43 q 338 -62 346 -54 q 318 -71 329 -71 q 181 -78 289 -71 q 36 -79 92 -85 q 17 -69 25 -78 q 11 -49 10 -60 q 8 -36 8 -43 q 22 210 8 57 q 42 451 39 397 q 46 742 44 528 q 54 1035 47 943 q 64 1053 56 1046 q 85 1060 72 1061 l 88 1060 q 108 1075 94 1072 q 246 1087 169 1083 q 366 1091 322 1090 q 509 1091 410 1092 q 633 1090 608 1090 q 701 1087 660 1090 q 773 1084 743 1083 q 831 1093 803 1085 q 852 1092 842 1097 q 865 1075 863 1086 q 867 1072 865 1074 m 314 721 l 314 782 q 319 799 314 792 q 328 817 321 810 q 347 824 336 824 q 592 822 431 824 q 831 821 754 821 q 828 1035 840 900 q 763 1029 797 1029 q 690 1032 729 1029 q 633 1035 650 1035 q 508 1035 607 1035 q 367 1035 410 1036 q 249 1031 324 1035 q 117 1019 175 1028 l 108 1019 q 101 742 103 935 q 97 449 100 525 q 78 204 94 386 q 64 -25 64 53 q 176 -24 107 -28 l 293 -15 q 292 203 296 54 q 286 419 286 374 q 278 439 278 428 q 286 458 278 450 q 306 467 294 467 q 426 470 347 467 q 542 474 506 474 q 528 681 529 571 l 344 681 q 325 689 333 681 q 317 708 317 697 q 314 721 314 714 z "},"G":{"ha":1022,"x_min":11,"x_max":1038,"o":"m 981 517 l 978 517 l 932 517 q 792 513 881 515 q 576 504 711 510 q 579 451 578 488 q 583 399 582 418 l 586 400 q 635 404 617 404 q 686 403 667 407 q 733 375 721 397 q 738 346 739 364 q 733 322 736 336 q 725 288 729 303 q 633 160 699 200 q 489 132 568 121 q 351 192 414 142 q 265 319 289 243 q 281 536 233 422 q 424 732 329 651 q 550 811 483 783 q 692 831 617 838 q 829 774 767 824 q 951 901 885 821 q 887 961 911 940 q 824 1009 863 982 q 754 1049 786 1036 q 549 1056 690 1074 q 331 975 429 1040 q 173 815 233 910 q 84 603 113 719 q 67 371 56 488 q 188 40 89 149 q 510 -76 294 -76 q 640 -60 582 -76 q 775 -7 697 -44 q 786 -4 781 -4 q 885 78 846 29 q 944 191 925 128 q 972 316 964 254 q 979 457 979 378 q 981 478 979 461 q 982 503 982 494 q 981 517 982 511 m 556 558 q 790 568 786 568 q 931 572 879 571 l 978 572 l 993 572 q 1000 571 997 571 q 1014 565 1007 571 q 1033 533 1028 556 q 1038 501 1038 521 q 1036 475 1038 492 q 1035 457 1035 458 q 1030 335 1035 389 q 1010 217 1025 281 q 969 105 994 154 q 897 10 943 56 q 789 -65 851 -36 q 776 -68 782 -68 q 644 -117 704 -101 q 510 -132 585 -132 q 146 3 269 -132 q 11 365 35 124 q 29 615 -1 490 q 126 844 60 740 q 300 1022 192 949 q 540 1111 408 1094 q 774 1101 697 1131 q 812 1083 793 1093 q 851 1058 831 1074 l 885 1036 q 921 1006 897 1026 l 951 978 q 983 948 958 972 q 1011 922 1008 924 q 1019 902 1019 914 q 1013 882 1019 890 q 1003 875 1008 878 l 999 871 q 835 707 911 765 q 815 701 826 700 q 796 712 803 703 q 790 733 789 721 q 684 776 743 771 q 569 758 625 781 q 460 690 514 736 q 333 519 375 617 q 318 336 293 419 q 388 235 338 275 q 497 187 438 194 q 603 208 556 179 q 672 304 651 236 q 679 333 676 317 q 682 347 681 342 q 676 349 679 349 q 639 349 663 351 q 594 344 624 349 q 558 340 565 340 q 531 361 535 339 q 528 372 528 367 q 525 447 528 397 q 521 526 521 500 q 540 553 521 547 q 556 558 547 558 z "},"H":{"ha":929,"x_min":6,"x_max":942,"o":"m 314 1049 q 315 1044 315 1047 q 318 810 328 961 q 313 610 308 664 q 603 640 428 625 q 618 1019 608 771 q 627 1038 618 1031 q 647 1046 636 1046 l 649 1046 q 661 1049 654 1049 q 922 1028 840 1049 q 939 1015 933 1025 q 942 994 944 1006 q 935 982 940 988 q 936 883 935 949 q 937 765 938 817 q 935 665 936 713 q 926 489 933 625 q 917 290 918 353 q 919 122 915 226 q 936 -67 922 17 q 929 -89 938 -79 q 904 -106 922 -106 q 767 -108 858 -106 q 631 -110 676 -110 q 611 -101 619 -110 q 603 -82 603 -93 q 604 -74 603 -78 q 601 -62 601 -68 q 598 130 601 4 q 594 313 594 256 q 322 281 478 300 q 353 -62 322 138 q 347 -83 354 -74 q 329 -94 340 -93 q 314 -92 321 -96 q 303 -94 308 -94 q 61 -99 147 -94 q 41 -91 50 -99 q 32 -72 32 -83 q 33 -61 32 -67 q 28 -47 29 -54 q 6 311 7 110 q 15 668 6 513 q 10 857 17 700 q 19 1054 6 979 q 31 1072 22 1065 q 51 1076 40 1078 q 71 1085 58 1085 l 288 1085 q 307 1076 299 1085 q 315 1057 315 1068 q 314 1049 315 1053 m 258 579 q 263 814 253 642 q 261 1029 271 954 l 72 1029 q 65 860 61 965 q 71 665 72 692 q 62 311 61 508 q 83 -39 63 114 l 83 -42 q 293 -39 163 -39 q 267 283 267 144 l 267 289 q 263 300 264 294 q 268 322 261 313 q 286 332 275 331 q 611 369 493 358 l 618 369 l 622 369 q 642 361 633 369 q 650 342 650 353 q 653 142 650 275 q 657 -54 657 10 q 767 -52 693 -54 q 878 -50 840 -50 q 863 137 865 33 q 862 305 860 240 q 871 499 864 369 q 879 668 878 628 q 881 765 881 714 q 881 883 882 817 q 879 981 879 949 q 672 993 813 993 q 657 631 664 758 q 663 618 661 625 q 656 597 664 606 q 638 588 649 589 q 292 550 421 569 q 272 555 281 549 q 261 571 264 561 q 258 579 258 575 z "},"I":{"ha":893,"x_min":31,"x_max":907,"o":"m 857 1065 q 863 1067 860 1067 q 883 1059 874 1067 q 892 1040 892 1051 q 907 764 903 803 q 901 744 908 753 q 882 733 893 735 l 876 733 q 861 729 869 729 q 613 719 804 729 q 606 568 607 650 q 608 428 606 486 q 617 273 611 371 q 625 126 624 175 q 728 121 642 125 q 860 110 810 117 q 877 100 871 108 q 883 82 883 92 q 888 71 886 76 q 896 -40 893 28 q 903 -146 900 -122 q 897 -166 904 -157 q 878 -176 889 -175 l 876 -176 q 861 -181 869 -181 q 490 -187 789 -181 q 119 -187 192 -194 q 96 -172 104 -187 q 76 -146 76 -167 q 73 -35 76 -108 q 69 75 69 39 q 78 94 69 86 q 97 103 86 103 l 100 103 q 113 107 106 106 q 292 122 257 121 q 311 738 293 339 q 234 735 292 738 q 134 733 176 732 q 54 739 92 733 q 36 750 43 740 q 31 771 29 760 q 35 782 32 776 l 35 783 q 38 1008 43 867 l 38 1011 l 35 1019 q 40 1041 33 1032 q 58 1051 47 1050 q 301 1071 179 1067 q 610 1071 425 1075 q 850 1067 794 1067 q 857 1065 854 1067 m 368 760 q 347 99 347 322 q 340 80 347 88 q 324 71 333 72 q 308 67 317 67 q 125 53 265 67 l 129 -39 q 132 -132 132 -100 q 526 -131 269 -137 q 846 -125 782 -125 q 842 -42 844 -110 q 833 57 838 19 q 725 65 792 63 q 594 74 626 71 q 576 84 583 75 q 569 104 568 93 q 571 110 569 107 q 562 260 568 161 q 553 422 556 360 q 551 572 550 485 q 558 733 551 660 q 560 740 558 738 l 560 744 q 567 765 560 756 q 586 774 575 774 q 849 785 815 785 q 838 1011 844 832 q 608 1015 782 1011 q 319 1016 433 1019 q 93 1000 204 1013 q 92 790 99 872 q 203 790 104 786 q 321 793 303 793 q 336 789 329 793 l 342 789 q 360 780 353 789 q 368 760 368 771 z "},"J":{"ha":1057,"x_min":-14,"x_max":1071,"o":"m 817 807 q 989 806 893 813 q 1015 993 1011 910 q 903 1010 979 1003 q 697 1018 817 1017 q 354 1006 463 1021 q 342 917 342 975 q 344 869 342 900 q 346 825 346 838 q 533 829 400 831 l 539 832 q 557 829 549 833 l 564 829 q 583 821 575 829 q 592 801 592 813 q 578 778 592 786 q 611 467 610 611 q 526 132 613 229 q 367 44 439 33 q 268 146 301 56 q 244 300 246 211 q 260 450 242 389 q 176 465 232 454 q 71 483 107 481 q 78 56 6 229 q 431 -160 165 -153 q 572 -142 501 -161 q 683 -83 642 -122 q 813 311 792 18 q 801 758 825 488 q 792 776 793 765 q 798 797 790 789 q 817 807 806 806 m 338 1060 q 699 1074 440 1076 q 908 1064 819 1072 q 1050 1039 1011 1056 q 1067 1010 1069 1031 q 1071 993 1071 1003 q 1040 781 1067 900 l 1040 772 q 1030 753 1039 761 q 1010 747 1021 746 q 857 754 924 756 q 868 308 881 488 q 722 -125 846 -7 q 589 -195 671 -174 q 431 -215 507 -217 q 175 -145 275 -211 q 28 33 75 -79 q -14 268 -15 146 q 25 522 -12 390 q 38 540 28 533 q 58 542 49 546 q 67 538 64 540 q 76 539 72 539 q 189 519 115 535 q 294 501 264 504 q 313 491 306 500 q 319 471 321 482 q 318 465 319 468 q 318 449 321 457 q 299 313 299 400 q 321 164 299 225 q 375 99 343 104 q 485 168 417 93 q 556 465 557 250 q 522 774 554 608 q 321 767 382 775 q 299 772 308 765 q 289 790 290 779 q 292 806 288 799 q 290 814 290 810 q 288 865 290 831 q 286 917 286 900 q 304 1028 286 986 q 315 1040 307 1036 q 338 1060 321 1057 z "},"K":{"ha":964,"x_min":13,"x_max":976,"o":"m 344 1049 q 346 1040 346 1044 q 347 978 346 1022 q 347 908 347 933 q 346 844 347 882 q 340 774 344 806 l 385 813 q 461 882 440 861 q 689 1104 608 1035 q 709 1111 697 1113 q 728 1101 721 1110 q 731 1097 729 1100 q 735 1096 733 1097 q 911 918 819 1040 q 906 879 928 896 q 901 876 904 878 l 896 868 l 774 750 l 619 606 q 488 494 554 544 q 633 380 542 463 q 732 290 725 297 q 835 214 764 264 q 940 136 908 161 q 949 126 946 132 q 964 122 957 126 q 976 106 974 117 q 974 85 979 94 q 896 -31 950 43 q 819 -139 842 -104 q 803 -151 814 -149 q 782 -149 792 -154 q 776 -144 779 -147 q 761 -135 767 -143 q 539 56 726 -90 q 393 163 456 121 q 340 196 361 183 q 329 -87 342 -4 q 317 -106 326 -99 q 297 -111 308 -112 q 293 -110 294 -110 l 290 -110 q 38 -103 115 -110 q 19 -92 26 -101 q 13 -72 11 -83 q 19 -57 14 -64 l 19 -54 q 35 478 19 74 q 39 1007 47 808 q 47 1028 39 1019 q 68 1051 50 1047 q 318 1090 150 1074 q 338 1084 329 1092 q 349 1065 347 1076 q 344 1049 350 1056 m 279 732 q 286 788 283 760 q 290 851 289 817 q 291 908 290 886 q 291 973 292 929 q 290 1032 290 1017 q 94 1001 165 1019 q 90 476 103 803 q 75 -50 75 75 q 278 -54 140 -54 q 284 17 282 -22 q 286 83 286 57 q 285 159 286 110 q 285 229 285 208 l 285 231 q 283 251 281 240 q 297 268 286 263 q 318 269 307 274 q 424 208 349 260 q 574 100 490 163 q 789 -83 729 -21 l 851 3 q 911 89 892 58 q 907 92 908 90 q 803 168 885 108 q 696 249 733 218 q 613 322 665 274 q 519 406 561 371 q 433 461 476 440 q 419 477 424 467 q 421 499 415 488 q 432 522 419 514 q 565 631 500 572 q 725 782 631 689 l 851 904 q 707 1047 775 1001 q 500 843 636 982 q 421 769 476 818 q 346 700 369 726 q 326 692 338 692 q 306 699 314 692 l 306 700 l 303 700 q 285 712 292 703 q 279 732 278 721 z "},"L":{"ha":971,"x_min":63,"x_max":985,"o":"m 346 1042 q 354 1028 351 1036 q 363 928 363 983 q 361 811 364 872 q 361 717 360 750 q 372 250 372 449 q 645 246 461 250 q 924 242 829 242 q 943 233 935 242 q 951 214 951 225 l 953 214 q 963 196 961 207 q 985 -49 985 25 q 971 -72 985 -65 q 947 -82 961 -83 q 521 -83 810 -68 q 88 -87 228 -99 q 69 -78 76 -86 q 63 -57 61 -69 q 65 -47 63 -53 q 64 483 65 129 q 63 1013 63 836 q 68 1029 63 1021 q 67 1032 67 1031 q 72 1053 65 1043 q 90 1064 79 1063 q 208 1065 128 1069 q 313 1069 278 1063 q 334 1065 325 1071 q 346 1047 343 1058 l 346 1042 m 317 233 q 306 714 317 392 q 306 813 304 754 q 308 920 308 871 q 300 1011 307 969 q 206 1010 267 1007 q 118 1011 144 1013 q 119 486 118 835 q 121 -35 121 138 q 518 -28 247 -42 q 929 -25 799 -14 q 907 186 928 42 q 635 190 818 186 q 357 194 451 194 q 333 208 342 194 q 317 233 317 215 z "},"M":{"ha":1179,"x_min":25,"x_max":1193,"o":"m 939 494 q 923 365 928 439 q 919 236 918 292 q 922 92 919 181 q 925 -39 925 3 q 1033 -39 969 -36 q 1079 -40 1049 -39 q 1126 -42 1110 -40 q 1131 667 1126 467 q 1133 744 1131 692 q 1135 828 1135 797 q 1135 901 1136 858 q 1129 979 1133 944 q 1025 982 1093 983 q 924 983 953 982 q 922 981 922 982 q 743 685 874 883 q 681 576 721 651 q 618 464 635 490 q 614 458 617 461 q 599 440 611 444 q 577 440 588 435 q 563 454 567 444 l 514 568 l 463 693 l 414 803 q 356 923 385 868 q 297 1029 328 978 q 82 1021 247 1029 q 93 483 99 806 q 88 252 93 444 q 83 -42 83 60 q 210 -29 128 -42 q 328 -14 292 -17 q 325 81 329 26 q 315 175 321 136 l 300 281 q 285 372 289 347 q 286 383 285 378 q 300 414 281 404 q 321 416 310 419 q 338 401 332 413 q 393 311 354 368 q 453 217 436 246 q 504 118 467 194 q 549 38 531 68 q 685 138 614 100 q 686 143 685 140 q 881 500 771 319 l 883 506 q 896 523 886 517 q 917 527 906 529 q 934 515 928 525 q 939 494 940 506 m 1183 999 q 1190 913 1189 960 q 1191 833 1192 865 q 1188 744 1190 800 q 1186 667 1186 689 q 1182 -47 1182 468 q 1193 -69 1193 -56 q 1185 -89 1193 -81 q 1165 -97 1176 -97 q 1032 -94 1164 -97 q 903 -97 954 -92 q 883 -91 892 -99 q 872 -72 874 -83 l 872 -68 q 869 -56 869 -62 q 867 79 869 -12 q 864 224 864 171 q 867 369 864 278 q 736 118 794 242 q 728 108 733 113 q 713 89 725 96 q 572 -17 640 51 q 554 -25 565 -25 q 535 -18 543 -25 q 510 -6 518 -18 q 456 93 486 31 l 406 189 l 358 264 q 383 -15 386 79 q 400 -40 400 -22 q 392 -60 400 -51 q 372 -68 383 -68 q 218 -83 325 -68 q 54 -97 113 -100 q 35 -88 43 -97 q 28 -68 28 -79 l 28 -64 l 28 -60 q 33 251 28 47 q 38 485 38 456 q 25 1025 43 810 q 35 1049 24 1040 q 42 1067 35 1060 q 61 1075 50 1075 q 297 1085 257 1085 q 306 1083 301 1085 q 336 1071 325 1089 q 375 1006 356 1040 l 408 942 q 443 870 422 915 q 474 806 464 825 q 506 733 483 786 q 533 668 529 679 q 563 595 538 657 q 592 528 589 533 l 631 603 q 696 715 669 675 q 872 1006 828 917 q 876 1011 874 1008 l 876 1015 q 887 1034 878 1026 q 907 1040 896 1042 q 1025 1038 942 1038 q 1150 1033 1104 1039 q 1171 1018 1164 1031 q 1183 999 1182 1011 z "},"N":{"ha":1000,"x_min":40,"x_max":1014,"o":"m 319 1025 q 324 1021 322 1024 q 514 729 396 933 q 653 504 604 574 q 650 563 653 517 q 644 697 643 649 q 653 863 644 714 q 656 1024 658 961 q 674 1051 654 1043 q 696 1063 682 1063 q 982 1033 849 1063 q 1001 1017 996 1029 q 1006 1001 1006 1010 q 1001 840 1003 928 q 999 692 999 751 q 999 526 999 632 q 1000 372 1000 419 q 999 256 1000 338 q 999 128 999 174 q 1002 17 999 83 q 1014 -104 1006 -50 q 1008 -125 1015 -115 q 990 -136 1001 -135 q 979 -135 985 -136 q 961 -142 971 -142 q 858 -149 942 -142 q 765 -150 801 -153 q 733 -144 747 -158 q 517 153 644 -49 q 358 392 400 336 l 368 286 q 378 163 376 197 q 381 61 381 128 q 375 -57 381 -6 q 374 -60 375 -58 q 375 -64 375 -62 q 369 -84 376 -75 q 350 -94 361 -93 q 215 -104 306 -99 q 76 -114 124 -110 q 56 -108 65 -115 q 46 -89 47 -100 q 51 -69 44 -78 l 51 -67 q 47 283 51 57 q 41 634 42 510 q 47 985 40 758 q 56 1004 47 996 l 56 1006 q 61 1026 54 1017 q 79 1038 68 1036 q 296 1040 147 1047 q 319 1025 311 1039 m 654 410 q 467 701 583 499 q 282 985 354 897 l 281 985 q 103 985 161 990 l 103 982 q 97 635 96 756 q 102 290 97 515 q 107 -56 107 65 q 213 -49 142 -53 q 321 -42 285 -44 q 326 85 328 8 q 319 210 324 161 q 307 338 314 260 q 297 468 300 415 q 305 488 297 479 q 324 497 313 497 q 338 494 331 497 q 354 485 347 493 q 378 456 367 471 l 400 428 q 422 397 410 415 l 444 367 q 465 336 451 357 l 485 307 l 506 275 q 524 245 521 251 q 544 213 528 239 q 564 183 561 186 q 764 -94 683 -6 q 854 -93 797 -97 q 956 -86 936 -86 q 946 31 949 -33 q 943 142 943 96 q 944 263 943 188 q 944 372 944 339 q 944 521 944 419 q 943 682 943 622 q 944 827 943 742 q 949 983 946 913 q 711 1007 838 1006 q 708 860 713 949 q 700 697 700 728 q 704 567 699 650 q 711 432 711 463 q 697 408 711 415 q 693 404 696 406 q 674 399 685 397 q 654 410 663 400 z "},"O":{"ha":1218,"x_min":-26,"x_max":1232,"o":"m 486 1078 q 499 1083 492 1082 q 553 1087 526 1086 q 606 1084 579 1088 q 654 1077 633 1081 q 704 1064 675 1074 l 750 1050 q 797 1035 767 1046 q 813 1029 807 1031 q 1025 911 922 992 q 1183 731 1126 829 q 1217 639 1206 692 q 1231 553 1229 588 q 1232 463 1232 519 q 1172 135 1232 247 q 960 -90 1096 -4 q 665 -183 824 -176 q 469 -175 563 -187 q 278 -117 375 -162 q 118 4 182 -72 q -25 333 8 138 q 11 690 -60 529 q 103 828 44 760 q 226 946 161 896 q 486 1078 368 1054 m 582 572 q 674 646 621 622 q 778 660 726 669 q 869 599 836 650 q 893 467 901 547 q 782 301 885 393 l 700 236 q 636 179 656 199 q 619 171 629 171 q 601 178 608 171 q 594 186 597 181 q 578 193 585 186 q 546 219 567 206 q 510 239 525 232 l 458 264 l 410 289 q 309 351 349 319 q 258 425 269 382 q 268 529 247 465 q 332 620 289 590 q 429 647 375 650 q 582 572 514 642 m 564 1029 q 411 997 483 1029 q 260 901 340 964 q 144 792 199 854 q 61 665 92 729 q 28 342 -3 524 q 160 40 60 160 q 375 -97 242 -58 q 663 -128 508 -135 q 931 -43 807 -121 q 1122 163 1054 35 q 1176 463 1176 261 q 1175 550 1176 517 q 1164 627 1174 583 q 1136 703 1154 671 q 990 867 1085 792 q 796 976 896 942 l 714 1003 q 650 1020 692 1011 q 574 1031 608 1029 q 564 1029 569 1029 m 565 515 q 500 573 538 551 q 426 597 463 594 q 315 513 344 601 q 306 439 299 464 q 433 333 319 390 l 479 311 q 533 284 517 293 q 574 259 550 275 q 614 229 599 243 l 614 228 q 669 275 633 246 q 749 340 736 329 q 843 472 838 418 q 828 570 850 536 q 768 611 806 604 q 686 597 731 618 q 611 528 642 575 q 610 525 610 526 q 600 511 607 517 q 581 506 592 504 q 565 515 571 507 z "},"P":{"ha":961,"x_min":46,"x_max":974,"o":"m 363 272 q 368 97 363 253 q 369 -92 372 -19 q 349 -117 368 -112 q 324 -133 342 -133 l 81 -133 q 61 -125 69 -133 q 53 -106 53 -117 q 56 -93 53 -99 q 47 165 47 -4 q 49 285 47 196 q 51 422 51 374 q 47 719 51 460 q 49 1014 42 978 q 53 1028 49 1022 l 53 1031 q 59 1051 51 1042 q 78 1061 67 1060 q 180 1072 110 1064 q 294 1083 250 1079 q 406 1091 339 1088 q 525 1090 474 1094 q 635 1077 576 1086 q 747 1046 694 1068 q 844 992 799 1024 q 950 856 918 940 q 974 679 982 772 q 924 509 967 590 q 814 378 882 428 q 713 323 768 344 q 590 292 658 301 q 480 278 522 282 q 363 272 438 275 m 486 785 q 563 858 517 835 q 653 869 608 881 q 722 807 704 857 q 714 688 742 757 q 618 592 693 639 l 585 572 q 549 549 563 558 l 524 531 q 522 526 524 528 q 506 516 517 518 q 488 519 496 514 q 456 536 474 528 q 409 555 438 544 q 365 572 381 565 q 247 664 272 611 q 243 772 219 724 q 318 832 265 817 q 403 833 357 846 q 486 785 450 821 m 333 326 q 357 328 342 326 q 473 333 432 331 q 578 346 514 336 q 692 375 642 356 q 781 422 740 393 q 875 535 839 464 q 918 685 911 606 q 899 835 925 765 q 811 947 872 904 q 728 994 771 975 q 628 1022 683 1014 q 531 1035 572 1031 q 421 1036 489 1040 q 318 1029 353 1032 q 206 1018 283 1026 q 104 1008 129 1010 q 102 715 97 968 q 107 422 107 463 q 105 284 107 374 q 103 165 103 194 q 110 -78 103 3 l 314 -78 q 313 96 317 -12 q 307 283 307 240 q 308 290 307 288 q 307 297 307 294 q 315 317 307 308 q 333 326 322 326 m 474 721 q 407 779 446 764 q 333 785 368 794 q 289 750 301 775 q 292 686 275 722 q 383 618 308 649 q 431 600 385 618 q 497 572 476 582 q 525 592 510 582 q 562 616 540 603 q 592 633 583 629 q 667 707 653 674 q 676 790 688 757 q 640 821 667 815 q 576 808 611 828 q 518 740 542 789 q 507 713 524 722 q 489 709 499 707 q 474 721 479 711 z "},"Q":{"ha":1153,"x_min":50,"x_max":1167,"o":"m 860 329 q 829 342 839 324 q 696 483 786 411 q 656 451 678 469 q 622 421 635 432 l 583 383 l 549 349 q 569 331 553 344 q 592 311 585 317 q 613 292 599 306 q 636 271 628 279 l 656 250 l 676 228 q 694 206 686 217 q 689 167 711 183 q 681 163 685 164 q 660 157 671 156 q 556 177 600 167 q 456 216 511 188 q 365 286 400 244 q 303 442 311 354 q 327 606 296 529 q 415 735 358 682 q 631 796 514 825 q 863 583 763 763 q 887 521 879 554 q 895 467 894 488 q 894 408 896 447 q 893 356 893 368 q 885 336 893 344 q 865 328 876 328 q 860 329 863 328 m 1011 138 q 1014 158 1008 149 q 1112 460 1103 297 q 1054 751 1121 624 q 858 964 988 888 q 553 1029 728 1042 q 392 990 471 1024 q 256 900 314 957 q 158 758 197 847 q 107 567 121 669 q 106 368 93 465 q 157 201 118 269 q 267 91 188 144 q 449 6 347 38 q 641 -27 547 -28 q 788 11 735 -26 q 819 13 803 22 q 842 0 833 13 q 918 -117 900 -93 q 1083 -7 1013 -64 q 1017 113 1068 53 q 1011 138 1007 124 m 1067 139 q 1138 6 1121 72 q 1139 0 1139 3 q 1144 -19 1146 -8 q 1135 -37 1143 -31 q 928 -176 1047 -110 q 892 -168 906 -187 q 883 -161 886 -165 q 804 -44 856 -128 q 693 -78 757 -71 q 564 -78 629 -86 q 432 -47 499 -69 q 235 47 324 -12 q 107 174 146 106 q 50 361 65 253 q 51 574 36 468 q 108 782 68 686 q 217 942 151 879 q 371 1041 283 1004 q 550 1085 458 1078 q 886 1013 742 1099 q 1104 775 1031 926 q 1167 463 1175 636 q 1067 139 1158 289 m 490 371 q 544 422 503 382 q 615 488 585 463 q 675 536 644 514 q 700 540 688 544 q 719 535 711 542 q 839 421 790 481 q 838 494 842 465 q 815 556 833 524 q 618 742 725 714 q 453 693 529 764 q 361 517 376 622 q 410 322 344 410 q 606 224 465 253 q 503 315 592 238 q 494 326 497 319 q 489 331 492 328 q 482 351 482 339 q 490 371 482 363 z "},"R":{"ha":949,"x_min":-7,"x_max":961,"o":"m 450 796 q 509 847 476 832 q 572 851 542 861 q 617 799 608 839 q 603 714 625 760 q 532 631 585 675 l 490 597 q 456 567 468 579 q 438 560 447 560 q 419 567 428 560 q 413 586 413 575 q 392 599 404 592 q 347 625 357 618 q 275 703 286 663 q 281 789 260 754 q 340 826 299 819 q 450 796 399 835 m 290 303 q 410 229 340 292 q 535 103 460 186 l 594 33 l 657 -36 l 706 -86 q 753 -131 733 -115 q 897 17 800 -69 q 851 72 876 46 q 783 132 825 97 l 724 183 l 656 250 q 578 325 613 294 q 507 379 544 356 q 497 415 486 393 q 503 437 496 428 q 521 447 510 446 q 715 522 622 461 q 831 665 808 583 q 817 814 843 711 q 732 965 790 914 q 522 1028 654 1033 q 476 1024 500 1026 q 424 1017 453 1022 q 380 1008 394 1011 q 328 997 365 1004 q 283 986 292 989 q 265 989 274 985 q 245 993 254 988 q 233 1008 236 999 l 232 1010 l 140 1001 q 49 990 83 996 q 60 907 58 953 q 60 807 61 861 q 60 731 58 753 q 67 158 74 331 q 63 74 67 146 q 59 -8 58 3 q 61 -89 60 -18 q 153 -81 96 -85 q 271 -71 247 -74 q 251 269 264 128 q 261 294 250 285 q 290 303 272 307 m 22 1042 q 135 1057 65 1050 q 235 1067 215 1064 q 243 1071 239 1069 q 265 1069 254 1075 q 278 1053 275 1064 l 281 1043 q 519 1083 450 1081 q 768 1007 675 1089 q 869 828 840 943 q 883 651 900 711 q 769 492 858 558 q 574 400 679 426 q 685 299 615 368 q 763 225 756 231 q 824 172 772 215 q 906 95 875 128 q 958 24 936 63 q 961 3 964 14 q 949 -14 958 -8 q 942 -17 946 -17 q 781 -189 822 -122 q 763 -201 774 -199 q 742 -197 751 -203 q 729 -179 732 -190 q 721 -175 725 -178 q 668 -128 699 -158 q 617 -72 638 -97 l 553 -1 l 493 65 q 374 188 421 146 q 310 235 338 219 q 326 -74 319 115 q 310 -100 326 -93 q 285 -125 307 -122 q 157 -136 246 -129 q 33 -149 68 -143 q 13 -143 22 -150 q 1 -125 3 -136 q 7 -104 0 -114 q 3 -35 4 -74 q 4 28 3 3 q 8 98 6 54 q 11 161 10 142 q 4 728 18 331 q 5 814 3 758 q 5 910 7 869 q -7 988 3 951 q 0 1014 -11 1003 q 22 1042 0 1036 m 436 742 q 395 769 421 760 q 349 776 369 779 q 322 763 329 774 q 322 717 314 747 q 374 667 329 694 q 415 642 382 661 q 444 625 435 632 l 458 636 l 500 669 q 558 736 544 707 q 569 775 569 758 q 565 797 569 792 q 556 804 561 803 q 522 797 543 808 q 483 754 501 786 q 479 749 481 751 q 472 739 476 743 q 453 734 464 733 q 436 742 443 735 z "},"S":{"ha":882,"x_min":61,"x_max":894,"o":"m 293 246 q 264 233 279 239 l 228 218 l 199 206 q 132 175 158 189 q 374 -153 194 -72 q 561 -165 438 -181 q 747 -111 681 -150 q 797 -58 774 -94 q 828 15 821 -21 q 738 310 858 153 l 707 347 q 672 388 692 367 l 639 422 q 600 458 625 435 l 565 489 l 528 522 q 496 550 500 547 l 461 579 q 422 611 436 599 q 369 707 376 657 q 407 822 358 792 q 513 824 447 847 q 606 762 561 804 q 669 671 651 719 q 747 707 696 682 q 829 746 800 735 q 803 789 824 754 q 776 835 782 824 q 750 876 769 846 q 719 918 731 906 l 690 954 q 656 990 671 978 q 620 1017 640 1003 q 579 1042 600 1032 q 555 1048 568 1046 q 531 1050 542 1050 q 499 1049 519 1050 q 468 1049 479 1049 q 231 974 313 1049 q 156 742 144 894 q 221 524 164 628 q 369 346 278 419 l 499 247 q 568 186 542 213 q 611 128 604 151 q 604 68 621 93 q 561 36 590 46 q 468 35 513 18 q 357 140 410 60 q 318 204 343 160 l 293 246 m 328 293 q 365 232 342 272 l 403 171 q 490 88 446 104 q 542 89 513 78 q 557 99 554 93 q 558 111 561 103 q 529 147 556 122 q 464 204 506 171 l 336 301 q 171 497 233 383 q 100 739 108 611 q 193 1014 88 917 q 468 1104 290 1104 q 495 1105 474 1104 q 531 1106 517 1106 q 566 1102 546 1106 q 601 1092 586 1099 q 669 1051 636 1076 q 724 1001 701 1025 q 774 940 746 978 q 815 878 801 901 l 854 811 q 889 753 879 768 q 892 746 892 750 q 894 742 893 743 q 894 720 899 731 q 878 706 889 710 q 772 658 842 693 q 661 607 700 621 q 640 608 650 603 q 625 624 629 613 q 624 632 624 628 q 621 639 622 635 q 574 716 613 678 q 493 771 536 754 q 436 775 454 786 q 425 715 418 763 q 461 651 429 683 q 496 622 474 640 l 532 592 q 565 563 536 588 q 602 530 593 539 q 637 498 611 521 q 676 461 663 475 l 711 425 q 750 383 732 404 l 782 344 q 883 4 918 167 q 844 -89 874 -42 q 775 -158 814 -136 q 568 -219 699 -204 q 351 -203 429 -237 q 79 158 149 -112 q 64 171 69 163 q 62 193 58 182 q 75 210 65 204 q 176 257 115 231 q 276 299 272 297 q 293 301 283 303 q 328 293 314 313 z "},"T":{"ha":978,"x_min":10,"x_max":992,"o":"m 364 785 q 365 604 367 721 q 365 428 364 479 q 388 -111 371 235 q 586 -100 472 -110 q 582 0 582 -60 q 581 125 581 111 q 553 754 574 307 q 554 764 553 760 q 553 772 553 768 q 561 792 553 783 q 581 800 569 800 q 932 815 767 800 q 921 905 928 842 q 908 1003 914 968 q 357 1017 560 1003 q 203 1029 356 1017 q 75 1038 114 1036 q 71 939 72 1000 q 68 826 68 832 q 315 811 233 811 q 325 810 321 811 q 335 811 331 811 q 355 803 346 811 q 364 785 364 796 m 53 1093 q 208 1085 107 1093 l 360 1072 q 925 1058 563 1058 q 944 1050 936 1058 q 953 1031 953 1042 l 953 1029 q 964 1011 963 1022 q 977 907 969 976 q 990 803 985 838 l 990 799 q 992 793 992 796 q 985 773 993 782 q 967 763 978 764 q 608 744 797 746 q 636 128 629 307 q 638 0 636 113 q 644 -121 638 -75 q 639 -142 646 -133 q 621 -153 632 -151 l 617 -153 q 358 -167 464 -167 q 339 -158 347 -167 q 331 -139 331 -150 q 335 -125 331 -132 q 332 -115 332 -121 q 310 425 315 233 q 310 606 308 479 q 310 756 311 711 q 35 774 231 756 q 16 784 24 775 q 10 804 8 793 q 13 815 10 810 l 13 822 q 15 939 14 839 q 21 1060 17 1014 q 26 1074 22 1067 q 53 1093 32 1093 z "},"U":{"ha":1025,"x_min":26,"x_max":1039,"o":"m 132 1018 q 88 768 99 890 q 86 533 78 646 q 124 281 96 422 q 206 43 156 115 q 395 -116 281 -64 q 640 -157 510 -168 q 739 -140 699 -151 q 810 -101 779 -129 q 899 11 863 -53 q 951 143 935 75 q 976 288 967 211 q 983 440 985 365 l 981 592 l 981 622 l 981 811 q 975 990 982 921 q 793 996 901 1000 q 760 364 792 749 q 758 318 758 347 q 756 272 757 288 q 733 172 751 210 q 702 127 722 150 q 661 92 682 104 q 476 104 578 42 q 403 167 435 129 q 358 246 372 206 q 310 992 257 550 q 266 1003 290 999 q 227 1010 242 1008 q 177 1014 213 1011 q 132 1018 142 1017 m 133 1074 q 179 1069 142 1072 q 235 1065 217 1067 q 283 1056 253 1063 q 336 1042 314 1050 q 351 1028 347 1038 q 367 1000 369 1019 q 411 263 311 561 q 447 203 421 233 q 506 151 472 172 q 633 139 578 107 q 683 197 664 158 q 700 276 697 225 q 703 322 701 290 q 704 369 703 353 q 738 1008 738 760 q 739 1018 738 1014 l 739 1021 q 747 1041 739 1032 q 765 1050 754 1050 q 1007 1043 914 1057 q 1025 1032 1018 1042 q 1031 1011 1032 1022 q 1029 1007 1031 1008 q 1031 1001 1031 1004 q 1036 810 1038 926 l 1036 622 q 1038 585 1036 611 q 1039 435 1038 510 q 1031 278 1040 360 q 1003 124 1021 197 q 945 -19 985 51 q 846 -143 906 -89 q 758 -193 807 -179 q 646 -212 710 -207 q 372 -167 500 -225 q 161 13 243 -108 q 68 269 103 96 q 26 653 26 464 q 81 1038 26 842 q 106 1058 86 1057 q 133 1074 114 1075 z "},"V":{"ha":1065,"x_min":-26,"x_max":1079,"o":"m 32 940 q 135 610 64 846 q 267 211 207 375 q 404 -101 328 47 q 407 -100 406 -100 q 553 -82 539 -82 q 556 -75 553 -78 q 622 44 589 -19 l 681 158 q 739 286 704 206 l 789 403 l 842 536 q 890 658 881 632 l 925 731 l 969 815 q 1024 946 1018 910 q 850 1024 907 1001 q 849 1022 850 1022 q 742 846 796 946 q 654 672 688 746 l 569 482 q 535 411 561 461 q 503 344 513 368 q 488 328 499 333 q 467 328 478 324 q 450 346 454 333 q 444 354 446 349 q 318 715 385 486 l 300 781 l 281 847 q 260 904 274 871 q 232 965 247 938 l 232 967 q 32 940 97 967 m 569 -136 q 415 -156 549 -137 q 396 -151 404 -157 q 361 -137 374 -160 q 217 190 281 17 q 80 603 153 364 q -26 942 7 843 q -26 962 -31 951 q -10 976 -21 972 q 4 989 -6 986 q 92 1013 42 1006 q 172 1022 142 1021 q 257 1022 201 1022 q 276 1014 268 1022 q 285 994 285 1006 q 283 988 285 992 q 314 922 300 958 q 335 861 328 886 l 354 793 q 371 732 367 749 q 476 419 428 535 l 485 438 q 519 504 511 485 l 604 697 q 693 872 638 769 q 804 1053 749 975 q 811 1061 807 1058 q 813 1067 811 1064 q 827 1083 817 1078 q 849 1083 838 1088 q 1063 989 914 1060 q 1078 961 1081 981 q 1079 950 1079 956 q 1019 790 1076 904 l 975 704 q 943 636 951 660 q 894 515 932 611 l 840 383 l 790 264 q 731 133 756 183 l 672 19 q 603 -103 638 -47 q 596 -111 600 -108 q 587 -128 594 -121 q 569 -136 579 -136 z "},"W":{"ha":1256,"x_min":-46,"x_max":1269,"o":"m 17 1004 q 42 923 31 967 q 64 825 53 879 l 82 747 l 125 572 l 172 382 q 221 215 190 314 q 283 36 251 115 q 442 71 390 67 q 521 206 468 125 q 606 335 594 317 q 622 347 611 344 q 643 344 633 350 q 651 338 647 342 q 664 328 658 335 q 782 94 743 204 q 783 89 782 92 q 824 78 804 85 q 869 63 844 72 q 908 47 894 53 l 950 28 q 988 11 981 15 l 1040 211 l 1094 422 q 1140 618 1115 504 q 1181 829 1165 732 q 1200 906 1185 853 q 1211 953 1208 936 q 1001 1004 1079 1004 l 1001 1001 q 931 723 965 913 q 896 433 896 533 q 888 414 896 422 q 868 406 879 406 q 854 410 861 406 q 835 426 840 413 q 736 561 815 482 q 610 664 672 624 q 544 594 576 633 l 472 506 l 410 426 q 392 417 403 418 q 371 424 381 415 q 363 454 356 435 q 311 674 339 538 q 265 893 274 860 q 253 938 263 906 q 238 997 243 971 q 232 1047 233 1022 q 17 1004 149 1051 m 460 15 q 426 13 443 15 q 388 6 408 11 q 353 -1 367 1 q 314 -11 340 -4 l 276 -22 q 256 -19 265 -25 q 243 -3 246 -14 q 242 3 242 0 q 231 17 235 8 q 168 198 199 97 q 119 367 138 299 q 72 560 101 436 l 29 733 q 8 823 21 763 q -17 926 -6 883 q -44 1008 -29 969 q -45 1030 -50 1019 q -31 1044 -40 1040 q -18 1047 -25 1047 q -8 1054 -14 1051 q 253 1101 153 1114 q 269 1093 263 1100 q 286 1068 286 1086 q 290 1020 286 1043 q 305 959 294 997 q 318 907 315 921 q 365 685 326 875 q 406 510 388 576 l 431 542 q 458 578 451 569 l 485 611 q 514 646 503 633 l 542 675 l 574 708 q 596 715 583 717 q 628 718 611 729 q 775 600 700 675 q 846 521 817 558 q 888 794 857 643 q 949 1021 918 944 q 953 1028 950 1025 q 959 1048 951 1039 q 978 1058 967 1057 q 1244 1000 1076 1067 q 1263 990 1256 999 q 1269 969 1271 981 q 1253 892 1267 940 q 1236 821 1239 840 q 1186 564 1215 693 q 1104 236 1157 435 l 1038 -18 q 1035 -26 1038 -22 q 1033 -37 1035 -32 q 1017 -52 1028 -47 q 996 -53 1007 -57 q 921 -19 979 -44 q 826 19 863 7 q 751 39 789 32 q 734 51 740 42 q 729 72 728 61 l 731 74 l 729 75 q 632 274 697 169 l 567 175 q 490 43 515 96 q 488 39 489 40 q 478 22 486 28 q 460 15 469 15 z "},"X":{"ha":1107,"x_min":31,"x_max":1121,"o":"m 1049 906 q 868 1028 961 993 q 860 1014 867 1019 q 706 844 810 969 q 575 667 603 719 q 558 652 569 656 q 538 654 547 649 q 531 660 533 657 q 517 672 521 664 q 393 843 482 742 q 253 1015 283 968 l 214 983 q 178 951 192 965 l 139 914 q 101 878 114 889 q 246 721 154 831 q 396 522 344 600 l 399 519 q 408 501 407 513 q 401 481 410 490 q 114 47 208 246 q 181 4 119 43 q 263 -56 233 -29 l 388 101 q 528 283 479 214 q 545 294 533 292 q 567 289 557 296 q 576 275 574 283 q 704 82 615 221 q 829 -101 781 -37 q 908 -53 849 -90 q 1001 0 965 -18 q 963 79 994 26 q 878 207 932 132 l 708 431 q 706 460 699 444 q 703 489 694 474 q 844 697 763 603 q 1049 906 926 790 m 300 1046 q 435 879 331 999 q 549 731 513 789 q 688 908 597 801 q 824 1056 778 1015 q 829 1060 826 1058 q 831 1069 829 1064 q 844 1086 833 1081 q 865 1088 854 1092 q 997 1021 932 1068 q 1114 917 1063 974 q 1120 897 1121 908 q 1111 878 1119 886 q 1093 871 1104 871 q 1090 867 1092 869 q 889 663 968 754 q 753 464 810 572 l 922 239 q 1010 108 976 165 q 1058 1 1051 38 q 1057 -11 1058 -4 q 1042 -43 1064 -35 q 938 -100 1003 -60 q 829 -164 861 -149 q 808 -165 819 -169 q 792 -151 797 -161 q 789 -139 789 -146 q 658 51 743 -79 l 549 218 q 431 67 506 158 l 289 -112 q 250 -118 272 -135 q 242 -110 244 -114 l 233 -104 q 151 -43 207 -78 q 58 18 76 4 q 47 36 49 25 q 53 57 46 47 q 60 64 56 61 q 61 67 61 65 q 344 499 156 267 q 203 685 292 576 q 43 853 88 825 q 31 869 33 858 q 33 890 28 881 q 49 903 39 900 q 53 910 50 907 q 94 950 67 922 l 142 994 q 188 1035 161 1013 q 240 1074 215 1057 q 261 1077 250 1079 q 279 1065 272 1075 q 282 1058 281 1061 q 300 1046 293 1056 z "},"Y":{"ha":1014,"x_min":15,"x_max":1026,"o":"m 239 1040 q 75 947 154 1010 q 268 567 158 808 q 294 503 278 547 q 329 427 314 457 q 363 374 344 397 q 360 338 376 354 q 349 -150 365 206 q 446 -155 375 -151 q 556 -161 517 -158 q 564 -35 561 -106 q 567 76 567 35 q 567 210 568 117 q 567 326 567 303 q 569 357 558 343 l 642 443 l 717 536 l 785 624 q 855 722 829 682 q 911 814 881 761 q 964 915 942 867 q 935 937 950 926 q 901 958 921 947 l 869 976 q 833 997 858 983 l 800 1014 q 521 615 718 879 q 510 607 517 610 l 501 601 q 481 602 492 597 q 465 618 471 607 q 239 1040 354 897 m 260 1090 q 279 1081 271 1089 q 500 681 393 939 q 768 1069 686 928 q 785 1082 774 1079 q 806 1079 796 1085 q 817 1069 813 1075 q 861 1044 826 1063 l 914 1017 q 957 990 931 1007 q 1004 956 983 972 q 1011 953 1007 954 q 1026 938 1021 949 q 1025 917 1031 928 q 969 806 1003 864 l 914 711 q 840 606 892 674 l 774 517 q 692 418 758 497 q 622 332 626 339 l 622 326 q 623 203 622 311 q 623 56 624 96 q 618 -61 622 17 q 607 -200 614 -137 q 597 -219 606 -212 q 576 -225 588 -226 q 561 -218 567 -224 q 435 -210 517 -214 q 315 -203 354 -206 q 297 -193 304 -201 q 290 -172 289 -185 q 293 -161 290 -167 l 293 -154 q 297 -58 294 -135 l 303 50 q 306 142 304 82 q 307 251 307 203 q 304 349 307 300 q 306 358 304 354 q 274 415 289 383 q 241 488 258 447 q 218 544 224 529 q 15 939 113 778 q 15 967 7 953 q 22 976 18 972 q 231 1097 122 1060 q 260 1090 249 1103 z "},"Z":{"ha":1072,"x_min":28,"x_max":1086,"o":"m 988 1003 q 834 1006 939 1006 q 675 1008 729 1006 q 413 1024 599 1013 q 128 1039 228 1035 q 120 975 125 1018 q 110 897 115 932 q 97 832 106 863 q 340 821 129 832 q 592 817 499 813 q 619 796 614 818 l 621 796 q 628 776 628 788 q 619 756 628 764 q 429 550 540 682 q 247 333 254 340 q 167 228 238 322 q 88 139 125 171 q 88 76 88 122 q 88 -3 89 31 q 86 -68 88 -36 q 365 -54 186 -68 q 658 -36 583 -37 q 857 -37 696 -35 q 1031 -35 974 -39 q 1025 146 1031 79 q 435 135 672 146 q 415 142 424 135 q 406 161 406 150 q 415 185 406 175 l 418 188 q 565 363 474 263 l 718 529 l 850 682 q 993 846 942 790 l 993 847 q 990 928 993 875 q 988 1003 988 981 m 115 1094 q 411 1079 219 1090 l 678 1064 q 842 1061 732 1061 q 1006 1058 951 1061 q 1031 1040 1024 1057 q 1043 1017 1043 1032 q 1045 939 1043 989 q 1049 869 1047 889 q 1051 868 1050 868 q 1060 848 1060 860 q 1053 828 1060 836 q 897 650 996 767 l 760 493 l 607 325 q 493 193 538 249 q 1051 201 717 201 q 1071 193 1063 201 q 1079 174 1079 185 l 1079 168 l 1079 165 q 1086 -46 1086 90 q 1082 -61 1086 -54 q 1075 -79 1082 -71 q 1057 -89 1068 -87 q 856 -93 985 -96 q 658 -92 697 -90 q 369 -110 599 -93 q 78 -124 183 -124 q 63 -118 69 -124 q 53 -119 57 -119 q 33 -109 40 -118 q 28 -89 26 -100 q 32 -34 31 -64 q 33 17 33 -4 q 33 75 33 38 q 32 129 32 113 q 31 131 31 129 q 36 169 14 153 q 122 261 76 200 q 206 369 194 357 l 386 586 q 543 760 475 692 q 336 765 464 758 q 83 776 132 776 q 69 781 76 776 q 63 780 69 779 q 54 781 56 781 q 38 794 43 783 q 36 815 32 804 q 52 889 46 850 q 64 979 58 928 q 74 1058 69 1031 q 89 1079 76 1072 q 115 1094 97 1094 z "},"[":{"ha":471,"x_min":0,"x_max":485,"o":"m 76 1006 q 58 314 76 567 q 56 60 53 236 q 53 -174 60 -92 q 415 -158 154 -172 q 418 -37 415 -74 q 366 -33 394 -33 q 297 -33 338 -32 q 238 -35 257 -35 q 221 -28 228 -35 q 213 -14 214 -22 q 207 4 207 -6 q 221 818 221 281 q 217 828 218 822 q 226 851 214 843 q 246 861 233 861 q 256 860 251 861 q 425 864 336 871 q 424 1003 422 985 q 76 1006 239 1031 m 58 1054 q 431 1053 231 1082 q 457 1065 439 1068 q 473 1056 467 1064 q 478 1036 479 1047 q 473 983 474 1010 q 474 913 472 956 q 475 856 475 871 q 485 833 486 847 q 475 817 483 824 q 457 811 467 810 q 271 811 360 822 q 257 15 271 289 q 349 18 293 18 q 444 7 406 18 q 453 3 449 6 q 471 -24 474 -3 q 465 -164 465 -65 l 465 -167 q 471 -181 471 -172 q 464 -199 471 -190 q 447 -207 457 -207 q 28 -224 129 -224 q 15 -221 21 -224 q 0 -194 -1 -212 q 6 58 8 -119 q 8 317 3 238 q 26 1014 26 574 q 39 1035 26 1028 q 58 1054 42 1051 z "},"\\":{"ha":618,"x_min":-137,"x_max":632,"o":"m -85 926 q 33 642 -56 810 l 83 551 l 144 436 q 188 344 168 390 q 299 114 222 263 q 343 15 308 96 q 406 -103 378 -67 q 449 -81 421 -94 q 493 -58 476 -67 q 531 -35 510 -49 q 569 -8 553 -21 l 235 672 l 186 774 l 131 890 q 78 985 106 942 q 44 976 74 983 q 6 967 15 969 q -25 957 -4 964 q -59 943 -46 950 q -83 928 -72 936 l -85 926 m -114 967 q -66 994 -94 982 q -17 1012 -37 1006 q 39 1026 4 1018 q 83 1038 74 1035 q 102 1036 93 1040 q 114 1022 111 1032 q 172 922 144 976 q 231 797 200 867 q 279 694 260 735 l 613 15 q 625 8 619 14 q 632 -9 632 1 q 624 -26 632 -19 q 576 -65 604 -46 q 526 -94 547 -83 l 472 -125 q 424 -151 438 -143 q 406 -154 415 -156 q 376 -146 389 -161 q 329 -74 350 -115 q 287 18 308 -32 q 254 92 265 68 q 140 325 175 246 q 99 415 122 369 l 39 528 l -11 618 q -137 932 -108 803 q -134 950 -139 942 q -119 961 -129 958 q -114 967 -117 965 z "},"]":{"ha":414,"x_min":-65,"x_max":428,"o":"m 378 -249 q 367 443 360 90 q 358 697 368 521 q 351 931 349 864 q -10 900 172 919 q -7 779 -6 817 q 50 776 33 776 q 110 780 67 776 q 172 785 153 783 q 199 765 193 786 q 206 746 206 757 q 201 637 203 692 q 201 514 200 582 q 203 404 203 446 q 208 278 204 363 q 213 169 211 194 l 219 44 q 225 -67 225 -54 q 231 -76 229 -71 q 221 -101 233 -92 q 203 -111 214 -111 q 193 -110 199 -111 q 25 -121 133 -121 q 31 -261 31 -228 q 206 -266 104 -269 q 378 -249 307 -262 m 397 -296 q 214 -315 322 -311 q 25 -311 106 -319 q 0 -325 18 -326 q -17 -316 -10 -324 q -22 -297 -24 -308 q -26 -117 -18 -257 q -36 -96 -36 -108 q -28 -78 -36 -86 q -11 -71 -21 -71 q 175 -62 124 -71 q 169 33 174 -44 l 164 136 q 160 233 163 163 l 156 338 q 153 434 154 372 q 151 539 151 496 q 152 634 151 582 q 156 733 153 686 q 121 731 147 733 q 81 727 94 728 q 46 726 68 726 q 5 727 24 725 q -31 732 -14 729 q -40 738 -36 733 q -58 764 -60 743 q -60 903 -54 804 l -60 907 q -65 919 -64 913 q -60 938 -67 929 q -43 947 -53 946 q 374 982 168 971 q 394 974 386 982 q 403 953 403 965 q 408 700 399 871 q 417 443 418 522 q 428 -254 411 88 q 415 -276 429 -269 q 397 -296 413 -292 z "},"^":{"ha":760,"x_min":-79,"x_max":772,"o":"m 556 326 q 639 371 581 338 q 710 408 682 397 q 617 614 688 483 q 533 768 546 742 q 408 1019 440 963 l 268 1019 l 268 1018 q 222 944 242 985 q 178 848 201 903 q 140 763 156 793 q 94 669 126 732 l 42 569 q 3 478 24 532 q -28 378 -18 424 q 69 340 6 363 l 158 310 q 186 363 161 317 l 217 419 l 242 471 q 271 529 263 510 l 292 581 q 315 641 306 614 q 332 697 324 668 q 342 712 333 707 q 363 714 351 717 q 379 697 375 711 q 388 686 385 693 q 556 326 435 554 m 757 374 q 664 328 722 363 q 565 275 596 289 q 546 275 556 272 q 519 289 528 272 q 360 618 407 501 q 336 558 350 590 l 314 503 q 285 444 303 479 l 258 392 l 228 333 q 200 282 206 294 q 199 267 201 274 q 185 253 194 257 q 165 253 175 250 q 53 293 140 264 q -62 339 -19 318 q -76 363 -76 346 q -79 379 -81 369 q -46 488 -68 429 q -5 587 -24 547 q 47 692 14 626 l 96 785 q 131 865 108 810 q 176 963 154 919 q 224 1043 197 1007 l 224 1044 q 231 1062 224 1054 q 249 1069 239 1069 l 411 1069 q 429 1063 421 1069 q 449 1050 442 1061 q 578 790 483 990 q 659 639 583 779 q 758 421 735 499 q 772 406 768 417 q 771 386 775 396 q 757 374 767 376 z "},"_":{"ha":1017,"x_min":-90,"x_max":1031,"o":"m -90 -236 l -65 -69 l 26 -83 l 117 -83 l 214 -90 l 297 -93 l 388 -97 l 471 -97 l 557 -97 l 661 -99 l 746 -99 l 831 -99 l 939 -93 l 1031 -93 l 1031 -262 l 944 -262 l 836 -268 l 746 -268 l 661 -268 l 557 -267 l 471 -267 l 385 -267 l 292 -262 l 206 -260 l 111 -253 l 13 -253 l -90 -236 z "},"`":{"ha":297,"x_min":-81,"x_max":311,"o":"m 106 994 q -22 871 26 932 q 42 797 8 844 q 100 717 94 722 q 178 765 131 732 q 253 818 249 815 q 106 994 214 872 m 128 1044 q 132 1042 129 1043 q 165 1003 136 1036 l 206 957 l 239 918 q 276 869 261 892 l 307 826 q 310 808 313 818 q 300 792 308 797 l 299 792 q 290 783 296 786 q 207 725 271 771 q 115 668 153 686 q 97 667 106 664 q 69 674 81 661 q 1 768 57 689 q -71 846 -37 822 q -81 867 -81 854 q -76 883 -81 876 q 93 1049 -17 964 q 112 1054 101 1056 q 128 1044 122 1053 z "},"a":{"ha":818,"x_min":-54,"x_max":832,"o":"m 572 890 q 561 808 571 879 q 550 790 560 797 q 529 785 540 783 q 513 793 519 786 q 242 810 383 865 q 117 746 154 775 q 29 621 58 697 q 1 454 0 544 q 33 287 3 367 q 114 154 63 207 q 271 68 171 97 q 503 54 382 36 q 523 49 514 56 q 535 32 532 43 q 543 17 540 25 q 549 -19 549 -17 q 750 -22 710 -18 q 759 90 757 28 q 760 203 761 153 q 760 319 758 254 q 771 872 771 842 q 572 890 711 883 m 350 544 q 409 601 372 582 q 483 618 446 621 q 556 581 532 615 q 557 483 579 542 q 528 441 547 461 q 494 413 508 421 l 457 389 q 404 353 421 367 q 379 319 386 339 q 366 306 375 310 q 347 304 357 301 q 335 314 339 307 q 317 319 325 313 q 229 371 311 324 q 140 446 163 408 q 131 546 108 501 q 204 593 151 583 q 282 588 242 600 q 350 544 322 575 m 558 946 q 810 922 740 938 q 828 910 822 919 q 832 889 833 900 q 826 878 831 882 q 815 319 826 831 q 815 203 814 256 q 815 83 817 150 q 804 -36 813 17 q 792 -56 801 -49 q 781 -74 790 -67 q 760 -79 771 -81 q 691 -74 726 -75 q 603 -74 656 -72 q 531 -75 550 -75 l 526 -75 l 524 -75 q 503 -67 513 -75 q 494 -49 494 -60 q 490 -4 493 -21 q 254 15 369 -18 q 75 115 142 49 q -19 267 14 176 q -54 454 -53 357 q -22 643 -57 554 q 81 788 11 732 q 222 863 125 824 q 513 856 374 921 q 517 901 517 883 q 531 925 517 917 q 558 946 536 947 m 326 490 q 278 535 311 521 q 213 544 246 550 q 175 522 185 539 q 185 471 165 503 q 253 414 199 444 q 344 361 339 365 q 432 432 365 393 q 484 467 467 453 q 510 503 501 482 q 513 553 524 536 q 481 568 504 567 q 424 551 453 569 q 383 500 396 533 q 367 485 379 488 q 360 479 364 481 q 340 478 350 475 q 326 490 331 482 z "},"b":{"ha":942,"x_min":49,"x_max":940,"o":"m 107 1028 q 104 475 113 876 q 113 -81 97 113 q 299 -85 200 -81 q 301 -37 299 -71 q 312 -19 303 -26 q 332 -12 321 -11 q 349 -21 342 -14 l 354 -21 q 476 -39 424 -35 q 590 -35 528 -43 q 701 -4 651 -28 q 888 197 847 65 q 865 479 925 322 q 842 542 850 519 q 813 590 832 563 q 772 631 794 617 q 636 676 714 667 q 486 672 558 685 q 339 632 414 660 q 317 633 328 628 q 303 649 307 638 q 301 664 300 656 l 301 669 q 304 1019 301 944 q 107 1028 200 1028 m 540 415 q 592 461 560 442 q 656 483 625 481 q 719 458 699 488 q 724 374 739 428 q 708 335 718 356 q 688 301 697 315 q 660 265 678 286 q 633 236 642 244 l 603 206 l 579 182 q 561 175 571 175 q 543 182 551 175 q 536 199 536 189 q 524 207 529 201 q 457 261 521 210 q 393 336 407 301 q 386 419 372 389 q 443 453 400 453 q 540 415 490 453 m 321 -142 q 86 -136 194 -136 q 67 -128 75 -136 q 58 -108 58 -119 l 58 -104 q 49 476 42 100 q 50 1051 57 892 q 58 1072 50 1063 q 76 1081 65 1081 l 82 1081 q 94 1083 88 1083 q 336 1072 207 1083 q 355 1063 347 1071 q 361 1043 363 1054 l 361 1039 q 357 697 357 946 q 803 678 631 785 q 844 643 825 664 q 878 592 863 622 q 899 547 893 561 q 918 499 906 532 q 940 182 983 324 q 726 -54 893 25 q 600 -90 668 -82 q 478 -94 532 -99 q 354 -78 425 -90 l 354 -99 q 350 -114 354 -107 l 350 -115 q 341 -134 350 -126 q 321 -142 332 -142 m 522 364 q 483 391 507 379 q 443 403 460 403 q 432 399 433 403 q 440 356 426 388 q 489 300 449 333 q 560 240 554 247 l 563 238 q 611 286 594 268 q 648 333 628 304 q 676 388 668 363 q 678 431 685 419 q 660 433 674 435 q 615 417 639 432 q 578 382 590 401 q 563 372 572 374 q 558 364 561 368 q 540 357 550 357 q 522 364 531 357 z "},"c":{"ha":818,"x_min":10,"x_max":832,"o":"m 781 267 q 572 329 644 324 q 435 183 517 189 q 363 208 394 182 q 310 279 331 236 q 286 457 265 369 q 333 538 299 506 q 422 579 367 571 q 603 525 515 592 q 642 558 619 542 l 678 586 q 720 616 690 596 q 757 642 750 636 q 740 663 749 653 q 717 688 731 674 q 697 707 703 701 l 669 731 q 647 750 650 747 q 489 833 571 817 q 338 824 407 850 q 207 739 268 799 q 74 516 115 649 q 63 261 32 383 q 213 42 100 118 q 483 -35 326 -35 l 494 -35 q 618 -18 583 -35 q 720 90 679 11 q 776 258 761 169 q 781 267 778 263 m 563 386 q 811 314 649 382 q 826 299 821 310 q 825 278 831 289 q 824 274 825 275 q 832 247 835 263 q 810 162 824 206 q 774 72 796 118 q 717 -11 751 26 q 643 -68 683 -49 q 622 -75 633 -72 l 603 -82 q 581 -86 594 -85 l 561 -89 q 540 -90 554 -89 q 519 -90 525 -90 l 500 -90 l 483 -90 q 181 -3 310 -90 q 10 247 53 83 q 19 532 -26 386 q 168 778 67 679 q 320 876 239 846 q 499 888 401 907 q 683 792 596 869 q 704 774 689 788 q 726 754 719 761 q 747 735 733 747 q 769 713 761 722 q 788 692 778 704 q 807 668 799 679 q 825 657 818 665 q 819 618 842 635 q 756 573 797 601 q 684 522 714 544 q 631 474 654 499 q 604 465 619 463 q 581 472 592 464 q 431 524 506 533 q 340 443 357 514 q 360 303 324 375 q 394 254 375 271 q 431 239 414 238 q 476 267 451 240 q 524 360 500 294 q 539 375 528 371 q 563 386 549 386 z "},"d":{"ha":843,"x_min":28,"x_max":856,"o":"m 354 292 q 382 317 360 296 l 413 347 q 433 372 421 356 q 453 403 446 389 q 457 433 463 424 q 442 440 454 440 q 403 432 424 443 q 371 400 382 421 q 356 389 365 392 q 336 390 346 386 q 325 407 326 396 q 254 419 279 439 q 245 400 246 413 q 257 368 244 388 q 354 292 275 344 m 347 451 q 446 490 390 496 q 501 457 486 486 q 497 381 518 425 q 474 343 489 364 q 446 311 458 322 l 411 278 q 386 251 390 257 q 363 244 376 242 q 335 244 349 235 q 308 263 332 246 l 272 286 q 245 309 263 294 q 218 338 228 324 q 196 403 194 368 q 222 458 197 438 q 347 451 274 500 m 543 676 q 342 685 435 714 q 181 587 249 657 q 81 422 114 517 q 83 154 29 274 q 321 -12 144 22 q 546 -6 461 -39 q 572 -10 560 0 q 592 -31 588 -14 q 600 -74 599 -64 q 690 -69 633 -71 q 786 -64 758 -67 q 782 56 786 -32 q 779 186 778 142 q 790 390 782 247 q 800 613 797 533 q 800 809 803 692 q 785 1022 797 926 q 596 1026 644 1031 q 588 707 596 799 q 575 688 586 694 q 543 676 564 669 m 839 1033 q 856 815 853 935 q 856 613 858 694 q 845 388 853 532 q 835 183 838 243 q 838 58 833 146 q 842 -69 842 -35 q 831 -92 842 -83 q 823 -109 831 -101 q 806 -118 815 -117 q 692 -124 779 -121 q 582 -132 621 -126 q 562 -126 571 -133 q 551 -107 553 -119 l 551 -106 l 551 -104 q 542 -67 543 -74 q 310 -68 449 -94 q 33 131 106 -29 q 28 440 -31 271 q 102 578 54 515 q 216 688 150 642 q 363 747 282 733 q 535 738 443 761 q 540 1050 540 810 q 550 1071 540 1063 q 568 1081 557 1079 q 631 1083 596 1083 q 687 1083 665 1083 q 753 1079 708 1082 q 808 1076 797 1076 q 827 1067 819 1076 q 835 1047 835 1058 l 835 1044 q 839 1033 838 1039 z "},"e":{"ha":800,"x_min":42,"x_max":813,"o":"m 324 315 q 351 206 326 238 q 410 188 371 181 q 610 314 492 201 q 615 318 613 317 q 574 317 607 318 q 524 315 540 315 q 324 315 403 311 m 438 632 q 522 674 467 671 q 575 658 556 675 q 594 596 600 636 q 528 506 586 547 l 506 492 l 486 478 q 470 465 479 472 q 456 450 461 457 q 439 440 449 442 q 421 446 429 439 q 411 468 410 454 q 403 472 407 469 q 325 556 350 511 q 313 635 300 601 q 340 663 321 656 q 381 664 358 671 q 438 632 407 657 m 301 372 q 521 371 388 367 q 728 376 701 376 q 721 638 751 551 q 713 656 718 647 q 697 675 707 665 l 682 692 q 661 710 676 697 q 642 728 646 724 q 488 803 579 785 q 310 792 397 821 q 178 696 224 764 q 96 443 118 610 q 107 181 75 279 q 264 -15 149 51 q 508 -49 379 -82 q 644 40 571 -32 q 751 157 671 65 l 633 261 q 419 132 511 149 q 308 171 349 121 q 268 332 268 221 q 272 347 268 340 q 282 365 274 358 q 301 372 290 372 m 667 306 l 804 183 q 813 154 818 171 q 806 135 813 143 l 771 94 l 725 42 l 683 0 q 522 -101 599 -82 q 237 -64 371 -142 q 54 164 103 14 q 42 451 18 275 q 131 726 65 629 q 292 845 189 811 q 500 857 394 879 q 678 769 606 835 q 696 753 681 767 q 719 733 711 740 q 739 711 726 725 q 760 684 751 697 q 774 657 768 671 q 782 356 808 556 q 769 336 781 343 q 744 321 763 321 q 642 319 701 321 q 649 314 646 317 l 650 313 q 667 306 660 313 m 433 568 q 368 615 394 608 q 360 617 361 618 q 369 581 354 606 q 433 511 389 544 q 440 504 438 508 q 459 519 449 511 q 482 534 469 526 q 499 546 494 542 q 544 604 540 575 q 543 619 547 617 q 525 624 538 625 q 494 615 508 622 q 475 597 479 607 q 474 596 475 596 q 468 567 482 579 q 451 560 461 560 q 433 568 440 560 z "},"f":{"ha":796,"x_min":-6,"x_max":804,"o":"m 472 746 q 454 725 465 740 q 399 569 418 676 q 430 567 408 568 q 464 564 451 565 q 481 555 474 563 q 486 536 488 547 q 485 532 486 533 q 486 526 486 529 q 496 303 496 428 q 488 285 496 293 q 471 278 481 278 l 468 278 q 456 275 463 275 q 376 274 449 275 q 390 121 378 246 q 392 -58 400 8 q 383 -74 390 -68 q 363 -92 379 -90 q 240 -96 336 -94 q 126 -106 168 -96 q 108 -103 117 -108 q 97 -87 99 -99 q 96 -78 96 -83 q 92 -67 93 -74 q 88 110 85 -1 q 89 250 89 217 q 83 249 83 249 q 81 247 82 249 l 61 236 q 42 235 51 232 q 26 246 32 238 q 24 264 22 254 q 13 388 17 306 q 4 500 10 464 q -6 515 -4 506 q -1 535 -7 526 q 15 544 6 543 l 50 547 q 79 551 69 550 q 88 582 81 565 q 100 618 99 613 q 113 667 103 628 q 128 721 124 707 l 143 771 q 161 822 154 807 l 181 872 q 206 922 194 904 l 236 964 q 272 1008 254 990 q 314 1044 290 1025 q 364 1078 338 1063 q 484 1114 418 1107 q 608 1100 550 1121 q 804 858 772 1040 q 778 543 826 726 q 761 526 775 529 q 742 521 753 519 q 678 527 711 526 q 598 526 646 528 q 531 525 550 525 q 513 533 519 525 q 506 544 507 538 q 497 614 503 556 q 486 703 493 672 q 478 738 482 725 q 472 746 475 743 m 347 565 q 413 756 369 694 q 451 792 433 782 q 500 790 478 806 q 524 756 514 779 q 536 713 531 739 q 547 618 542 679 q 551 575 550 582 q 735 572 694 578 q 754 849 774 735 q 592 1053 728 1003 q 489 1064 544 1069 q 389 1033 433 1058 q 324 989 353 1014 q 272 930 294 964 q 235 868 250 896 q 204 794 219 840 q 181 722 189 749 q 158 642 172 694 q 147 604 151 617 q 135 565 146 599 q 126 532 128 547 q 108 507 128 511 q 54 499 89 501 q 63 389 58 468 q 69 297 65 328 q 96 301 71 297 q 111 308 103 308 q 129 301 121 308 q 138 285 138 294 q 138 108 140 238 q 140 -53 135 1 q 239 -46 179 -46 q 343 -43 326 -44 q 340 115 350 14 q 326 281 328 247 q 319 299 319 289 q 327 316 319 308 q 344 324 335 324 q 397 324 363 324 q 446 325 431 325 q 436 515 444 429 q 374 521 386 519 q 358 530 364 522 q 351 547 351 538 q 347 565 346 556 z "},"g":{"ha":824,"x_min":8,"x_max":836,"o":"m 429 724 q 517 792 468 774 q 585 782 561 810 q 594 696 607 757 q 522 600 585 651 q 500 582 513 593 l 478 564 l 460 550 q 444 535 450 542 q 428 525 439 526 q 410 531 418 524 q 400 546 401 536 l 397 549 l 350 585 q 300 632 315 610 q 279 710 272 672 q 324 760 286 747 q 378 758 349 768 q 429 724 407 749 m 47 286 q 153 293 82 286 q 243 301 213 300 q 156 349 185 324 q 72 572 72 422 q 191 851 72 744 q 482 954 310 958 q 538 951 519 953 q 585 940 556 950 q 638 910 615 931 l 640 910 q 775 900 721 910 q 792 889 786 897 q 796 879 794 885 q 808 872 803 878 q 815 860 814 867 q 822 847 821 854 q 836 437 846 693 q 788 31 826 181 q 741 -73 776 -17 q 667 -160 706 -129 q 406 -232 556 -243 q 151 -133 257 -221 q 40 37 82 -74 q 8 238 -3 147 q 22 257 10 251 l 22 261 q 30 278 22 271 q 47 286 38 286 m 307 271 q 314 231 308 258 l 321 188 q 343 118 329 139 q 397 89 356 97 q 451 96 429 82 q 485 142 471 110 q 508 263 503 186 q 301 281 394 250 q 307 271 306 276 m 608 868 q 560 897 586 892 q 482 904 533 903 q 225 815 328 908 q 122 572 122 722 q 189 388 122 446 q 318 328 218 361 q 524 315 408 297 q 547 307 538 317 q 560 283 561 299 q 531 122 554 181 q 479 54 511 76 q 386 39 440 28 q 301 90 325 53 q 271 178 282 121 q 264 217 268 192 q 260 251 261 243 q 157 244 225 251 q 58 236 88 238 l 58 232 q 86 55 49 154 q 185 -94 124 -44 q 409 -182 276 -172 q 636 -121 542 -192 q 698 -47 667 -96 q 740 42 729 3 q 786 440 776 189 q 772 839 796 690 q 767 850 768 844 q 640 860 717 860 q 631 861 635 860 q 608 868 618 860 m 408 667 q 373 706 393 696 q 339 713 353 717 q 328 700 329 708 q 342 660 325 685 q 381 625 351 646 q 428 589 419 594 l 447 606 l 472 625 l 490 639 q 544 707 539 678 q 547 749 551 738 q 535 746 543 749 q 493 718 515 738 q 463 682 471 699 q 456 675 460 678 q 442 656 454 661 q 424 654 433 651 q 408 667 414 657 z "},"h":{"ha":864,"x_min":40,"x_max":878,"o":"m 354 1017 q 360 1000 360 1008 q 365 790 367 871 q 639 817 499 857 q 854 556 808 768 q 867 465 863 515 q 872 379 871 414 q 873 289 872 344 q 874 214 874 233 q 878 -67 878 26 q 872 -83 878 -76 q 849 -103 867 -101 q 706 -108 796 -107 q 568 -114 611 -110 q 547 -108 556 -115 q 538 -89 539 -100 q 554 -61 536 -68 q 558 51 554 -29 q 561 175 561 132 q 547 403 564 339 q 486 472 529 468 q 408 417 444 476 q 378 196 369 351 l 382 133 q 386 64 385 90 q 388 3 388 38 q 385 -57 388 -31 q 378 -71 383 -64 q 381 -82 381 -76 q 372 -101 381 -93 q 353 -110 364 -110 q 82 -121 165 -110 q 60 -115 69 -122 q 50 -97 51 -108 q 51 -85 50 -90 q 50 -81 50 -83 q 41 112 43 7 q 42 292 39 217 l 47 489 q 51 669 50 607 q 50 833 53 728 q 47 982 47 940 q 54 1000 47 993 l 54 1001 q 63 1021 54 1013 q 82 1029 71 1029 q 204 1033 93 1029 q 332 1031 281 1035 q 354 1017 346 1029 m 308 746 q 306 976 313 836 q 207 978 265 979 q 163 975 201 976 q 103 974 124 974 q 106 831 103 936 q 107 669 108 728 q 103 489 106 596 l 97 297 q 96 124 94 225 q 104 -62 97 22 q 329 -54 182 -54 l 329 -49 l 333 24 q 328 105 333 38 q 322 193 324 172 q 361 444 314 364 q 420 508 386 486 q 492 528 454 531 q 559 494 531 524 q 600 417 588 465 q 617 174 621 346 q 613 53 617 131 q 610 -56 610 -25 q 706 -53 640 -54 q 822 -49 788 -51 q 818 214 822 38 q 817 290 818 235 q 816 378 817 344 q 811 458 815 411 q 799 543 807 506 q 622 764 761 724 q 360 724 490 801 q 349 719 354 721 q 335 717 342 717 q 316 726 324 717 q 308 746 308 735 z "},"i":{"ha":360,"x_min":31,"x_max":372,"o":"m 308 743 q 108 739 190 743 l 108 -29 l 307 -29 q 315 490 324 160 q 315 572 314 521 q 316 664 317 624 q 308 742 315 704 l 308 743 m 306 1017 q 252 1015 297 1017 q 176 1015 207 1014 q 115 1024 144 1017 q 117 964 115 1003 q 119 907 119 925 q 303 911 256 907 q 306 1017 303 958 m 364 750 q 372 667 371 713 q 372 569 372 622 q 371 490 371 517 q 360 -64 379 138 q 349 -83 358 -75 q 329 -89 340 -90 q 317 -85 322 -87 l 89 -85 q 81 -86 85 -86 q 72 -85 76 -86 l 58 -85 q 39 -76 47 -85 q 31 -57 31 -68 q 53 -29 31 -35 l 53 756 q 72 782 53 776 q 94 794 81 794 q 333 799 188 799 q 353 790 344 799 q 361 771 361 782 q 360 761 361 765 q 364 750 363 757 m 114 1081 q 159 1072 133 1075 q 204 1070 185 1069 q 256 1072 224 1071 q 307 1072 289 1072 q 325 1065 318 1072 q 336 1067 331 1067 q 355 1058 347 1067 q 363 1038 363 1049 q 358 907 358 964 q 367 892 365 901 q 361 871 368 881 q 343 860 354 861 l 338 860 q 331 858 335 858 q 103 851 278 851 q 78 865 86 851 q 64 890 64 874 q 62 963 64 914 q 60 1035 60 1011 q 79 1061 60 1054 l 79 1063 q 92 1079 82 1074 q 114 1081 103 1085 z "},"j":{"ha":624,"x_min":-26,"x_max":639,"o":"m 568 963 q 571 1004 568 976 q 575 1056 575 1038 q 381 1054 417 1057 q 386 954 386 1011 q 568 963 504 954 m 388 833 q 389 768 389 808 l 389 765 l 389 189 q 382 92 389 158 l 375 33 q 369 11 372 19 l 364 0 q 350 -14 358 -10 q 274 0 306 -36 q 240 65 253 21 q 224 161 231 101 q 222 165 222 163 q 210 224 213 200 q 167 224 199 226 q 122 219 136 221 l 76 211 q 29 203 43 206 q 58 26 33 125 q 132 -144 90 -101 q 231 -205 171 -186 q 354 -218 290 -224 q 470 -181 418 -211 q 547 -100 522 -150 q 575 61 565 -64 q 583 338 583 168 q 580 626 583 451 q 576 826 576 800 q 388 833 465 846 m 331 839 q 326 849 328 843 q 329 869 324 860 q 346 882 335 879 q 603 878 450 908 q 619 867 613 875 q 625 847 626 858 q 632 829 632 840 q 635 627 632 803 q 639 338 639 451 q 631 58 639 171 q 597 -125 621 -81 q 500 -228 564 -190 q 360 -274 436 -265 q 212 -258 283 -281 q 90 -183 140 -235 q 4 13 40 -129 q -26 222 -26 135 q -4 250 -26 246 q 11 257 3 256 q 61 265 25 258 q 116 274 97 271 q 173 279 135 276 q 229 278 211 282 q 250 264 243 275 q 264 242 263 257 q 266 228 265 235 q 267 217 267 221 l 267 213 q 275 197 274 206 q 278 169 275 193 q 285 122 281 144 q 294 81 289 100 q 314 38 303 49 q 318 35 317 35 q 319 44 318 39 q 326 97 324 64 q 333 189 333 161 l 333 765 q 331 839 333 811 m 621 1060 q 617 999 621 1039 q 613 961 614 972 q 621 946 619 956 q 617 930 622 938 q 601 921 611 922 l 592 919 q 375 910 519 910 q 364 907 369 907 q 348 913 354 907 q 342 929 342 919 q 335 1057 342 1007 q 328 1071 329 1063 q 332 1088 326 1081 q 347 1096 338 1094 q 425 1103 386 1101 q 524 1101 467 1103 q 600 1100 582 1100 q 616 1094 610 1100 q 622 1078 622 1088 q 621 1068 622 1072 l 621 1060 z "},"k":{"ha":856,"x_min":43,"x_max":864,"o":"m 306 544 q 304 763 300 568 q 308 981 308 957 q 207 988 285 983 q 103 996 143 990 q 108 815 110 924 q 106 624 106 651 q 106 -103 117 128 q 156 -108 128 -107 q 201 -108 183 -108 q 255 -107 218 -108 q 304 -104 292 -106 q 301 -3 304 -72 q 297 100 297 65 q 307 122 297 114 q 308 124 308 122 q 328 132 317 132 q 349 125 340 132 q 693 -135 471 8 q 801 21 725 -99 l 640 150 q 464 290 528 243 q 453 311 454 299 q 456 349 438 331 q 696 525 529 417 q 572 674 631 621 q 360 522 443 601 q 326 519 344 508 q 306 544 307 524 m 93 1053 q 210 1043 136 1046 q 332 1035 300 1038 q 350 1025 343 1033 q 357 1006 357 1017 q 364 988 364 999 q 360 805 364 939 q 360 597 357 671 q 556 728 440 664 q 588 725 574 738 q 606 718 599 725 q 763 526 681 653 q 766 506 768 517 q 754 488 764 494 q 735 483 746 482 q 513 324 576 382 q 681 188 571 279 q 847 56 792 97 q 854 53 851 54 q 864 43 860 49 q 864 8 876 25 q 853 0 860 3 q 829 -39 850 -6 l 800 -83 l 775 -119 q 743 -162 758 -144 q 711 -197 728 -181 q 692 -206 703 -206 q 672 -197 681 -206 q 664 -182 665 -192 q 354 44 468 -56 q 360 -110 360 -104 l 360 -111 q 369 -132 369 -119 q 361 -151 369 -143 q 342 -160 353 -160 q 260 -162 324 -160 q 151 -163 197 -165 q 65 -153 104 -161 q 47 -140 53 -150 q 43 -119 42 -131 q 50 -107 46 -112 l 50 -104 q 50 624 61 126 q 53 817 50 651 q 46 1004 54 931 q 63 1032 43 1024 q 74 1048 65 1042 q 93 1053 82 1054 z "},"l":{"ha":326,"x_min":21,"x_max":340,"o":"m 272 994 q 190 1000 231 999 q 92 994 122 1003 q 85 499 92 829 q 79 4 79 169 q 169 4 115 3 q 215 6 179 4 q 271 7 251 7 q 268 193 268 92 q 269 367 268 294 q 274 558 271 440 q 279 736 278 676 q 276 869 281 786 q 272 994 272 958 m 65 1044 q 192 1056 101 1058 q 317 1046 254 1054 q 335 1035 328 1044 q 340 1014 342 1026 q 328 994 339 1001 q 332 872 328 960 q 335 736 336 789 q 330 551 333 675 q 325 354 326 428 q 324 176 324 281 q 328 -18 324 71 q 320 -38 328 -29 q 301 -47 313 -47 l 299 -47 q 290 -49 294 -49 q 252 -49 272 -49 q 208 -51 232 -50 q 169 -51 183 -51 q 46 -49 96 -53 q 27 -38 35 -47 q 21 -18 19 -29 q 24 -8 21 -14 q 30 502 24 161 q 36 1014 36 843 q 43 1033 36 1025 q 60 1042 50 1040 l 65 1044 z "},"m":{"ha":1124,"x_min":-14,"x_max":1138,"o":"m 599 719 q 576 731 585 719 q 447 815 514 813 q 299 751 385 818 q 278 746 290 744 q 260 757 267 747 q 244 781 246 765 l 244 789 q 75 785 119 790 q 74 714 72 760 q 75 631 76 656 q 67 456 74 579 q 58 243 61 333 q 56 68 56 153 q 264 61 186 61 q 257 210 269 104 q 260 389 243 325 q 288 451 265 414 q 338 511 311 488 q 408 543 375 546 q 467 476 453 538 q 480 373 479 428 q 476 244 481 318 q 469 146 471 169 q 660 140 593 146 q 660 221 661 168 q 658 338 658 308 q 747 553 665 489 q 779 571 763 564 q 833 569 811 583 q 861 526 851 560 q 871 468 867 504 q 879 307 878 407 q 874 46 881 190 q 971 38 907 44 q 1060 31 1031 32 q 1071 90 1067 60 q 1076 158 1075 121 q 1078 220 1078 196 q 1078 290 1079 244 q 1078 354 1078 336 q 1082 467 1078 367 q 1082 574 1085 533 q 1006 750 1072 689 q 858 813 936 813 q 737 792 789 813 q 633 722 685 771 q 599 719 617 708 m 47 838 q 104 842 72 840 q 156 844 136 844 l 214 844 l 264 844 q 282 838 274 844 q 297 819 294 833 q 450 871 379 874 q 610 778 536 867 q 724 847 665 825 q 858 868 783 868 q 1042 792 958 868 q 1136 578 1126 715 q 1138 464 1140 535 q 1133 354 1133 357 q 1134 292 1133 339 q 1134 219 1135 244 q 1132 153 1133 193 q 1126 81 1131 114 q 1113 15 1121 47 l 1113 13 q 1114 3 1114 8 q 1106 -17 1114 -8 q 1086 -25 1097 -25 q 965 -17 1044 -25 q 850 -10 888 -10 q 831 -1 839 -10 q 822 18 822 7 q 818 35 818 26 q 824 306 825 185 q 817 461 822 404 q 807 511 813 493 q 804 521 806 517 q 800 519 803 519 q 781 508 790 515 q 714 335 719 461 q 715 222 714 307 q 713 114 717 150 q 692 92 710 96 q 669 83 682 82 q 440 90 601 90 q 421 99 429 90 q 413 118 413 107 q 414 128 413 122 l 414 131 q 419 240 414 171 q 425 363 425 310 q 414 463 425 417 q 401 488 408 483 q 375 471 393 488 q 335 422 354 451 q 313 375 317 392 q 311 217 300 321 q 318 40 326 94 q 314 29 317 35 q 305 13 313 19 q 286 6 297 6 q 13 14 197 6 q -6 23 1 14 q -14 43 -14 32 q 0 65 -12 58 q 3 242 0 151 q 12 457 6 332 q 19 633 18 582 q 18 713 21 656 q 19 797 17 765 q 24 810 19 803 q 31 828 24 819 q 47 838 38 836 z "},"n":{"ha":819,"x_min":43,"x_max":822,"o":"m 340 740 q 332 738 336 738 q 310 740 321 735 q 299 757 300 746 l 296 765 l 250 765 q 205 764 226 765 q 162 759 183 763 q 122 749 140 756 q 113 571 119 690 q 104 389 107 451 q 99 207 101 326 q 101 29 97 88 q 204 32 129 31 q 313 38 272 32 q 309 90 311 51 q 306 149 307 128 q 304 331 300 257 q 346 494 313 438 q 481 561 392 574 q 531 522 513 556 q 550 458 543 499 q 553 288 560 396 q 521 24 546 181 q 699 19 615 26 q 714 99 700 53 q 722 122 717 107 q 729 142 728 136 q 740 183 738 167 q 768 588 797 442 q 693 733 749 683 q 511 788 628 790 q 353 746 408 785 q 340 740 347 742 m 90 796 q 119 807 104 803 q 152 814 135 811 q 181 818 169 817 q 214 820 193 819 q 243 821 235 821 l 275 821 l 301 821 q 310 819 306 821 l 311 819 q 343 806 333 825 q 511 843 406 840 q 729 775 649 846 q 822 599 800 713 q 796 172 854 440 q 782 125 790 151 q 775 104 781 119 q 767 81 769 89 q 754 3 751 33 l 754 0 q 757 -15 758 -8 q 747 -35 756 -28 q 726 -40 738 -42 q 500 -33 622 -28 q 474 -17 481 -35 q 463 10 461 -6 q 497 292 490 194 q 494 450 504 394 q 482 496 490 481 q 472 506 476 506 q 394 467 421 514 q 360 326 367 421 q 361 151 356 257 l 368 19 q 347 -7 368 -3 q 331 -17 340 -15 q 204 -24 283 -24 q 85 -28 117 -25 q 57 -11 64 -29 q 47 8 47 -3 q 44 193 42 68 q 49 383 46 318 q 58 575 51 449 l 67 760 q 75 778 67 769 q 90 796 78 792 z "},"o":{"ha":921,"x_min":21,"x_max":936,"o":"m 313 944 q 326 956 318 951 q 711 925 540 1042 q 836 794 785 875 q 914 618 889 714 q 936 465 933 543 q 920 313 939 388 q 865 174 901 238 q 764 63 828 111 q 617 -4 700 15 q 383 -10 522 -28 q 161 63 232 11 q 23 277 57 139 q 21 564 -11 415 q 126 802 50 697 q 313 944 203 907 m 454 585 q 520 660 478 635 q 606 681 563 685 q 683 631 658 674 q 692 521 711 586 q 599 413 679 478 q 575 393 593 408 q 551 373 557 378 q 532 357 544 368 q 513 338 519 346 q 500 324 506 331 q 483 313 493 315 q 465 317 474 311 q 456 328 458 321 q 442 336 447 329 q 415 367 438 340 q 390 393 400 383 q 322 436 381 401 q 250 499 267 468 q 240 592 222 550 q 303 643 256 632 q 380 637 339 651 q 454 585 421 622 m 369 901 q 183 785 261 882 q 75 551 104 688 q 76 293 46 415 q 194 107 107 171 q 392 46 253 64 q 603 49 518 29 q 728 108 674 67 q 817 203 783 149 q 867 325 850 258 q 881 463 883 392 q 860 603 879 533 q 791 764 838 692 q 679 879 744 836 q 389 918 551 967 q 369 901 383 904 m 435 528 q 374 585 407 569 q 314 594 340 601 q 286 572 293 589 q 294 524 278 553 q 347 479 304 504 q 424 429 411 442 q 453 399 436 418 q 475 372 474 375 q 567 451 493 392 q 644 535 636 508 q 640 606 657 579 q 600 631 628 628 q 538 613 569 635 q 492 543 507 590 q 476 528 488 532 q 469 521 474 524 q 451 517 461 515 q 435 528 440 519 z "},"p":{"ha":836,"x_min":44,"x_max":838,"o":"m 214 821 q 258 827 217 821 q 306 834 299 833 q 351 840 313 835 q 401 844 389 844 q 447 844 413 843 q 498 843 482 846 q 544 836 514 840 q 594 824 574 832 q 639 806 614 817 q 683 782 663 796 q 835 557 793 710 q 837 352 867 444 q 739 195 807 260 q 576 97 671 131 q 382 71 482 64 q 391 22 385 57 q 400 -31 397 -12 q 407 -85 403 -49 q 407 -139 411 -121 q 388 -162 406 -157 q 369 -176 382 -174 q 117 -206 239 -206 q 97 -197 106 -206 q 89 -178 89 -189 q 85 -167 86 -172 q 58 306 60 8 q 47 772 57 653 q 49 782 47 778 q 44 789 46 786 q 45 810 40 800 q 61 825 50 821 q 81 833 65 826 q 111 844 97 839 q 138 851 125 849 q 185 847 164 856 q 214 821 203 839 m 463 536 q 516 601 483 582 q 581 606 549 621 q 622 551 613 590 q 615 468 632 511 q 521 336 599 424 q 505 328 515 329 q 486 333 494 328 q 469 338 478 332 q 439 357 460 344 l 403 378 q 338 439 356 408 q 324 511 314 481 q 369 553 333 543 q 463 536 415 565 m 172 783 q 163 796 168 793 q 146 796 157 799 q 103 781 133 794 l 103 778 q 114 306 113 657 q 139 -150 115 18 q 353 -122 243 -147 q 349 -63 353 -94 q 338 10 346 -32 q 325 75 329 51 q 326 86 325 81 q 321 107 319 96 q 332 125 322 118 q 353 131 342 132 q 537 143 447 117 q 690 224 626 169 q 781 363 753 278 q 782 543 808 449 q 653 735 744 675 q 564 776 611 763 q 458 790 517 790 q 360 785 399 789 q 249 769 321 781 l 218 765 q 203 767 210 764 q 172 783 181 763 m 450 482 q 416 502 436 496 q 382 504 396 508 q 371 497 374 503 q 382 464 368 486 q 429 421 393 443 q 464 400 439 414 q 494 381 483 389 q 568 485 556 450 q 576 525 578 508 q 569 549 574 542 q 560 560 565 557 q 549 560 556 560 q 528 547 542 561 q 504 507 515 533 q 493 494 500 499 q 486 482 490 488 q 468 475 478 475 q 450 482 458 475 z "},"q":{"ha":763,"x_min":22,"x_max":776,"o":"m 490 129 q 500 110 499 121 q 504 10 503 75 q 510 -102 506 -54 q 529 -190 515 -150 q 721 -172 707 -174 q 688 568 721 44 q 685 703 686 597 q 679 811 683 769 q 503 808 604 808 q 501 806 501 807 q 488 789 497 794 q 467 788 478 783 q 328 810 390 814 q 219 781 265 806 q 142 713 174 756 q 78 553 92 647 q 89 354 64 458 q 144 221 114 257 q 289 150 189 168 q 468 139 350 139 q 490 129 482 139 m 326 556 q 400 604 360 594 q 479 579 456 619 q 466 483 503 540 q 336 361 429 425 q 319 357 328 356 q 286 357 303 343 q 261 378 281 363 q 229 404 240 394 q 175 468 186 442 q 171 550 157 514 q 222 596 185 586 q 326 556 281 613 m 750 -225 q 611 -238 701 -231 q 501 -249 521 -246 q 481 -242 490 -250 q 471 -224 472 -235 q 476 -204 469 -214 q 457 -118 463 -164 q 449 -1 451 -72 q 446 83 447 71 q 279 96 344 83 q 103 185 160 118 q 36 340 63 232 q 22 561 7 451 q 97 746 39 669 q 249 853 157 825 q 465 846 340 879 q 492 864 472 864 q 694 868 611 864 q 713 863 704 868 q 732 840 729 857 q 740 703 739 788 q 743 571 742 590 q 776 -187 776 38 q 774 -200 776 -194 q 750 -225 771 -222 m 304 499 q 269 541 289 529 q 235 549 250 553 q 217 532 222 544 q 222 488 213 519 q 263 442 228 471 q 310 403 267 438 q 424 510 392 461 q 436 553 443 542 q 413 557 432 561 q 357 513 382 549 q 351 507 354 508 q 336 486 350 492 q 318 485 328 482 q 304 499 308 489 z "},"r":{"ha":725,"x_min":22,"x_max":739,"o":"m 88 750 q 99 628 88 735 q 103 521 103 588 q 103 418 101 440 q 122 19 104 369 q 336 39 221 22 q 332 138 339 67 q 318 274 321 250 q 322 408 314 357 q 378 511 336 481 q 458 524 418 540 q 504 490 481 515 q 589 517 525 496 q 682 544 646 536 q 635 665 669 611 q 553 747 601 718 q 314 735 440 817 q 293 731 304 729 q 275 743 282 733 q 272 751 272 747 q 265 763 267 756 l 261 776 q 88 753 165 775 l 88 750 m 39 796 q 267 832 136 832 q 279 829 274 832 q 308 810 301 832 l 313 799 q 582 796 454 874 q 686 689 644 757 q 739 539 728 621 q 732 515 740 525 q 710 493 728 497 q 606 464 671 486 q 499 432 529 439 q 478 435 488 429 q 465 450 468 440 q 438 472 449 468 q 411 467 426 478 q 378 399 386 449 q 374 278 369 353 q 386 143 375 254 q 392 31 394 63 q 369 6 390 10 q 346 -17 365 -14 q 90 -36 207 -36 q 71 -28 79 -36 q 63 -8 63 -19 q 67 6 63 0 q 47 415 49 381 q 47 521 46 440 q 43 622 47 583 q 32 747 32 726 q 22 760 25 751 q 23 781 18 771 q 39 796 28 792 z "},"s":{"ha":785,"x_min":15,"x_max":789,"o":"m 33 338 q 42 347 36 344 q 147 393 83 375 q 188 404 151 394 q 246 421 225 414 q 124 524 163 465 q 78 731 69 606 q 138 888 85 819 q 274 992 192 956 q 440 1024 349 1026 q 603 975 531 1021 q 767 778 697 915 l 771 774 q 776 756 778 765 q 768 740 775 746 q 682 665 753 728 l 635 624 l 619 611 l 615 607 l 614 606 q 612 604 613 604 q 611 603 611 604 l 603 600 q 567 608 588 597 q 535 631 553 615 q 502 657 525 638 q 465 686 479 676 q 403 724 426 717 q 372 713 383 729 q 382 688 367 703 q 447 642 400 667 q 535 603 479 626 q 599 575 589 581 q 789 346 751 486 q 722 54 828 200 q 669 8 703 28 q 610 -18 635 -11 q 550 -33 586 -25 q 275 -29 383 -68 q 72 158 156 15 l 44 207 q 26 255 36 222 q 15 315 15 288 q 33 338 15 333 m 592 649 l 604 660 l 651 701 l 721 763 q 578 936 660 883 q 439 978 517 975 q 293 949 360 979 q 176 858 222 917 q 125 728 131 801 q 163 550 117 618 q 274 460 197 500 l 343 426 q 411 392 389 404 q 513 285 490 347 q 492 199 533 228 q 404 189 458 175 q 308 251 353 204 q 246 372 264 297 q 199 358 229 367 q 160 349 169 350 q 67 308 103 332 q 63 306 65 307 q 114 181 65 264 q 290 15 188 53 q 539 14 386 -19 q 683 82 651 38 q 743 335 776 210 q 576 533 711 456 q 517 560 568 538 q 426 600 460 583 q 347 654 372 628 q 333 738 307 697 q 415 769 361 783 q 494 724 447 760 l 531 694 l 564 667 q 589 650 579 656 q 592 649 590 649 m 290 393 q 340 285 304 325 q 417 235 376 246 q 465 238 449 226 q 468 268 476 246 q 388 351 451 315 q 324 383 367 364 l 286 400 q 290 393 289 397 z "},"t":{"ha":579,"x_min":56,"x_max":593,"o":"m 425 931 q 326 932 386 931 q 218 935 235 935 q 222 807 218 894 q 225 674 225 719 q 215 651 225 660 q 197 642 208 643 q 153 635 182 640 q 111 628 124 631 q 119 447 113 536 q 186 443 149 443 l 189 443 l 193 443 q 213 435 204 443 q 221 415 221 426 l 221 47 q 425 46 267 42 q 424 211 422 103 q 421 400 425 351 q 418 413 418 406 q 426 432 418 424 q 446 440 435 440 l 536 440 l 536 639 l 449 639 q 426 649 435 639 q 417 672 417 658 q 425 931 425 886 m 479 960 q 481 951 481 956 q 474 694 481 883 l 564 694 q 583 686 575 694 q 592 667 592 678 q 590 658 592 663 q 592 651 592 656 q 593 414 592 442 q 585 394 593 403 q 567 385 578 385 l 564 385 l 478 385 q 479 211 482 328 q 482 40 476 97 q 493 18 493 32 q 485 -1 493 7 q 465 -10 476 -10 q 383 -11 444 -10 q 275 -12 321 -12 q 189 -6 229 -11 q 171 6 178 -4 q 165 26 164 15 l 168 35 q 165 46 165 40 l 165 388 q 93 394 126 389 q 74 411 79 397 q 65 428 67 418 q 56 647 56 536 q 64 667 56 658 q 83 675 72 675 l 86 675 q 101 683 92 682 q 138 689 114 685 l 169 694 q 166 819 169 733 q 163 951 163 906 q 176 976 163 968 q 201 990 185 990 q 328 988 226 990 q 450 988 413 985 q 470 980 461 988 q 479 961 479 972 l 479 960 z "},"u":{"ha":772,"x_min":11,"x_max":786,"o":"m 106 793 q 104 789 106 790 q 76 636 86 733 q 67 433 65 539 q 135 100 71 186 q 202 43 163 61 q 307 11 242 25 q 443 10 386 -7 q 464 19 451 19 q 483 11 475 19 q 492 -8 492 3 l 492 -37 q 725 -37 701 -36 l 725 -36 q 719 176 725 -3 q 718 393 715 311 q 724 490 719 419 q 729 603 728 560 q 729 704 731 647 q 721 800 728 761 q 524 799 621 807 q 494 503 507 603 q 461 319 479 388 q 436 254 449 278 q 394 211 419 219 q 329 228 357 199 q 297 289 310 249 q 275 471 279 353 q 273 603 272 553 q 276 717 274 653 q 278 789 278 782 q 106 793 188 803 m 85 847 q 303 842 189 861 q 319 831 313 839 q 325 811 326 822 q 333 792 333 803 q 331 722 333 783 q 328 607 329 661 q 331 474 328 553 q 351 306 335 361 q 369 267 360 276 q 376 264 374 263 l 378 264 q 382 269 379 265 q 388 279 385 274 q 407 335 397 299 q 439 510 424 399 q 469 822 446 561 q 489 846 471 840 q 504 853 496 851 q 749 853 626 865 q 767 842 760 851 q 774 822 775 833 l 774 819 q 784 716 782 778 q 785 608 786 654 q 779 488 783 561 l 774 390 q 775 179 771 311 q 781 -36 781 3 q 778 -49 781 -43 q 786 -71 788 -57 q 776 -90 785 -82 q 756 -96 768 -97 q 672 -92 715 -92 q 567 -92 628 -92 q 482 -93 506 -93 q 471 -90 476 -93 q 464 -92 468 -92 q 444 -83 453 -92 q 436 -64 436 -75 l 436 -50 q 296 -44 375 -61 q 219 -24 249 -33 q 153 8 190 -15 q 90 67 115 32 q 11 433 17 167 q 21 643 10 540 q 51 806 32 746 q 61 819 54 814 q 68 838 61 829 q 85 847 75 846 z "},"v":{"ha":879,"x_min":-47,"x_max":893,"o":"m 11 660 q 319 -8 74 401 q 380 -7 340 -8 q 439 -6 419 -6 q 538 165 478 54 q 642 353 615 310 l 692 435 l 747 522 q 792 602 767 556 q 836 690 818 649 q 776 725 814 701 q 708 765 738 749 q 647 792 678 781 q 523 594 583 708 q 422 367 463 479 q 408 351 418 356 q 386 350 397 346 q 372 361 378 354 q 361 375 365 367 l 206 757 q 122 717 175 744 l 13 660 l 11 660 m 460 -60 q 311 -64 408 -64 q 290 -54 299 -64 q 275 -42 281 -51 q -47 661 14 392 q -43 681 -49 672 q -26 693 -37 690 q -12 710 -22 704 l 97 767 q 213 819 164 800 q 234 819 224 824 q 249 803 244 814 q 250 794 250 799 q 251 793 250 793 l 393 446 q 604 826 488 675 q 628 838 614 838 q 660 847 640 854 q 791 781 707 829 q 878 731 875 732 q 892 714 889 725 q 890 693 896 703 q 889 690 889 692 q 888 669 893 681 q 843 578 869 628 q 794 494 817 528 l 739 406 l 689 325 q 586 139 665 286 q 483 -40 524 24 q 460 -60 478 -58 z "},"w":{"ha":1133,"x_min":-29,"x_max":1147,"o":"m 31 754 q 73 620 42 706 q 113 506 104 535 q 285 40 176 301 q 351 58 286 40 q 447 82 415 76 q 469 133 456 104 l 497 189 q 533 294 528 254 q 544 314 535 307 q 564 319 553 321 q 586 303 581 317 q 597 283 596 294 q 622 183 600 254 q 646 86 642 122 q 842 24 757 42 q 926 283 869 129 l 1025 550 q 1047 611 1032 571 l 1069 672 q 1083 727 1076 694 q 1092 788 1090 760 q 885 860 981 842 l 847 744 l 806 606 q 774 489 788 546 q 757 467 772 474 q 736 465 747 461 q 721 481 725 469 q 599 736 667 600 q 532 744 569 740 q 529 740 531 742 q 393 496 450 610 q 376 482 388 486 q 356 483 365 478 q 342 501 344 489 l 340 503 q 315 572 338 511 q 283 659 292 633 q 262 732 275 685 q 244 815 249 779 q 152 791 233 813 q 31 754 71 769 m 592 67 q 569 165 590 101 l 561 193 q 547 165 556 181 l 519 108 q 497 56 506 78 q 489 44 494 49 q 467 28 483 29 q 369 7 433 25 l 292 -15 q 282 -22 288 -21 q 260 -23 271 -28 q 246 -8 250 -18 q 60 489 126 274 q 19 603 57 497 q -29 765 -18 708 q -24 785 -31 776 q -8 797 -18 794 q -6 799 -7 799 q 71 826 29 814 q 162 851 113 839 q 236 871 211 864 q 258 869 247 875 q 271 853 268 864 q 290 846 282 853 q 299 828 297 839 q 372 578 308 747 q 482 768 421 668 q 490 778 485 774 l 490 779 q 501 797 492 790 q 522 803 511 804 q 610 792 572 794 q 622 788 617 790 q 643 772 636 785 l 739 574 q 789 744 756 635 l 835 888 q 838 894 836 890 q 849 913 839 906 q 869 918 858 919 q 1121 835 986 901 q 1135 818 1132 829 q 1147 794 1147 810 q 1140 722 1147 761 q 1124 658 1132 683 l 1100 592 q 1078 533 1083 547 q 979 264 1072 515 q 892 -4 919 101 q 890 -10 892 -7 l 890 -12 q 879 -31 889 -24 q 858 -36 869 -37 q 624 35 767 -22 q 614 40 618 38 q 592 67 593 44 z "},"x":{"ha":807,"x_min":-28,"x_max":819,"o":"m 63 688 q 109 610 76 667 q 165 519 142 554 q 218 454 189 483 q 225 434 225 446 q 217 414 225 422 q 213 411 214 413 q 210 407 211 410 l 197 390 q 29 121 75 217 l 100 92 q 181 59 146 72 q 249 36 217 46 q 374 236 314 122 q 385 249 378 244 q 390 253 388 250 q 410 258 399 260 q 429 247 422 257 q 519 139 454 217 q 592 51 567 83 q 621 76 606 64 q 657 101 636 88 l 688 122 l 725 144 q 756 164 753 163 q 664 292 751 168 q 550 425 601 379 q 540 444 542 432 q 547 464 539 456 q 557 471 551 468 q 747 699 656 606 l 744 701 q 590 838 668 793 q 419 647 536 786 q 411 638 417 642 q 390 633 401 631 q 372 643 379 635 q 246 793 301 740 q 154 740 221 781 q 63 688 94 704 m 4 719 q 125 788 44 740 q 250 858 215 840 q 271 860 260 864 q 288 846 282 856 q 290 829 292 838 q 396 706 339 781 q 553 879 494 824 q 576 886 563 888 q 608 892 590 901 q 701 825 653 868 q 786 738 750 781 q 793 714 796 726 q 797 710 796 713 q 806 690 806 701 q 797 671 806 679 q 608 447 707 579 q 708 324 654 403 q 814 179 799 197 q 819 153 824 167 q 807 131 818 139 q 756 100 790 121 l 703 65 q 658 33 683 53 q 615 -6 632 14 q 601 -12 610 -11 q 565 -6 579 -25 q 476 103 544 22 l 408 183 q 293 1 353 82 q 290 -3 292 0 l 289 -4 q 276 -21 286 -15 q 256 -24 267 -26 q 176 1 217 -14 q 81 40 135 17 q 7 69 26 63 q -11 93 -10 76 q -12 94 -12 93 q -28 110 -24 99 q -26 131 -32 121 q 33 242 -3 182 q 89 333 68 301 l 161 433 q 108 505 133 465 q 53 595 82 544 q 10 668 24 646 q -8 682 -3 671 q -10 703 -14 692 q 4 719 -6 714 z "},"y":{"ha":779,"x_min":-37,"x_max":793,"o":"m 289 336 q 301 301 310 324 q 147 -78 253 172 q 368 -147 265 -129 q 389 -71 378 -110 l 411 0 q 439 75 422 32 l 464 147 q 494 222 474 174 l 522 290 q 554 364 531 311 q 584 432 578 417 q 616 504 590 447 q 647 572 642 561 q 678 640 656 592 q 715 720 701 688 q 736 786 729 753 q 564 865 644 840 q 483 731 551 842 q 414 583 431 642 q 401 566 411 572 q 381 564 390 560 q 361 582 365 568 q 350 596 353 588 q 281 733 332 646 q 211 861 226 825 q 159 838 192 851 q 107 815 126 824 q 63 791 88 806 q 18 760 38 776 q 99 607 47 692 q 183 478 151 522 l 289 336 m 383 -206 q 106 -119 254 -187 q 93 -108 97 -117 q 88 -78 79 -94 q 243 304 196 182 l 136 450 q 47 587 103 497 q -37 747 -8 676 q -36 774 -43 761 q -26 794 -36 786 q 42 843 6 822 q 131 886 79 864 q 201 918 183 908 q 229 917 215 925 q 254 900 247 917 q 328 761 274 856 q 383 660 365 697 q 436 758 400 699 q 521 906 507 876 q 526 913 522 910 q 557 925 536 931 q 775 828 660 897 q 789 801 790 819 q 793 781 794 792 q 769 706 783 743 q 729 615 754 668 q 697 550 704 563 q 667 481 694 542 q 633 406 639 419 l 603 338 q 572 263 579 282 l 543 193 q 514 118 522 143 l 488 47 q 461 -28 471 3 l 439 -100 q 418 -175 428 -139 q 415 -183 418 -179 q 403 -201 413 -194 q 383 -206 394 -207 z "},"z":{"ha":839,"x_min":17,"x_max":853,"o":"m 763 856 q 776 836 775 849 q 788 726 778 824 q 804 622 794 663 q 788 592 808 600 l 700 494 l 592 378 l 500 286 q 822 265 689 283 q 843 249 838 263 q 851 229 851 240 q 853 154 851 213 q 853 56 854 96 q 847 -22 851 15 q 837 -42 846 -35 q 817 -47 828 -49 q 800 -40 807 -46 q 304 -42 600 -22 q 190 -56 290 -43 q 68 -62 115 -65 q 49 -53 57 -62 q 42 -33 42 -44 q 43 -26 42 -31 l 42 -25 q 17 192 17 110 q 31 217 17 208 l 35 221 q 103 304 53 242 l 181 400 q 251 480 207 432 q 333 565 294 528 q 101 576 200 567 q 90 581 96 578 q 74 606 74 588 q 86 733 74 643 q 93 851 97 811 q 108 879 92 871 q 133 894 117 894 q 249 895 153 894 q 381 895 344 896 q 492 892 418 894 q 626 885 567 890 q 742 872 685 881 q 763 856 757 869 m 414 565 q 319 473 369 526 q 244 389 269 419 l 154 281 l 76 185 q 72 181 75 182 q 96 -7 74 108 q 182 0 129 -7 q 301 14 278 13 q 794 17 596 32 q 796 213 797 46 q 440 231 658 231 q 415 247 422 231 q 408 268 407 257 q 418 286 410 279 q 522 386 471 333 l 649 522 l 746 628 q 732 721 739 665 q 722 818 722 814 q 626 829 678 825 q 536 835 574 833 q 435 838 499 838 q 344 839 371 839 l 243 839 l 150 839 q 142 726 151 799 q 131 629 132 654 q 401 621 238 621 q 421 613 413 621 q 429 593 429 604 q 419 572 429 581 q 414 565 418 568 z "},"{":{"ha":613,"x_min":-74,"x_max":625,"o":"m 429 1018 q 222 950 304 1018 q 122 756 140 882 q 118 710 119 740 q 115 657 117 664 q 79 550 108 589 q -22 503 50 511 q -15 364 -14 392 q 104 288 65 335 q 143 179 136 246 q 145 107 144 158 q 152 17 146 56 q 175 -60 158 -21 q 353 -179 221 -158 q 564 -169 444 -193 q 529 -36 532 -86 q 365 -43 432 -74 q 267 121 267 -1 q 267 150 267 135 q 269 185 268 165 q 271 215 271 204 q 267 299 274 267 q 261 317 264 306 l 257 335 q 253 347 256 340 q 247 360 250 354 l 238 368 l 215 389 q 192 411 200 403 q 183 422 186 417 q 179 428 181 425 q 175 443 175 435 q 178 453 175 449 q 179 456 178 454 l 182 458 q 185 463 183 460 l 194 474 l 224 506 l 253 540 q 267 563 264 557 q 269 653 274 590 q 267 764 264 736 q 314 861 272 831 q 433 889 356 893 q 429 1018 433 894 m 478 1043 q 481 969 479 1026 q 485 881 482 913 q 481 865 485 872 l 481 860 q 472 843 479 850 q 453 838 464 836 q 343 822 375 846 q 317 760 319 804 q 319 657 314 736 q 314 549 325 583 q 293 511 310 535 q 261 472 281 494 l 232 440 l 249 425 l 272 404 q 286 390 285 393 q 299 369 293 382 q 306 349 304 357 q 311 326 308 340 q 314 310 314 313 q 321 213 324 272 q 319 183 321 201 q 317 150 318 165 q 317 122 317 135 q 331 48 317 76 q 385 1 346 19 q 419 -8 401 -6 q 457 -6 438 -10 q 492 4 476 -1 q 532 19 508 10 q 553 18 543 24 l 558 18 q 575 9 568 17 q 581 -10 582 1 q 583 -62 578 -33 q 594 -110 589 -92 l 615 -165 q 625 -181 624 -171 q 622 -199 628 -190 q 607 -210 617 -208 q 346 -229 460 -246 q 131 -79 188 -204 q 103 8 110 -37 q 95 108 96 53 q 93 174 94 163 q 64 257 89 226 q -35 318 35 293 q -47 317 -42 317 q -63 326 -57 318 q -68 346 -69 335 q -65 399 -65 386 q -69 456 -65 413 l -74 515 q -64 536 -75 528 q -44 550 -58 549 q -8 555 -18 553 q 17 563 3 557 q 40 581 32 569 q 65 663 61 608 q 68 713 67 671 q 72 764 69 744 q 194 992 94 913 q 443 1068 294 1072 q 450 1067 446 1068 l 451 1067 q 470 1060 463 1067 q 478 1043 478 1053 z "},"|":{"ha":286,"x_min":-24,"x_max":300,"o":"m 26 940 q 33 251 14 701 q 33 113 35 206 q 35 -11 32 29 q 140 0 47 -10 q 239 4 200 6 q 226 399 239 133 q 213 801 213 665 q 208 892 213 821 q 206 961 206 939 q 26 940 83 956 m 3 986 q 226 1013 67 1006 q 247 1003 239 1013 q 257 981 258 994 q 258 894 254 950 q 263 801 263 822 q 276 397 263 665 q 289 -4 289 129 q 300 -29 303 -12 q 290 -45 299 -39 q 271 -50 282 -51 q 146 -50 225 -43 q 10 -61 38 -61 q -8 -53 0 -61 q -15 -36 -15 -46 q -14 -31 -15 -33 q -15 -25 -15 -28 q -17 114 -18 22 q -17 249 -15 206 q -24 957 -33 765 q -10 978 -22 971 q 3 986 -6 985 z "},"}":{"ha":579,"x_min":-50,"x_max":592,"o":"m 40 -203 q 252 -153 165 -214 q 368 31 339 -93 q 375 71 372 46 q 381 115 381 113 q 413 208 389 175 q 465 256 436 243 q 533 269 493 268 q 539 408 532 371 q 425 499 458 449 q 397 610 396 543 q 402 679 397 628 q 404 768 407 731 q 386 847 401 806 q 219 981 349 949 q 11 989 129 1003 q 31 856 32 904 q 196 847 132 883 q 279 674 289 793 q 275 646 278 661 l 271 611 q 267 582 268 596 q 265 499 260 531 q 268 478 267 490 l 269 461 q 273 447 271 454 q 278 436 275 440 l 286 428 l 307 406 q 329 382 321 390 q 338 369 335 375 q 343 349 344 358 l 338 336 q 335 333 338 335 q 331 329 333 332 l 321 319 l 289 290 q 257 257 268 271 q 242 238 243 243 q 231 139 233 207 q 221 29 228 58 q 164 -61 207 -35 q 46 -76 119 -87 q 40 -203 46 -140 m -12 -222 q -4 -62 -4 -144 q 1 -47 -4 -54 l 1 -42 q 13 -26 4 -32 q 32 -22 21 -21 q 138 -18 104 -37 q 172 39 163 -3 q 181 142 178 65 q 194 251 183 215 q 219 290 199 268 q 254 326 232 306 l 286 356 l 271 371 l 250 392 q 236 408 239 404 q 226 431 231 418 q 221 452 222 443 q 218 474 219 461 q 215 490 217 488 q 218 589 210 531 q 222 618 219 600 q 226 651 225 636 q 229 678 228 665 q 221 752 233 722 q 171 803 208 782 q 124 817 150 815 q 79 815 99 819 q 24 801 60 811 q 3 804 13 797 l -1 804 q -17 815 -11 806 q -22 833 -24 824 q -19 865 -19 849 q -21 894 -19 882 q -26 926 -22 906 q -33 956 -31 947 q -42 992 -35 965 q -50 1006 -49 997 q -45 1025 -51 1017 q -29 1035 -39 1033 q 232 1029 119 1057 q 433 864 388 990 q 453 774 450 818 q 452 674 457 729 q 447 610 447 618 q 467 526 446 558 q 561 453 493 486 q 575 453 568 456 q 590 442 585 451 q 592 422 594 433 q 585 381 588 404 q 583 344 583 358 q 583 297 582 329 q 583 254 583 265 q 571 233 583 240 q 551 221 564 221 q 491 212 511 219 q 454 181 471 204 q 431 108 438 157 q 425 64 429 106 q 418 19 421 36 q 276 -198 383 -128 q 21 -251 168 -268 q 15 -250 18 -251 l 13 -250 l 10 -250 q -7 -241 0 -249 q -12 -222 -14 -233 z "},"~":{"ha":965,"x_min":-83,"x_max":978,"o":"m 92 197 q 183 285 132 264 q 303 283 235 306 q 419 231 335 274 q 536 182 493 194 q 922 379 769 124 q 761 463 885 407 q 622 333 714 354 q 422 393 526 313 q 392 419 410 403 q 360 445 374 435 q 331 463 346 456 q 189 469 278 486 q 54 413 100 453 q -28 292 13 378 l 39 240 l 92 197 m 89 138 q 8 201 69 151 q -72 261 -42 240 q -83 277 -81 267 q -79 296 -85 288 q -76 307 -79 301 q 21 451 -29 408 q 179 518 78 500 q 353 507 285 539 q 388 485 371 499 q 426 455 406 472 q 453 432 446 438 q 611 382 538 365 q 721 497 685 399 q 725 506 722 501 l 726 507 q 740 519 731 515 q 760 518 750 522 l 806 497 l 861 472 q 908 447 881 463 q 958 417 936 432 q 965 407 963 413 l 967 407 q 978 392 975 401 q 976 372 981 382 q 525 135 801 65 q 397 186 478 147 q 288 236 315 226 q 203 239 238 253 q 129 161 163 222 q 124 142 131 151 q 108 132 118 133 q 89 138 97 131 z "},"":{"ha":394,"x_min":3,"x_max":403,"o":"m 253 968 q 105 823 158 918 q 57 619 51 728 q 207 624 163 625 q 248 758 211 694 q 347 853 285 821 l 325 885 l 300 918 q 279 944 293 929 q 253 968 265 958 m 282 1015 q 326 975 306 999 q 372 915 347 951 q 403 871 397 878 q 401 836 417 853 q 385 808 403 817 q 297 731 329 786 q 263 613 264 676 q 272 588 274 603 q 262 569 271 576 q 240 564 253 563 q 189 567 218 567 q 144 568 160 568 q 88 565 128 568 q 38 563 47 563 q 10 582 17 561 q 3 597 4 589 q 54 847 -10 731 q 236 1022 118 964 q 264 1021 250 1029 q 282 1015 274 1021 z "},"":{"ha":274,"x_min":-6,"x_max":257,"o":"m 204 931 q 149 919 182 928 l 122 911 q 96 904 104 907 q 132 821 121 868 q 124 697 150 747 q 72 643 110 672 q 101 624 86 636 q 125 606 117 613 l 151 583 q 172 564 168 568 q 204 931 272 739 m 256 951 q 201 504 339 718 q 183 492 194 494 q 163 496 172 490 q 153 508 156 500 q 149 510 151 510 l 106 549 q 57 589 76 576 q 14 608 38 601 q -3 621 3 611 q -6 642 -8 631 q 4 657 -4 650 q 13 668 7 664 q 74 722 67 707 q 78 808 90 754 q 38 889 65 860 q 31 911 29 899 q 28 918 29 914 q 33 939 26 929 q 50 951 39 949 q 76 957 63 953 l 108 967 l 135 974 q 231 986 192 988 q 249 977 242 986 q 257 957 257 968 q 256 951 257 954 z "},"":{"ha":532,"x_min":54,"x_max":546,"o":"m 243 904 q 199 913 225 907 q 136 926 144 925 q 118 578 118 811 q 211 582 143 579 q 206 649 206 614 q 208 713 206 685 q 217 780 210 742 q 228 842 224 818 q 243 904 233 865 m 301 910 q 281 819 288 849 q 267 738 275 789 q 260 645 258 686 q 271 565 261 604 q 268 544 274 554 q 251 532 263 535 q 244 531 247 531 q 233 528 239 528 q 81 524 114 522 q 62 533 69 524 q 54 553 54 542 q 63 571 54 564 q 85 961 63 833 q 97 978 88 972 q 118 983 106 985 q 119 982 119 983 q 132 983 126 983 q 211 967 149 981 q 282 957 254 957 q 301 949 293 957 q 310 929 310 940 q 301 910 310 918 m 488 881 q 429 892 476 883 q 383 900 401 896 q 374 743 382 867 q 364 569 365 626 q 407 570 376 569 q 453 571 438 571 q 488 881 456 732 m 535 913 q 546 885 549 901 q 508 546 508 722 q 500 526 508 535 q 481 518 492 518 q 468 515 475 515 q 404 515 447 515 q 340 514 361 514 q 322 522 329 514 q 313 539 314 529 q 308 554 308 546 q 318 747 308 619 q 328 936 328 875 q 336 956 328 947 q 356 964 344 964 q 365 963 361 964 q 369 961 367 963 q 439 946 394 954 q 515 931 496 936 q 535 913 531 928 z "},"":{"ha":496,"x_min":35,"x_max":510,"o":"m 344 601 q 390 599 361 601 q 454 593 447 593 q 426 939 457 732 q 335 924 393 935 q 354 760 354 853 q 344 601 354 668 m 288 590 q 299 766 300 669 q 272 933 299 863 q 273 955 268 944 q 289 969 278 965 q 294 971 292 969 q 304 975 299 974 q 456 999 407 994 q 476 992 467 1000 q 486 974 485 985 q 481 954 488 963 q 510 565 515 719 q 501 547 510 554 q 481 539 493 539 l 476 539 q 467 538 472 538 q 385 543 450 538 q 313 543 339 547 q 292 549 301 542 q 281 567 282 556 q 288 590 279 581 m 100 593 q 158 589 115 590 q 206 586 188 588 q 193 743 200 633 q 181 917 185 874 q 142 910 174 915 q 93 904 110 906 q 100 593 111 749 m 57 553 q 43 581 42 563 q 35 921 58 751 q 40 942 33 933 q 58 953 47 951 l 60 953 q 71 957 65 956 q 136 967 94 960 l 197 975 q 217 969 208 976 q 229 951 226 963 q 235 938 233 946 q 249 746 239 889 q 265 558 258 613 q 260 537 267 546 q 242 526 253 528 l 235 526 l 226 526 q 156 533 201 532 q 78 539 101 536 q 57 553 64 542 z "},"":{"ha":1389,"x_min":0,"x_max":0,"o":""}}}
